<svg xmlns="http://www.w3.org/2000/svg" viewBox="0 0 1200 900" role="img" aria-labelledby="title desc">
<title id="title">AfterKop reply drafting visual</title>
<desc id="desc">A simplified drafting visual for AI-assisted replies in AfterKop.</desc>

<rect width="1200" height="900" fill="#f7f4ef"/>
<rect x="44" y="44" width="1112" height="760" rx="44" fill="#fffdf9" stroke="#ddd8cd"/>
<text x="74" y="104" fill="#96a5bf" font-family="Outfit, sans-serif" font-size="17" letter-spacing="4">ACTION</text>
<text x="74" y="148" fill="#111111" font-family="Outfit, sans-serif" font-size="42" font-weight="700">AI-assisted reply drafting</text>
<text x="74" y="190" fill="#677794" font-family="Figtree, sans-serif" font-size="21">Start from a trusted response pattern, then edit before anything is saved or sent.</text>

<rect x="74" y="234" width="1052" height="162" rx="30" fill="#fffdfa" stroke="#ddd8cd"/>
<text x="104" y="282" fill="#96a5bf" font-family="Outfit, sans-serif" font-size="16" letter-spacing="4">REPLY TEMPLATES</text>
<rect x="104" y="314" width="290" height="58" rx="22" fill="#faf8f4" stroke="#ddd8cd"/>
<rect x="412" y="314" width="318" height="58" rx="22" fill="#faf8f4" stroke="#ddd8cd"/>
<rect x="748" y="314" width="318" height="58" rx="22" fill="#faf8f4" stroke="#ddd8cd"/>
<text x="132" y="350" fill="#111111" font-family="Figtree, sans-serif" font-size="18" font-weight="700">Confirm return</text>
<text x="440" y="350" fill="#111111" font-family="Figtree, sans-serif" font-size="18" font-weight="700">Exchange size</text>
<text x="776" y="350" fill="#111111" font-family="Figtree, sans-serif" font-size="18" font-weight="700">Request more info</text>

<rect x="74" y="428" width="1052" height="286" rx="34" fill="#fffdfa" stroke="#ddd8cd"/>
<rect x="106" y="466" width="988" height="190" rx="26" fill="#ffffff" stroke="#e7e1d6"/>
<rect x="136" y="506" width="742" height="10" rx="5" fill="#1e2738" opacity=".86"/>
<rect x="136" y="534" width="806" height="10" rx="5" fill="#1e2738" opacity=".78"/>
<rect x="136" y="562" width="702" height="10" rx="5" fill="#1e2738" opacity=".72"/>
<rect x="136" y="590" width="648" height="10" rx="5" fill="#1e2738" opacity=".68"/>

<line x1="104" y1="736" x2="1096" y2="736" stroke="#ddd8cd"/>
<rect x="104" y="760" width="202" height="56" rx="18" fill="#18212c"/>
<rect x="324" y="760" width="208" height="56" rx="18" fill="#ffffff" stroke="#cfd5e0"/>
<rect x="550" y="760" width="144" height="56" rx="18" fill="#efff59"/>
<rect x="712" y="760" width="146" height="56" rx="18" fill="#ffffff" stroke="#cfd5e0"/>
<text x="135" y="796" fill="#ffffff" font-family="Figtree, sans-serif" font-size="19" font-weight="700">Save draft</text>
<text x="359" y="796" fill="#4f5f7b" font-family="Figtree, sans-serif" font-size="19">Approve to send</text>
<text x="588" y="796" fill="#111111" font-family="Figtree, sans-serif" font-size="19" font-weight="700">Send reply</text>
<text x="751" y="796" fill="#4f5f7b" font-family="Figtree, sans-serif" font-size="19">More tools</text>
</svg>
