<?xml version='1.0' encoding='utf-8'?>
<svg xmlns="http://www.w3.org/2000/svg" enable-background="new 0 0 5000 4973.0283" version="1.1" viewBox="0 0 5e3 4973"> <path d="m4954.6 1527.5c-55.643 61.811-151.61 105.76-290.91 101.59-252.25-7.5635-449.99-133.53-728.75-165.19-99.701-11.321-202.37-16.007-302.23-4.1277l-139.46 22.612c-25.737 3.6531-51.954 4.6519-77.906 5.9006 65.238-46.885 87.534-51.94 167.02-73.856-22.926 17.618-49.5 31.774-74.831 45.661 61.147-4.4722 75.978-7.0415 142.6-52.233 78.014-52.918 141.51-117.24 207.68-183.64-98.638 23.083-207.49 40.373-308.81 28.778 19.895-8.119 36.176-23.26 54.358-34.395 35.76-21.893 82.842-32.396 123.44-41.808-3.1699 2.7229-125.45 70.484-125.08 70.277 139.81 1.9684 211.13-70.857 300.76-201.77 9.6909-14.151 24.112-31.064 30.188-46.944l1.533-4.2551c-5.166 0.749-10.733 4.6909-15.704 6.5862-21.614 8.2515-161.74 39.546-152.73 37.611-19.503 4.187-40.422 10.572-60.278 11.302l90.569-33.998c97.057-47.292 131.67-155.54 164.62-250.32-43.35 16.296-84.737 22.887-130.45 28.513l33.694-13.789c10.67-6.6304 21.668-34.821 26.966-45.892 46.858-97.976 49.028-92.19 79.39-231.04-27.435 14.641-53.839 25.536-83.777 33.914 16.071-43.09 27.103-92.436 36.446-137.51 22.104-106.62 9.0984-225.56-38.708-323.76-12.888-26.478-29.963-51.038-46.009-75.669h-2.3701c1.5034 36.57 3.7263 70.285-0.6121 107.04-46.376 392.9-651.34 356.91-967.24 754.57-215.42 271.18-181.71 474.97-277 601.79-9.9697 13.27-22.015 25.394-31.275 39.075 38.209-5.3278 71.977-7.9718 110.29-0.5828 8.7896 1.6942 43.82 13.584 50.049 11.321 2.1055-0.7638 10.65-13.011 12.344-15.258 114.85-152.16 130.35-323.24 201.85-464.01 51.293-101.01 154.68-211.07 241.42-275.33 229.17-169.77 504.43-237.28 644.68-505.79 7.7122-14.767 13.593-36.497 23.009-49.18-1.7676 20.927-10.67 41.374-18.651 60.624-154.09 371.7-626.22 394.03-651.71 681.35-5.8513 66.012 11.224 126.57 18.794 191.55 10.97 94.177-3.1987 209.7-18.152 253.55-6.4734 18.98-19.415 34.414-29.507 51.444-22.714 38.328-42.977 91.561-110.37 148.53-44.902 37.959-85.549 59.837-144.73 63.867 35.574 50.583 80.54 78.758 135.67 104.47 49.78-30.918 93.825-72.123 138.61-109.7-35.745-5.6252-104.07-31.175-124.85-50.573l1.8506-3.2023c28.245-6.9479 65.663 20.874 123.52 29.639 21.626 3.2686 16.038 6.0544 43.654-12.672 26.696-18.118 55.464-39.697 77.47-63.402-33.686-3.9531-137.84-24.055-169.58-36.128 92.329-21.927 132.99 25.07 344.73 9.8668-62.031 21.849-123.8 41.313-179.35 77.842-71.504 47.009-153.44 146.94-256.06 205.62-45.61-27.939-103.89-55.209-154.46-66.844-20.566-4.7389-13.074 0.4535-21.09-28.694-5.1663-18.774-11.698-36.7-19.974-54.333-42.552-90.691-154.16-157.14-255.13-132.93-46.479 11.145-81.172 37.063-112.65 71.942-9.01-11.884-17.408-23.328-24.41-36.549 4.3188-5.2251 50.72-9.0092 60.214-9.5876l1.2241-3.3446c-3.2024-5.8219-5.5725-11.213-12.242-13.588-10.273-3.6626-21.78-4.03-32.147-7.9423-39.555-14.944-81.443-54.24-92.488-78.626 8.4956 3.4034 27.352 12.962 35.927 12.085 7.0315-0.7123 28.697-8.1807 47.086-21.139l2.6687 2.4482c-6.5178 15.474-15.092 20.83-28.896 29.537 25.331 0.9255 47.571 4.8282 67.848-13.735 13.338-12.212 16.908-26.995 21.854-43.61 19.116 2.6638 43.301 8.6816 60.425-3.2808 9.7788-6.8308 17.393-19.215 19.45-30.942 4.7397-27.093-15.899-50.666-8.897-75.688 5.1313-18.362 25.217-32.563 36.803-47.209 28.606-36.157 30.761-79.913 2.5757-116.17-11.111-14.294-23.592-27.034-31.04-43.712-13.94-31.216 12.361-82.213-17.52-128.29-12.953-19.986-31.119-33.579-69.733-39.315-7.5161-25.12-12.917-51.581-23.376-75.664-32.545-74.925-125.56-127.72-187.52-119.08-9.7883 1.3665-24.674 5.7387-34.154 4.9557-2.9968-0.2452-10.743-5.2349-13.814-6.9387-42.758-23.739-72.089-48.497-124.75-31.818-12.266 3.8828-26.197 9.5875-36.725 16.883-20.821 14.43-37.866 37.234-66.027 22.961-32.377-16.414-57.31-26.467-94.158-14.298-28.699 9.4752-57.433 32.47-70.409 59.823-7.1344 15.042-11.16 32.019-15.738 47.987-43.448 9.1369-83.415 20.458-109.64 59.577-16.311 24.336-13.666 47.572-17.696 74.748-2.9888 20.192-20.702 35.835-12.403 76.227 15.494 75.412 71.57 108.6 145.7 121.85 1.2682 15.841 1.6797 32.724 4.6862 48.295 4.0129 20.79 22.743 47.064-8.3488 108.7-10.302-11.779-732.11-836.91-686.72-785.85-27.421-30.849-60.616-62.28-82.822-97.088 13.887-85.625 13.686-176.57-39.457-249.73-30.32-41.747-77.372-73.835-128.76-81.554-79.705-11.974-144.22 46.29-151.11 112.33-2.9476 28.241 0.617 55.471 19.513 77.836 11.992 14.194 36.485 27.587 55.215 28.845 12.903 0.8662 23.244-0.7356 35.643-4.2479l11.443-2.8058c-21.849-13.946-45.602-30.82-52.536-57.594-13.97-53.932 51.824-92.876 110.8-49.298 67.316 49.729 93.416 191.17 2.6441 306.89-37.523 47.841-84.09 79.551-132.88 114.59l-91.21 70.742c-147.84 122.75-292.3 328.61-334.2 509.07-18.935 81.544-21.058 165.59-14.635 248.66-14.715-11.727-22.323-19.058-42.374-16.609-60.962 7.4402-111.52 24.498-130.62 26.001 32.607-29.605 113.05-54.701 119.51-103.81 0.8383-6.3656-0.9436-13.671-5.8069-18.147-10.266-9.4459-25.364-7.7856-38.054-6.072-49.307 6.6595-100.51 45.064-141.96 71.653l-117.38 74.88c50.723 41.431 181.5 178.4 242.19 173.93 19.556-1.4379 35.778-15.764 31.88-36.245-5.8599-30.787-66.141-81.841-87.211-101.19 44.068 14.998 105.31 43.546 152.16 35.784 10.105-10.258 11.955-26.021 14.344-39.707 16.658 3.9015 29.885 6.1149 53.157 6.4194-8.5448 5.0535-30.436 15.116-32.341 24.762-2.989 15.14 10.296 31.848 18.203 43.693 52.687 18.669 93.868 7.2972 110.68 28.327 3.6629 23.47 0.3772 46.744-8.3242 68.759l3.0506 3.604c10.809 14.293 2.3119 52.21 3.1436 53.932 3.8047 7.7789 8.632-2.2253 3.0065 23.499-4.7007 21.604-18.088 33.488-35.82 45.162 7.0897 9.9548 19.686 30.266 32.055 32.391 23.083 3.9662 46.362-7.4282 69.126-8.8287 21.78-1.3367 47.297 5.4989 68.254 10.88 151.51 38.935 276.76 123.81 395.96 145 76.525 13.598 151.28-3.9761 228.04-3.5697 133.28 0.6992 300.71 51.199 440.73-2.9773 16.188-6.2626 91.866-49.941 100.7-36.642 3.9565 5.9592 5.1317 13.941 6.8259 20.821-104.35 18.412-180.79 77.328-240.95 163.24-85.029 121.44-78.067 263.4-91.837 287.86-0.2065 0.3669-347.77 335.65-352.5 340.7-132.84-162.56-443.68-278.64-606.77-641.07-20.943-46.533-36.818-94.716-53.027-143.01l56.666-5.925c-13.781-57.224-41.19-73.923-51.362-106.33-5.2302-16.664-10.568-34.708-27.183-43.428-16.483-8.6523-51.318-13.373-69.559-10.528-11.022 13.636 0.1105 31.838 1.4103 52.732 1.3951 22.419-9.8222 20.12-4.6132 112.62 8.3479 5.1462 17.605-3.4475 20.331 8.0647 7.1213 30.066 12.608 60.092 21.965 89.668 118.58 374.8 445.4 542.31 564.61 652.39 92.635 85.55 173.84 217.24 93.404 338.66-20.786 31.388-49.78 52.903-87.014 60.282-110.42 21.872-101.14-138.52-46.979-98.599 12.741 23.376-11.674 54.157 6.1208 69.288 11.174 1.6257 20.223 0.9841 29.498-6.1895 38.677-29.946 19.96-97.556-44.31-96.792-74.854 0.8962-101.06 109.15-11.83 175.33 61.029 45.257 162.23 30.791 227.4-64.039 35.996-52.358 41.294-119.63 40.172-111.48 8.9218-64.876-7.9766-132.99-39.114-189.74-1.9833-3.6143-7.5851-7.0173-5.9886-10.822 0.1559-0.3721 243.1-234.16 242.73-233.79 32.058-31.632 62.408-68.225 97.253-96.572-32.247 159.55-45.053 254.25-127.97 395.25-37.594 63.922-120.34 160.19-110.17 282.41 2.1316 25.621 10.633 63.48 30.085 80.173l2.1691-0.9893c-2.4874-25.232-4.0691-51.214 2.5217-75.898 22.137-82.907 95.546-128 164.95-180.08 160.7-120.57 174.82-210.21 258.13-534.02l-66.301-15.552c-11.586-3.2319-28.641-12.315-40.187-11.968-45.632 181.75-99.828 352.88-208.65 507.79-12.271 17.466-30.614 50.93-48.477 62.422-1.5864 3.1096-2.1692 4.9167-5.0631 6.9924 1.5422-2.7468 2.277-5.4207 5.0631-6.9924 9.5729-21.521 24.199-41.45 35.981-61.913l48.129-91.235c60.471-119.53 79.904-162.58 128.23-368.53 5.0631-21.565 12.854-41.852 16.952-63.735l-68.147 65.748-3.8196-2.0371c0.8643-14.426 12.472-24.712 23.367-35.589 19.773-19.733 39.673-39.296 61.262-57.061 10.165-41.44 26.941-81.353 46.557-119.15 47.028-90.623 105.59-158.21 205.52-190.13 8.0793 52.747 21.805 94.442 43.203 143.07l-2.4482 2.1252c-17.979-4.8955-20.402-7.8914-31.789-21.981l-2.9185-3.6431c-76.427 55.716-129.63 150.75-135.21 194.75-1.8461 14.568 2.1201 19.205 10.778 30.149 6.4955-5.9319 7.6851-20.955 43.698-60.435l-30.114 65.493 2.3308 3.4082 11.018 0.5876c4.2405-3.4229 8.3291-6.209 13.069-8.8926l5.7047 10.391 5.7094 0.2546c14.896-12.07 16.027-30.825 20.757-48.594 14.662-55.077 17.471-71.56 49.417-114.97-17.138 50.642-40.069 109.48-29.723 163.94 5.5969 4.5342 7.9865 3.55 15.028 3.6724 10.283-7.4475 14.445-33.356 18.661-46.396 0.191 11.414-0.1224 23.225 2.6394 34.355 1.4396 5.8174 1.3662 5.46 6.4637 8.437l4.446-1.7578c6.9728-14.244 9.8766-30.188 15.185-45.113 12.931-36.354 27.43-71.825 33.875-109.83l2.8059-1.9294c13.526 35.872-18.372 96.012-24.439 149.18l22.701-5.9102c12.712-21.78 18.671-47.86 23.504-72.348l12.393 52.248 6.5958-5.0095c9.5242 9.666 9.1371 54.412 9.4164 69.386 2.0635 110.36-12.139 265.56-89.11 345.28 13.877-34.97 77.17-147.11 79.6-299.6 0.2842-17.765 1.3369-37.288-2.0858-54.725l-4.1622-32.132c-28.924 21.036-62.839 34.188-95.436 48.404-22.422 66.805-28.058 134.18-41.426 202.69-10.807 55.352-28.454 106.76-46.043 160.08 31.251-30.928 46.249-66.678 68.323-103.4-6.2727 38.992-19.459 67.486-37.2 102.22 44.402-29.575 54.279-71.63 70.12-91.974l1.9048-2.1938c-0.103 27.299-30.271 71.956-49.667 89.824-12.266 11.301-27.921 19.797-39.056 32.2-14.181 15.797-23.377 36.618-32.553 55.528 54.73-19.009 117.2-61.556 153.2-107.01 49.965-63.082 57.05-125.44 90.432-156.13-1.0079 6.3762-14.402 66.562-14.318 66.178 18.034-19.239 35.589-36.725 55.881-53.731-3.7264 21.1-45.701 62.736-59.45 84.247-7.1589 11.189-10.836 26.143-14.915 38.757 108.38-61.079 126.39-131.2 153.09-159.9l1.9048-1.9688c-45.857-65.64-96.156-126.13-122.17-203.5-15.209-45.235-22.221-96.028-40.765-139.54-14.79-34.718-69.52-90.691-82.998-199.28-14.705-118.52 9.225-234.51 83.37-329.88-6.7411 103.07-67.282 261.16-22.456 397.8 13.98 42.606 40.26 65.366 79.184 84.766-5.8643 47.6-11.087 81.661 22.554 173.51 22.529 61.507 54.304 123.33 93.614 175.87 26.638 35.606 63.428 63.036 75.821 107.07 49.877 169.58 25.509 136.71 90.866 217.92-35.907 61.448-101.32 76.604-159.78 108.76-47.062 25.894-96.881 56.199-137.84 91.196 37.196 12.254 103.67 11.711 113.42 18.465 7.0564 4.8831 27.472-6.387 50.357 1.4934 60.631 20.889 83.674 114.5 105.98 165.72 38.493-108.17 106.54-188.62 173.13-279.15 17.084-23.22 30.839-48.168 46.729-72.089-10.48 40.554-61.516 138.3-85.535 177.11-56.571 91.406-127.71 185.32-146.78 293.48-4.0547 23-5.0144 52.115 9.9402 71.413 28.626 36.946 74.699 3.7214 110.09 10.2 59.961 10.979 55.066 79.492 96.352 134.65 14.533 19.416 35.991 40.348 60.978 43.198 19.68 2.2429 40.912-5.9836 55.127-19.743 8.8728-8.5889 16.364-19.567 26.197-27.015 29.906-22.658 42.886-15.49 67.608 11.512 18.28 19.959 35.687 42.787 64.749 45.362 11.566 1.0283 25.806 0.4456 34.864-7.9028 16.815-15.488 24.033-45.5 25.071-67.834 0.1418-2.9822 0.4504-31.202-0.1812-31.804-10.072-9.6243-43.892 1.3254-93.301-52.6-77.671-84.8-66.614-222.54-58.926-328.14l7.095-118.57c19.417 70.396-23.931 456.76 141.05 481.6 97.826 14.729 100.81-109.12 159.14-150.9 29.532-21.149 71.673-20.894 104.05-6.5911 22.191 9.7983 46.67 25.629 71.002 28.494 52.796 6.2136 45.647-41.401 77.588-63.201 26.026-17.76 52.429-5.1121 79.62 1.0771 26.207 5.969 67.138 7.0464 90.064-8.8237 49.874-34.507 20.816-103.58 54.559-155.49 23.102-35.545 69.787-47.072 103.16-70.282 81.099-56.395 0.4995-145.95 19.058-219.96 11.783-47.006 59.587-60.53 74.165-151.89 4.3091-26.976 4.1819-61.576-13.995-83.816-5.8025-7.1003-11.801-13.059-21.487-13.001-19.117 0.1047-53.367 32.071-112.57 24.508-107.91-13.783-206.02-107.41-348.48-163.59-138.79-54.713-264.6-61.961-264.13-61.928-37.647-2.6292-35.143-0.407-54.906-18.661-55.062-50.872-87.023-67.736-22.843-264.53 1.3809 30.668 6.7131 55.386 19.469 83.395 23.974 52.629 72.059 105.99 126.98 126.3-4.668-18.388-61.215-86.123-75.276-169.67-1.2295-7.2961-3.4231-12.58 0.9351-18.73 10.449 6.9973 21.232 46.288 27.416 59.191 40.961 85.437 97.223 149.97 182.22 193.11 40.868 20.742 114.83 44.545 159.85 28.978 7.1638-2.4778 55.47 26.55 68.769 30.408 40.493 11.749 108.97 15.09 127.97-22.784 8.1089-16.164 6.5715-30.663 1.8904-47.194 91.05 44.127 229.88 33.795 227.99-16.218-0.9058-23.998-58.178-60.753-76.804-75.771 100.07 38.12 212.8 28.978 316.13 8.4612-35.394-17.207-75.208-37.807-99.735-69.812l-2.6838-3.6333c15.141-1.2217 176.8 36.638 310.86-12.58-57.775-26.324-94.256-66.085-136.88-111.51 125.97 27.039 244.66 46.337 367.98-4.6128-8.1577-6.5322-24.052-8.5398-33.953-13.432-33.396-16.497-54.936-45.632-77.593-73.954 54.332 3.217 216.02 24.07 340.98-52.928-50.489-6.9338-86.925-31.75-124.66-64.788 18.852 2.2329 38.351 4.3191 57.35 3.1683 67.065-4.0741 137.16-36.441 195.41-67.814 84.933-45.731 208.5-157.84 265.58-263.85 23.602-43.899 37.753-91.23 52.149-138.68-14.249 21.565-28.107 44.496-45.441 63.7zm-1150.3-270.24 4.8823-1.1946 1.5669 1.5964-42.366 31.427c-80.239 50.557-179.64 22.003-272.08-4.1621 57.153-6.2803 191.78 17.136 308-27.666zm23.039-190.13c23.401-9.6757 45.623-22.789 67.721-35.114l4.2993 0.1858c-26.629 30.882-59.58 49.696-96.988 67.074-129.41 60.107-268.76 66.242-408.24 79.302-59.441 5.5624-118.68 14.802-178.33 17.451l-5.3228-2.7324 0.426-4.5632c10.322-10.298 33.572-13.383 47.498-17.133 231-62.242 403-35.863 568.93-104.47zm-190.42-10.89-2.4045-0.0099c2.5474-16.088 18.041-36.109 29.282-47.997 55.846-59.083 130.42-79.037 199.07-118.22l4.1467 0.059c-77.996 96.813-162.04 105.17-230.09 166.17zm-440.31-127.35c5.8127-48.531 355.14-231.36 414.43-267.16 37.572-22.682 73.744-47.615 107.61-75.551 72.619-59.898 153.39-174.07 176.2-261.12 10.552-40.263 12.168-81.784 16.096-123.03 3.8879 13.023 4.0151 26.549 4.5779 40.045 3.5542 84.962-13.659 152.41-69.444 239.14-99.479 154.63-215.41 207.02-386.93 300.71l-259.48 149.71-3.0554-0.583-0.0053-2.1593zm85.653 65.003c166.67-66.75 318.32-96.612 366.75-114.79 89.707-33.674 157.67-128.19 208.24-205.54 20.776-31.774 41.146-62.976 57.075-97.581-17.496 12.393-35.751 25.55-55.866 33.375-13.314 5.1808-31.818 11.218-45.255 5.3034l-0.9109 3.5892c-5.9741 0.5235-5.1365 1.5911-10.259-2.4483 7.8838-20.845 30.629-40.74 45.97-56.797-0.7244 10.077-3.5889 21.296-0.5239 31.06l2.3257 0.3571c27.823 1.298 66.223-28.552 85.839-45.622 3.8679-0.2792 1.9097-0.6027 5.8022 1.3365-5.7632 25.071-18.147 49.574-29.6 72.451-56.454 112.77-105.01 159.4-183.23 237.97 74.625-4.1816 142.11-27.396 210.57-55.866-40.177 38.36-105.2 54.264-156.84 70.478-362.88 98.888-243.48 63.036-529.67 157.12-13.887 5.5427-33.254 16.11-47.88 16.908-4.314-4.74-5.3618-7.2421-6.4392-13.545 24.317-15.988 56.762-26.887 83.914-37.763zm-56.738 384.4c-7.4822 0.4556-14.494 0.7689-21.961-0.0441-0.9646-6.7279-0.3525-6.6986 3.3396-12.526 52.563-28.455 255.05-18.882 341.25-20.267l125.45-7.5262c2.7324-1.2633 9.5144-0.377 12.736-0.3719-167.84 73.832-306.31 23.729-460.81 40.735zm-2073.6 1504.8c-40.745 3.2158-52.674-63.386-70.561-100.39-42.12-87.151-142.07-129.02-168.22-145.77 8.7504 0.0588 18.945 6.1108 26.932 9.7249 32.24 14.592 63.211 31.353 91.078 53.295 73.604 57.95 86.307 95.407 101.16 126.92 8.6718 18.397 17.217 35.716 19.616 56.219zm905.32-286.56c2.2427 6.1011 1.998 10.557 0.5977 16.766-3.5552 15.762-13.02 42.292-27.04 50.813l-3.119-3.178c2.5412-20.223 18.22-47.615 29.561-64.401zm439.59-1000.1c24.738-29.453 65.522-44.202 102.61-48.183 157.89 1.3052 215.57 128.56 208.45 166.91l-3.9319 0.4897c-22.123-27.088-43.772-51.802-70.732-74.361-69.839-57.609-165.34-86.467-234.42-26.834-6.2629 5.4108-12.242 9.519-19.469 13.52 4.955-11.013 9.6608-22.216 17.496-31.544zm-45.706 41.029c62.073 49.938 33.458 21.341 102.43 87.753 18.054 17.453 10.38 13.122 32.391 10.807 56.138-5.86 118.03 2.9408 182.32 12.614 94.035 14.147 180.77 35.785 262.91 86.362 35.829 22.059 61.987 50.015 71.447 92.121 1.6699 7.4232 4.9604 19.308 0.9841 25.531-19.033-4.7792-40.299-31.97-55.964-44.187-145.47-113.54-294-41.97-425.48-103.37-36-16.815-61.585-47.351-92.454-71.472-18.147-14.176-38.512-25.762-57.638-38.591l-62.026-45.544c-30.476-22.882-64.496-67.694-114.86-72.471-11.277-1.0725-23.44-0.6805-31.809 8.158-12.305 13 0.6121 18.803 0.8276 30.824-1.5034 0.6711-2.8599 2.0177-4.5 2.0128-5.8467-0.0247-22.466-11.13-29.218-14.039-11.546-4.9801-23.915-8.5938-35.883-12.452l-0.1077-2.1547c10.67-15.62 16.203-23.22 35.829-26.927 6.2532 4.3727 12.256 29.943 16.056 38.468-0.5483-13.833-1.5815-27.294 7.5459-38.83 7.384-9.3329 20.982-9.9989 32.019-11.453 70.414-2.473 114.7 46.254 165.17 86.842zm-233.13 139.31c-18.063-3.3257-42.143-6.9993-47.586-24.557-3.0703-9.9058-0.8081-18.421 3.8684-27.255 26.357-22.961 84.121-17.666 114.58-0.5582 8.1233 4.5588 10.674 6.5518 13.505 15.248-10.464 12.52-40.104 3.8781-55.43 3.2758-9.3625-0.3673-18.98 0.8226-28.288 1.7432l-9.6367 4.3629c-1.4152 9.2253 5.2496 19.18 8.9903 27.74zm4.794-115.47c-6.3477 11.721-7.2388 19.662-5.925 30.78l-2.4482 2.8157c-21.925-5.0227-41.493-21.276-45.284-29.924-3.2366-7.3892-1.4346-10.954 1.7825-17.795 14.744-12.452 34.605-15.229 53.07-18.26 30.154-2.6443 47.747-0.0635 73.842 17.364 7.3254 4.8966 7.115 4.9651 9.0295 13.794-1.0234 1.0674-1.7188 2.6099-3.0752 3.1975-3.5268 1.5341-61.123-13.681-80.991-1.9733zm113.08-341.53c-12.247 0.6365-26.702 0.6561-36.24-7.962l1.7039-2.4828c11.429-0.8372 23.029-1.4788 32.73-8.2604 15.359-10.738 25.074-37.527 13.789-51.974-17.094-0.7928-30.007 12.472-42.797 22.383 0.6072-3.6383 10.406-13.769 13.143-17.148 12.119-10.792 22.104-25.57 34.551-35.09 16.019 3.071 19.995 8.2522 29.076 22.676l2.6345-0.4993c1.7578-3.9221 3.5354-8.0157 4.4216-12.242 5.6152-26.773-13.032-66.89-51.429-75.379-42.616-9.4309-73.769 26.241-106.34 46.831-10.694-2.0027-21.672-7.7809-31.755-11.923 35.383-33.91 65.424-64.308 116.07-71.467 24.802 1.1113 43.179 6.5029 62.628 22.843 24.385 20.488 41.063 54.691 42.993 86.592 2.9012 47.963-36.63 90.571-85.182 93.1zm111.23 101.51c-15.503 9.1273-31.3 4.1473-47.468 0.1959-5.4502-2.8989-7.918-3.7412-11.777-8.6671 8.2314-1.0969 16.58 1.6354 24.88 2.0223 11.693 0.5435 23.925-4.5148 34.904-8.153l7.9524-1.3857 2.1443 2.6099c-2.7518 5.6998-4.8917 9.994-10.635 13.378zm8.7698-29.728c-19.459 7.2812-42.851 6.3409-61.703-2.0125-4.1816-3.0311-4.3677-2.5416-6.5417-7.688 40.012 10.466 69.262 1.1832 92.953-19.244l3.467 0.2939c-5.8662 12.296-15.096 23.754-28.176 28.65zm11.502-341.74 23.587 17.653 22.157-12.109 3.364 1.2142c-1.4639 7.3199-6.1648 12.873-10.356 18.872-15.615 10.606-28.126 12.966-46.22 15.772l7.4673-41.402zm-21.584 250.68 17.138-0.3673c8.6426-1.2976 21.761-9.5975 25.771-17.525 3.7903-7.5018 4.9114-16.085 1.7727-24.053-3.0505-7.7413-14.376-12.252-21.398-15.904 29.143-3.4597 52.981 27.289 33.64 52.605-9.9844 13.074-25.84 15.336-41.01 16.981-8.1577-1.4298-13.025-3.6627-18.73-9.6023l2.8156-2.1349zm86.886-12.168c5.9446-15.395 4.8821-36.411-2.2327-51.327-5.5039-11.546-21.012-25.629-33.508-29.238-4.887-1.4103-7.2617-3.0507-11.522-5.9056l-0.0344-3.2805c6.1013 0.5825 3.2415 1.0626 8.6182-1.2242-3.4414-9.2863-10.833-12.17-19.244-25.707 53.022-1.8212 86.612 88.231 57.438 133.64-16.291 25.355-46.498 35.917-74.694 41.754-21.1 4.3727-41.21 2.223-59.45-9.8718l-2.2524-3.2562 2.2524-1.9586c48.741 6.6233 117 2.0632 134.63-43.624zm-268.07-476.59c41.006-8.1926 58.739 42.813 40.961 71.002l-2.4583-4.8966c-5.033-19.735-25.098-27.888-32.656-33.767 4.7451-1.6698 4.5247-0.6761 7.2375-5.4063l-21.384-17.53-0.2595-4.2112 8.5594-5.1906zm48.012 163.35c41.264-2.5168 69.028 16.325 98.78 42.273-14.494-30.746-33.473-59.666-67.212-71.364-37.396-12.971-71.173 5.1812-103.54 21.751 21.134-25.507 39.918-30.002 71.432-34.081l14.969-0.2845c28.068 1.8071 52.096 15.278 70.639 36.079 29.728 33.346 32.485 72.799 29.723 115.26-8.8931-12.141-23.731-51.449-50.456-64.597-36.627-18.025-87.743 10.234-126.2 9.9552-11.581-0.0836-23.558-3.702-34.742-6.5181 22.902-20.014 48.83-45.556 96.606-48.477zm-223.88-222.11c21.2-4.1532 45.071-0.8325 63.138 13.436 27.637 21.83 32.533 49.162 36.181 82.048l-5.4646-2.1987c-7.585-9.7145-19.415-14.352-27.882-23.029-17.403-17.829-2.137-33.452-76.084-64.905l-1.1018-2.9038 11.213-2.4482zm4.9703 77.451c15.998-0.5485 29.649-0.7642 44.814 5.3177 39.076 15.674 55.279 42.096 71.403 79.066-75.993-66.759-121.59-61.803-189.36-43.674 22.28-21.648 42.449-33.826 73.141-40.711zm-163.48-30.932c7.1539-0.7884 11.953 0.2743 17.819 4.3678 2.4482 6.0573 4.8624 8.6868 3.0995 15.219-8.4613 0.5486-15.131 1.8515-23.176 4.5593-0.3655 5.6693 0 9.1011 0.4312 13.803-4.1329 6.7328-5.3326 6.8161-12.673 10.053l0.6857 2.1942c1.4393 7.6286-1.2389 16.335-5.5823 22.524l-7.3451 1.2143-6.1207-4.1816c-3.6429-7.5508 0.1127-12.947 2.4973-20.787l-3.7216-3.447-13.466 2.9038-2.3553-1.9051c10.432-23.095 28.633-38.512 49.907-46.518zm-70.811 131.1c38.635 5.4014 68.587-17.123 102.02-32.964 14.024-6.6452 28.783-10.944 43.747-14.891h8.4515l-62.403 33.562c-25.815 15.277-53.114 30.815-84.002 22.897l-10.239-7.4917 2.424-1.1119zm-88.728-52.752 1.087 1.2241c-9.078 41.273 8.3184 82.862 47.483 100.21 99.856 44.231 172.88-107.63 277.63-55.744 33.674 16.683 69.846 56.341 82.881 91.881 13.619 37.128 6.8567 74.391 47.733 90.681l-10.631 1.2c-25.902-0.9431-59.422-10.069-68.206-34.693-5.7095-15.982 3.5842-32.597 9.8813-46.91-7.3989-25.6-27.171-45.549-49.226-59.461-73.039-46.063-161.91 27.094-235.07 42.782-25.653 5.4989-64.646 8.9119-87.332-7.0609-36.941-26.011-42.871-86.608-16.232-124.11zm418.49 263.18c-32.577-2.5562-56.483-5.7195-82.186-28.038-29.855-25.919-31.466-57.864-34.262-94.932 22.466 32.024 35.594 75.301 67.045 99.466 14.793 11.37 32.019 17.403 49.402 23.504zm-275.9 339.13c12.97-1.5636 18.171-2.4728 28.567-9.8179l4.6323 1.3369c-2.3602 8.8921-2.4385 11.355-9.2793 17.892-7.7709 1.939-9.0295 2.3701-16.575-0.0342l-7.345-5.9935v-3.3836zm-19.983-46.166c-5.3423-0.3378-7.1099 0.2157-10.68-4.0494 6.0669-7.1099 22.304-11.096 31.133-14.558 11.999-0.5671 22.111-1.7686 31.246 10.885-8.9962 4.8618-44.257 8.2011-51.699 7.7218zm-71.829-361.68c-2.0417-1.3807-2.923-2.8939-4.2698-4.7789l-4.2748-13.412c10.523 0.4259 20.125 5.9149 30.756 6.6738 31.98 2.2917 47.517-10.958 75.452-20.076-15.941 22.38-73.785 47.719-97.664 31.593zm29.116 271.94c6.7672-14.504 21.447-22.539 35.574-28.156 6.6007-1.1946 11.243-2.5121 17.329 1.2732 8.3538 5.2002 18.46 16.232 19.601 26.349 0.661 5.8517-0.7246 5.4452-4.2748 9.6173-9.5291 3.1729-19.758-4.123-29.208-5.979-7.1249-1.4005-7.3256-0.6512-13.05 3.3152-13.165 20.28-11.48 19.018-20.811 20.277l-6.9288-5.8859c-0.6561-7.3401-1.4639-13.887 1.7678-20.811zm-888-1165c-53.481-45.663-140.09-38.09-168.75 19.374-13.951 27.986-7.7025 52.683 1.6158 80.758-6.5958-9.6067-13.495-18.991-16.281-30.484-6.0964-25.154-2.1694-57.24 11.595-79.4 16.335-26.3 37.234-36.915 66.252-43.997 45.832-4.0872 82.286 7.8553 104.67 25.174 49.417 38.242 73.969 99.023 81.015 159.7-11.3-20.707-17.166-70.849-80.119-131.13zm-516.28 1312.8-35.084-7.1835c7.417-11.331 14.788-23.039 23.685-33.278 16.504-18.993 33.253-22.121 37.87-51.062 5.4162-32.612-4.1696-51.475-28.307-69.557 9.9276-98.908 34.589-194.87 79.635-283.95 113.5-224.44 343.66-380.82 417.93-466.15 37.445-43.032 63.108-87.611 85.628-139.63 0.286 0.3759 782.35 889.42 782.69 889.8 13.174 14.568 13.013 8.9502 10.846 24.248-1.4741 10.337-6.2632 35.222-0.6318 44.359 9.8325 15.953 29.488 17.643 46.195 20.536 1.1801 1.2047 3.834 1.9441 3.5403 3.604-1.4446 8.1676-8.3879 9.1421-5.8076 20.12 3.8635 16.458 11.7 20.38 24.64 28.371-5.6311 29.767 16.032 30.065 29.194 48.976 4.7203 6.7821 5.6505 25.321 9.994 34.144 10.415 21.169 52.82 17.698 75.546 11.316 34.028-9.5566 66.717-28.9 230.12-118.15l-47.938 49.5c-122.64 109.72-166.69 87.022-285.55 77.348-499.22-34.217-1377.3-86.374-1377.7-86.612-1.9016-1.2312-11.626-30.37-31.721-37.259-6.4881-2.2278-12.487-2.3748-18.686 0.715-15.504 7.722-20.606 24.709-26.13 39.795zm161.41 205.95-6.7476 4.2797c-10.964-6.1257-24.449-38.248-33.904-50.093-20.869-26.143-48.433-45.52-66.937-73.891 33.214 17.324 79.585 45.612 100.32 77.955 8.0991 12.633 10.851 27.191 7.2716 41.749zm618.8 140.85-23.391 23.9c4.6471-20.796 8.158-42.244 1.5817-63.03-20.815-65.833-121.37-43.496-179.67-41.876-86.269 2.3944-171.75-12.237-253.99-37.401-11.11-3.4031-23.896-4.9651-34.149-10.205 171.84 6.5232 103.41 6.2618 296.61 2.2477 49.52-0.475 101.34 0.5828 148.48 17.226 21.5 7.5852 67.424 24.672 69.949 47.855 2.3457 21.511-12.555 45.196-25.419 61.282zm97.933-61.399c-13.784-3.1534-28.4-5.9349-40.809-12.898l2.8597-4.7108c53.761-33.137 342.91-113.29 409 17.089-183.69 10.402-277.27 21.977-371.05 0.5191zm638.42-131.26c-5.3469 1.4788-16.262 5.9983-21.438 5.9347-6.5223-0.0782-28.146-12.775-35.554-15.694-43.12-16.987-98.922-22.02-144.48-14.847-35.04 5.5186-70.179 21.521-98.962 42.077-6.1405 4.3826-16.805 16.13-23.068 18.485-6.0057 2.25-72.772-19.664-177.27-5.4551-60.007 8.1656-125.08 27.407-169.61 46.91-7.2716 3.1827-24.194 12.834-31.579 13.148-1.6991 0.0687-2.6786-2.0859-4.025-3.119-109.74-84.259-279.73-50.255-391.41-45.471-65.645 2.8157-131.13-4.1034-196.1-12.839-5.9836-0.803-23.783-1.3075-28.205-3.8436-5.2112-2.9821-7.7704-30.664-39.32-59.309-19.014-17.27-40.476-29.546-62.099-43.081-24.963-15.626-44.329-34.697-74.674-32.455l-1.9895-2.6733c5.248-7.8723 4.9671-8.9612 13.736-12.242 20.408-3.0031 29.992-1.4608 307.64 15.459 1300.5 80.893 1216.3 77.787 1253.4 67.544 14.044-3.8832 41.847-17.633 55.171-14.45l4.2112 8.5692c-9.446 17.378-110.63 40.055-134.36 47.351zm158.85 1391-2.9426 0.0637c8.1235-11.297 30.697-21.32 43.179-28.42 77.329-43.999 94.236-52.514 142.38-108.75l3.501 1.4348c-0.6169 3.168-0.5974 3.6482-1.949 7.1343-29.517 76.055-115.6 100.83-184.17 128.54zm68.005 27.99c49.016-36.862 105.03-67.603 146.18-113.68l1.4495 3.7507c-28.101 60.234-83.661 89.098-147.62 109.93zm212.81-302.89-12.398 21.952c-6.4441 10.038-18.583 22.123-30.893 24.077-16.497 2.6201-32.107-1.552-45.167-11.805-26.491-20.792-32.112-59.235-36.216-90.368 15.945 27.718 35.935 80.495 69.993 75.536l14.739-23.72c13.206-7.3792 27.867-11.683 42.797-13.902l2.6443 2.8596-5.499 15.371zm5.9888-569.31c-82.309 16.185-187.15-34.049-232.43-21.222-37.445 10.606-59.607 43.82-76.599 76.065-30.852-74.132-27.193-65.656-29.126-69.249 30.448-28.273 55.94-52.987 78.435-88.37 60.474 38.542 126.14 64.974 199.05 63.985 63.617-0.8667 108.83-23.132 153.09-67.887-19.307 51.671-38.82 92.902-92.425 106.68zm129.99 1011.1c-26.38 108.97-58.598 192.12-35.06 380.19-31.339-77.23-35.819-176.17-21.56-257.69 23.963-136.97 84.303-254.75 62.682-497.5l1.9487 0.6121c42.807 119.83 21.051 254.38-8.0106 374.38zm305.71 193.02-1.2339 4.8967c-9.8911-190.97-46.944-383.45-118.87-561.27 16.967 24.023 29.571 50.577 42.65 76.829 74.904 150.32 95.598 313.56 77.455 479.54zm399.84-572.92c-27.652-32.21-58.319-63.578-91.499-90.104-59.734-47.752-133.25-91.156-204.22-120.11-25.817-10.532-50.921-14.946-77.538-27.26 13.297-0.8096 24.07 2.2307 39.154 5.4058 162.28 34.232 280.19 111.89 375 230.59 39.475 49.418 70.892 118.2 131.75 119.64 4.7107 0.1077 7.0759-0.4604 11.208 1.8264-90.06 50.202-133.33-61.111-183.86-119.98zm-41.744-228.77c63.995 42.88 159.65 121.16 241.72 133.51 10.18 1.5327 38.253-1.616 44.54 3.1975l-10.288 5.543c-28.052 9.3223-62.264 24.589-113.15 3.4277-65.213-27.125-134.34-101.23-279.25-172.95-172.05-85.163-206.11-62.671-226.84-74.478 116.82-7.6094 247.08 37.288 343.26 101.74zm-96.347 288.54c82.516 114.39 89.07 222.03 153.62 306.31 26.907 35.129 61.968 61.35 98.878 85.006-153-34.502-172.45-183.44-258.33-333.34-80.167-139.95-250.05-252.21-323.69-271.98 42.254-8.49 229.05 74.695 329.53 214zm-396.01-558.26c-0.5583 62.388 35.129 106.87 76.755 149.54-49.584-19.738-88.566-38.424-113-89.007-38.076-78.807-5.259-185.86 21.697-263.14l52.972 26.736c-22.436 51.067-37.925 120.03-38.424 175.87zm-185.96-352.04-53.692-46.748c-4.1477-3.9419-18.637-20.674-22.794-22.011-8.6038-2.7716-33.175 3.6383-43.194 4.2748-139.63 8.8145-237.68-82.544-208.72-114.9 6.0867-6.8013 13.529-7.3154 22.108-8.6132 24.399-1.1432 66.181-2.172 75.81 20.037-19.975 18.977-69.975 2.3029-85.153 12.242 5.2505 22.811 92.068 60.413 179.88 62.114 18.532 0.3535 54.128-7.272 68.553 3.3689 82.627 57.135 88.208 86.006 218.05 154.43 96.312 50.769 200.25 84.262 310.24 77.186 45.235-2.9087 91.323-9.9155 122.58-45.338 2.0029-3.8879 1.1555-4.0493 5.5381-5.6948-1.082 11.786-5.1121 22.99-10.582 33.459-28.5 54.53-92.624 60.194-155.64 59.866-159.62-0.8177-303.02-85.045-422.99-183.67zm449.88 299c-7.4087-20.071-22.931-63.25-14.122-82.577 10.675 1.1116 14.117 21.222 18.299 30.795 24.885 57.012 68.925 108.89 117.97 146.6 19.66 15.111 41.71 26.501 61.968 40.642 15.748 10.988 30.428 24.473 45.314 36.646-95.26-13.158-194.47-77.378-229.42-172.1zm410.32 185.65c-11.742 30.9-81.792 17.044-116.1 1.7627-101.13-45.03-151-167.69-188.3-263.9-4.9116-12.139-7.0466-24.596-9.5146-37.386 10.149 9.9092 9.0549 11.51 51.302 94.501 42.988 77.54 125.61 194.64 213.4 206.81 10.405 1.4441 22.162 1.748 30.751-4.3728-3.5698-17.016-54.441-57.908-68.328-72.951-21.611-23.417-47.339-59.955-53.05-93.081 7.3042 7.9985 21.34 38.532 48.683 64.68 27.837 26.623 68.318 44.809 87.44 79.39 3.7215 6.7379 6.5713 17.07 3.7264 24.547zm228.92-52.174-2.439 1.8362c-6.9431 3.6382-18.328 5.259-26.202 6.8601-55.989 11.391-121.54-1.8064-152.54-16.095-71.403-32.911-159.22-152.4-186.76-214.93 65.706 72.061 92.432 106.48 170.49 164.37 31.367 23.26 53.325 44.641 136.38 44.432l-12.81-9.1077c-25.765-19.724-52.26-59.321-55.151-96.45 5.3523 5.2883 9.3232 15.087 13.588 21.57 35.226 53.57 76.374 62.754 115.44 97.517zm189.44-88.081c-10.875 3.8782-27.107 3.3542-38.903 4.1521-42.21 2.8696-85.139 5.6118-126.96-2.3403-58.537-11.116-75.772-27.507-100.79-46.386-47.38-35.76-93.36-82.152-127.19-131.14 2.4189-5.8906 8.1821-7.7515 13.524-11.018 2.3555-0.1714 4.9409-1.5425 7.0708-0.5142 3.1113 1.501 107.68 155.44 239.41 167.88 22.588 2.135 44.736-0.7344 67.045-4.0103-37.087-28.621-64.234-55.283-84.918-97.943 20.395 19.64 37.558 36.294 61.943 51.165 4.7126 2.7178 3.1367 3.52 12.849 0.4995 25.947 26.07 46.288 48.467 76.916 69.655zm165.14-130.28 42.258 49.941c-11.429-1.9734-22.015-8.8237-31.505-15.17-45.869-30.652-62.053-67.235-113.96-110.75 16.149 6.0913 34.918 10.239 49.818 19.014 21.864 12.868 38.106 37.327 53.393 56.968zm248.46-86.186c-24.826-13.47-45.495-36.137-68.436-52.859-22.03-16.061-48.022-26.462-72.612-37.993 25.604 5.3716 83.15 11.982 100.21 32.969 14.68 18.049 26.349 39.276 40.833 57.883zm214.02-137.37c-66.445-76.522-90.281-65.049-134.66-82.631 18.793-3.5306 46.919 3.9662 66.08 6.057 5.9839 0.6561 11.213 0.9159 16.712 3.6481 29.263 14.524 41.107 44.452 51.866 72.926zm226.57-115.87c-71.928 38.997-151.26 53.746-232.39 43.429l-7.0464-2.4875c55.876-12.398 101.94 9.019 279.41-68.906l5.416-0.3917c-13.56 11.938-25.937 17.812-45.392 28.356zm136.2-97.507c-116.24 78.364-268.35 104.3-399.52 94.124-83.807-6.5002-168.46-27.03-444.65-88.027-147.18-34.462-144.15-34.443-159.19-35.05-25.84-1.0475-37.794 28.49-53.54 54.426-4.2646 7.017-9.6707 13.696-11.419 21.761 49.28 21.276 102.71 36.524 153.3 54.799 121.56 43.908 244.71 91.078 371.22 118.81 27.69 6.0669 213.52 31.672 219.4 36.084-222.63 28.747-412.02-56.947-622.13-138.29-115.11-50.37-124.66-55.827-136.62-54.652-33.811 3.3324-76.083 69.026-95.402 96.792 270.39 161.48 584 206.78 635.88 221.96-188.7 14.264-367.63-46.91-532.28-134.47-81.067-43.116-86.98-59.869-116.82-69.401-25.315 29.635-42.126 62.834-68.347 91.582 49.324 47.702 130.91 128.66 343.7 197.24 38.395 12.378 81.862 19.704 118.71 35.178-110.37-4.4561-228.94-35.701-323.06-94.393-55.714-34.737-107.84-81.603-154.18-128.02-79.252 75.511-186.13 130.06-297.8 127.41-38.468-0.9106-82.494-1.283-119.36-13 66.214-83.153 37.545-120.47 40.774-149.04 9.157 5.4451 16.262 36.882 22.251 48.134 5.2148 9.808 13.309 18.015 21.271 25.644 43.845 42.018 98.98 38.911 154.78 13.133-57.267-25.149-110.37-48.496-160.35-87.126l117.36 38.688c52.326 17.186 80.998 33.262 133 10.494l1.283-3.3052c-11.336-9.7491-35.53-12.722-50.112-17.672-29.909-10.156-79.512-31.701-100.16-56.077 10.23 0.2743 22.226 6.8455 31.848 10.548 91.729 35.257 140.6 58.766 210.29-11.517-55.768-4.9993-114.66-21.32-164.45-46.748 55.078 3.3248 114.39 29.351 169.53 17.295 26.555-5.8074 46.886-29.458 61.331-51.116-56.679 6.3461-104.97-2.1986-160.72-10.018l1.2192-2.7716c17.251-9.0345 34.321-5.832 53.07-6.1455 117.36-1.9634 138.12-32.424 166.67-61.791-43.943 4.3875-93.59 4.2356-137.57-0.6171 14.562-11.341 36.686-11.62 54.407-13.921 71.7-9.3079 111.58-12.473 147.28-71.486-80.507 2.7815-108.16 15.878-134.03 20.566 19.063-20.542 73.176-38.664 101.13-43.282 30.326-5.011 53.516 2.3671 130.91-49.579-53.149-0.627-105.57 1.1604-157.84 12.065-217.59 45.383-290.74 200.58-453.26 263.69-20.693 8.0354-42.483 12.247-64.141 16.805-4.7842-16.12-10.18-30.967-17.354-46.18 243.38-40.171 279.17-252.8 566.83-292.71 147.26-20.435 410.24 10.9 566.54 40.437 145.18 27.433 317.25 70.188 494.49 30.536 18.667-4.1763 33.597-10.616 53.735-14.876-32.786 22.711-73.2 31.788-114.87 41.573-94.697 22.236-194.51 21.575-290.52 8.5448-445.77-77.392-457.37-90.734-605.41-2.2329l261.98 45.514c200.37 38.605 405.03 89.335 608.53 41.95 127.66-29.716 143.79-66.295 172.17-74.322-9.9691 13.089-26.266 22.941-39.795 32.063z"/> <path d="m3163.9 837.5c-37.783 26.922-67.545 64.053-95.46 100.71-166.93 219.2-166.17 381.31-263.99 540.06-12.756 20.698-28.322 40.897-37.978 63.245 10.229 9.8228 74.106 69.743 84.585 71.805 12.245 2.4053 35.992 0.7994 52.879 0.0392l-49.329-35.148c48.095 9.5239 107.62 14.142 150.67-15.052 8.78-5.9594 15.768-14.269 22.755-22.158-47.419-2.3895-93.257 3.2856-140.77-4.6714l-0.416-2.8203c105.59-2.1003 171.47-8.9713 221.13-101.13-71.77 20.845-149.17 34.046-224.09 30.687 79.125-12.638 196.24-23.519 248.01-93.463 13.006-17.569 19.46-37.533 24.821-58.447-117.15 54.194-177.99 55.172-229.47 62.633l-1.2241-0.47c38.54-13.09 180.38-29.135 224.2-115.4 13.294-26.167 11.909-49.775 8.3733-77.906-43.251 65.045-163.93 95.389-179.09 94.207 54.218-27.544 131.21-48.14 163.17-147.47 7.1885-22.344 8.3589-43.497 9.157-66.766-30.114 48.507-67.265 86.656-113.61 120.25-10.58 7.67-24.536 18.968-36.48 21.653 3.8975-6.8063 11.282-11.747 17.099-16.972l32.068-30.668c39.731-40.657 75.57-107.19 89.369-162.64 3.5598-14.303 4.8086-29.63 6.679-44.246-9.5337 9.021-21.256 49.92-60.449 92.096-9.3523 10.066-11.378 13.003-21.007 15.801 47.669-71.628 65.626-102.31 98.393-217.76z"/> <path d="m348.74 1584.3c-14.27 6.1307-30.739 12.281-36.519 28.112-3.5354 9.6855-3.415 19.827 1.0821 29.169 11.319 23.509 40.96 32.47 63.966 39.227 28.997 8.5201 62.006 15.4 92.394 14.146 9.3233-2.894 16.491-3.3933 21.397-12.956 3.9955-7.7906 6.8895-17.329 4.1327-25.727-14.037-7.3521 3.317 2.2572-95.841-38.326-8.9966-3.4619-29.824-8.6766-34.431-16.761 3.8067-4.7057 6.8618-7.9229 8.726-13.804-8.4106-5.1366-15.447-3.7166-24.908-3.0801z"/> <path d="m456.53 1749.5c14.447-6.5447 15.257-12.303 21.321-29.116-43.339-1.8619-86.201-17.584-122.88-38.982-7.3318-4.2748-13.979-10.312-22.776-10.445-8.9546 3.4814-13.691 7.5703-17.384 16.678-7.9163 19.52-1.5407 38.333 29.091 48.07 32.245 10.249 78.818 18.417 112.62 13.794z"/> <path d="m416.2 1809.3c22.278-1.6744 44.601-4.691 65.98-11.414 6.5665-4.0642 13.818-8.0305 16.663-15.689 2.4289-6.5421 2.0078-12.673-0.6904-18.754-17.79 2.796-32.436 7.6536-50.829 6.5321-55.711-3.4012-92.892-31.609-110.89-27.999-7.606 8.2509-13.321 16.272-13.333 27.98-0.0107 10.611 3.6852 19.141 11.464 26.31 19.791 18.245 56.772 14.906 81.639 13.035z"/> <path d="m1648.9 2398.8c5.8173 1.3809 8.4518 3.0605 13.96-0.1077 18.348-10.552 28.88-55.352 37.454-74.194 17.793-39.089 67.092-108.69 124.62-150.45 3.8636-2.8057 2.2477-1.4053 5.4989-4.8916l-37.562-34.463c-70.762 49.255-120.9 102.54-162.3 178.94-12.139 22.402-24.292 45.334-31.769 69.778 31.246 20.432 39.151-10.127 53.75-20.625-1.2916 16.084-6.9863 27.448-3.6528 36.02z"/> <path d="m1823.5 2447-101.96-9.2104c-42.428 110.04-57.961 236.85-112.85 352.62-19.88 41.93-42.312 80.721-54.999 125.72l43.409-32.568c11.154-9.2502 24.165-21.766 37.538-27.646-21.859 22.373-43.83 48.496-70.208 65.439-9.7933 6.2925-18.666 12.349-25.83 21.736-2.4678 7.0759-6.5027 14.333-4.7937 21.663 15.332-3.9224 30.922-12.124 45.28-18.906 65.576-30.966 119.38-78.058 156.62-140.3 50.37-84.18 50.636-243.65 87.797-358.55z"/> <path d="m2808 4305.4c-5.6216-25.977-24.195-48.447-46.381-62.344-57.668-36.123-134.58-14.7-186.45-59.019-46.91-40.084-85.359-110.87-102.96-169.78-9.5876-32.078-15.665-64.22-28.729-95.235-41.81-99.27-168.49-230.33-293.85-267.35 91.675-18.916 181.27-61.478 250.91-124.76-13.089-15.023-27.568-36.706-49.226-38.429-16.869-1.3462-33.503 4.9849-49.936 7.8445-21.477 3.7412-51.126-2.1545-66.281-18.759-47.378-51.92 4.2297-164.95 3.1387-180.93-0.4456-6.5615-8.3684-20.816-11.125-27.73-14.788-37.097-26.452-78.685-53.021-109.32-23.054-26.589-51.108-44.222-86.759-36.725-20.448 16.6-42.831 33.141-61.996 50.984-175.12 163.08-197.9 346.05-209.5 373.38-3.8489 9.0684-12.031 17.638-17.942 25.58-46.115 61.98-37.842 163.25 13.745 224.72 37.33 44.477 79.193 42.558 90.353 62.285 114.69 202.66 271.39 290.82 446.24 405.01 29.477 19.814 108.39 76.43 124.17 97.013 9.6218 12.54 7.4749 40.924 32.25 113.67 43.202 126.94 112.88 221.43 101.75 306.34-3.6772 28.024-22.192 64.098-0.2058 87.665 28.326 7.1465 59.044-17.755 64.866-42.606 4.887-20.864 5.0486-38.835 15.664-58.319 25.179-38.918 73.186-53.05 61.106-109.09-4.3186-20.032-15.816-37.772-23.964-56.351-18.965-43.208-9.8669-95.46 13.906-134.7 31.672-52.282 85.153-94.104 70.228-163.04zm-232.9-43.801c1.6013 40.577 4.9197 70.944-17.868 94.873-4.1868 3.4521-1.729 2.1445-7.5315 3.5894 28.912-101.36-57.621-157.3-122.16-257.19-53.31-82.499-95.338-171.74-155.81-249.53-65.68-84.483-127.15-119.19-133.17-118.94-2.1597 0.0881-2.8745 3.2317-4.324 4.833-37.552 39.575-68.828 77.384-137.41 90.804l18.798-9.2449c51.219-26.883 88.135-79.928 105.28-134.02 92.837 22.142 230.61 122.78 285.96 243.63 12.188 26.598 19.42 55.116 28 82.998 28.205 91.676 88.326 198.93 186.87 228.54 35.451 10.651 69.849 4.0225 132.9 37.4-69.374 13.648-87.699 17.949-179.53-17.746z"/> <path d="m3954.7 4648.2c27.999-43.492 61.8-65.831 51.66-124.31-16.879-97.388-120.78-104.05-148.15-121.12-101.22-63.125-93.343-349.33-234.3-531.28-35.824-46.239-80.315-79.478-129.46-110.29-109.68-68.773-151.38-62.284-211.01-320.59-5.2249-22.647-8.0061-49.06-16.228-70.63-5.1936-13.613-32.146-18.626-46.665-17.021-25.144 9.6025-29.356 27.245-43.267 47.454-25.267 36.686-68.965 25.409-103.11 10.17-31.094-13.872-68.029-35.79-103.05-22.681-73.045 27.332-49.493 138.89-165.21 167.6 23.244 79.189 89.496 157.47 152.83 208.67 22.713 18.362 45.337 30.363 47.752 33.934 7.438 10.998 11.948 30.433 17.608 43.1 29.625 66.334 102.94 128.53 183.42 127.92 13.176 28.67 35.877 57.43 54.176 83.287 98.556 139.25 213.75 219.68 263.54 270.55 141.08 144.13 212.51 371.89 170.33 492.34-11.409 32.578-36.299 67.579-67.701 83.385-15.915 8.021-70.409 11.35-50.064 48.722 7.7417 14.2 18.024 19.978 33.552 23.602 23.166 5.3862 43.82-0.9302 64.925-10.087 4.1521-16.159 8.2554-32.318 18.333-45.931l3.7019-3.2314c-3.2043 15.817-8.3206 40.384 0.2056 54.206 9.6353 6.522 26.837 5.313 37.572 0.4409 9.4426-31.341 8.9648-31.592 24.748-65.616-0.8372 17.09-8.1187 50.289-1.5276 64.734 9.3132 4.7983 20.704 4.3579 30.57 1.7627 6.2871-12.291 14.494-58.466 23.7-63.314 5.7881 19.097 0.7883 38.732 1.0435 58.27 15.042-2.6445 28.714-4.7012 41.215-14.201 5.1606-12.339 1.6304-26.05 5.489-38.537 8.0793-26.267 18.112-24.578 27.73-87.023 0.9692 15.723 3.0796 33.092 0.0144 48.653-2.8892 14.641-10.048 28.478-12.692 43.022-1.6794 9.2544 0.4114 20.909 1.2095 30.262 28.528-20.811 54.318-50.725 59.974-86.651 7.7575-49.259-30.622-135.39 17.123-209.57zm-687.85-812.48-20.542 15.796c29.023-62.79 43.326-130.5 27.705-199.2-10.558-46.397-31.166-76.743-21.609-164.7 7.9277 11.806 11.693 34.84 16.242 48.908 24.826 76.765 45.651 117.55 44.922 181-0.5337 45.99-13.256 85.609-46.719 118.2zm655.56 748.21-9.6516 15.224c-5.3228-27.454 12.979-94.188-33.537-127.68-14.488-10.43-32.304-13.068-49.726-13.678-25.54-0.894-34.667-4.9507-30.079 15.092 7.2942 31.864 46.8 33.884 53.468 60.072 0.0789 0.3096 0.7222 2.3467 0.5107 2.5327-7.3005 6.4297-11.864 9.0005-21.814 8.2021-53.505-4.3022-57.222-68.738-70.154-110.09l-33.929-107.9c-54.812-202.14-90.512-357.82-285.24-450.08-9.8865-4.6868-19.197-10.272-28.372-11.135-14.969 22.106-28.352 26.064-53.456 36.22 15.772-15.371 35.32-31.158 35.854-55.034 0.7166-32.391-22.986-45.091-27.97-53.53-0.2175-0.3665-10.403-82.445-10.356-82.078 53.802 58.715 106.39 66.876 172.97 121.77 123.64 101.93 164.61 259.7 205.82 407.64 17.653 63.382 36.5 156.12 98.046 191.58 32.303 18.612 99.089 17.711 110.92 59.509 9.0597 32.01-6.8939 66.418-23.307 93.355z"/> </svg>