<?xml version='1.0' encoding='utf-8'?>
<svg xmlns="http://www.w3.org/2000/svg" enable-background="new 0 0 3962.7664 5000" version="1.1" viewBox="0 0 3962.8 5e3"> <g transform="translate(810.87 -34.215)"> <path d="m-77.371 5012.1c-99.622-35.329-95.697-36.755-138.45-40.066-46.592-3.6094-70.539-24.344-155.97-61.673-104.84-45.814-117.46-156.83-120.98-270.69-1.2362-39.937-3.5465-73.912-5.1347-75.5-7.652-7.6523-18.554 4.3521-18.554 20.43 0 25.81-12.623 32.168-17.03 99.763l-3.1443 48.223-49.22 47.349c-32.93-7.0229-45.378-11.397-80.84-4.8628-53.287 9.8184-60.607 8.3472-88.56-17.8-33.271-31.121-17.6-19.856-40.391-56.897-12.544-20.387-15.228-30.198-15.228-55.666 0-17.004 3.3328-43.711 7.4059-59.35 7.7871-29.897 41.135-94.574 60.892-118.1 18.724-22.294 56.548-97.218 68.265-135.23 12.978-42.099 25.674-64.363 53.091-93.103 17.823-18.683 23.434-21.574 41.88-21.574 32.767 0 90.741 25.166 97.144 25.345 0.698 0.0205 1.269 4.4224 1.269 9.7842 0 16.235-27.283 18.854-56.051 5.3794-28.601-13.396-53.524-11.046-69.194 6.5229-12.171 13.646-27.039 52.352-27.039 70.394 0 18.402-57.149 136.36-73.408 151.52-20.119 18.757-31.24 39.558-40.294 75.37-11.866 46.935-11.043 54.6 5.8345 54.358 10.599-0.1519 14.342 2.4917 15.55 10.981 0.8749 6.1494 6.0143 12.585 11.421 14.301 18.667 5.9248 0.7838 32.893 19.983 32.893 8.4067 0 10.152 3.3843 10.152 19.683 0 10.967 3.2469 22.377 7.3322 25.768 6.07 5.0381 9.5487 1.7114 20.208-19.323 15.859-31.296 19.645-33.781 35.573-23.344 10.508 6.8848 12.562 12.118 12.182 31.032-0.8334 41.503 24.165 53.896 36.087-34.664 6.1595-45.756 22.008-97.961 41.719-137.42 16.549-33.129 66.392-235.09 72.485-293.71 3.9604-38.102 9.8756-41.254 34.719-71.394l31.014 3.5605c72.134 8.2803 70.836 45.631 117 14.265 20.602-14 30.297-15.3 69.285-9.2944 21.122 3.2539 24.9 2.1831 40.609-11.504 9.5261-8.3008 24.894-18.972 34.151-23.713 16.095-8.2441 18.256-8.147 49.437 2.2295 17.933 5.9678 33.908 12.957 35.499 15.532 5.5836 9.0342 17.274 4.4673 49.739-19.431 38.185-28.109 132.77-81.2 165.75-93.041 27.076-9.7197 33.667-12.286 73.604-28.657 85.525-35.06 129.93-31.99 112.18-51.605-13.468-14.883-32.105-72.49-37.948-117.3-18.423-141.29 47.63-615.53 65.187-713.19 13.835-76.96 15.808-98.76 16.071-177.57 0.5644-168.92 18.104-38.783 11.395-195.73-3.3913-79.322 2.548-146.47 14.102-159.44 2.3624-2.6523 4.3201-11.789 4.3502-20.304 0.0645-18.204 12.432-61.163 21.905-76.089 9.7554-15.37 24.187-60.377 44.783-97.371 7.9612-14.299 14.475-29.316 14.475-33.37 0-13.052-27.951-37.913-49.058-91.646-15.105-38.453-25.153-43.62-29.616-15.228-9.6283 61.258-34.031 185.64-41.091 209.44-16.618 56.032-58.792 57.128-60.487 101.47-0.4802 12.563-3.8601 66.243-7.511 119.29-10.402 151.14-3.6559 260.54-69.046 381.49-12.307 22.765-22.377 44.757-22.377 48.871 0 12.374-15.581 21.414-36.906 21.414h-20.107c-29.513 107.58-27.308 105.8-50.481 122.47-42.277 30.407-43.275 32.018-71.954 116.11-15.234 44.67-36.484 102.31-47.221 128.09-16.972 40.746-21.129 46.882-31.813 46.954-34.735 0.2341-33.416-63.863-63.435 88.915-15.953 81.188-34.888 105.16-74.136 93.852-22.374-6.4458-26.376-1.5059-38.343 47.326-10.001 40.81-19.926 64.832-63.671 154.1-26.852 54.798-32.562 62.974-50.522 72.334-11.136 5.8047-22.175 10.554-24.53 10.554-4.8244 0-25.154-19.52-39.564-32.995l7.6535-68.528c18.365-164.43-3.0198-661.11-9.7609-718.27-16.033-135.95-0.7051-671.6 25.42-888.32 10.362-85.959 10.364-86.347 0.3811-100.07-9.4285-12.959-9.7321-17.819-5.1325-82.18 5.5424-77.552 13.044-128.24 23.362-157.85 15.233-43.721 1.4619-128.33 85.825-428.93 20.459-72.9 18.706-82.038 29.662-106.98 10.499-23.904 25.924-84.566 37.33-126.13 10.869-39.607 18.696-45.58 44.286-123.27 27.527-83.566 31.872-75.031 49.047-123.07 19.265-53.882 44.363-119.68 52.923-152.53 12.146-46.613 34.571-100.41 61.996-187.82 16.841-53.676 41.896-118.12 53.287-137.06 5.0377-8.3755 9.1679-20.478 9.1785-26.895 0.0286-17.947 20.323-48.193 20.323-63.035 0-19.122 63.844-128.05 100.52-171.49 49.097-58.163 98.657-141.2 194.08-189.09 37.559-18.848 77.559-33.619 116.84-8.8915 22.587 14.219 38.547 37.486 47.394 62.667 17.414 49.566 15.241 109.78 14.379 161.65-1.0357 62.312-3.3764 88.487-8.8519 98.984-4.094 7.8492-7.4578 20.923-7.4751 29.053-0.0383 20.54-11.681 52.044-19.407 91.816-8.1075 41.738-27.616 108.56-23.983 118.03 4.5733 11.918-12.479 26.656-12.479 75.35 0 37.578-13.878 84.946-21.795 115.01 13.804 11.862 34.734 26.826 48.164 57.088 20.584 46.384 17.7 121.6 30.649 157.36 6.1462 16.972 28.283 43.147 36.49 43.147 7.336 0 69.963-30.477 131.44-56.436 40.193-16.973 79.624-45.482 79.624-57.57 0-9.4738-38.954-14.754-51.378-24.423-12.758-9.9294-34.916-44.7-34.916-54.791 0-5.3931-8.6453-13.843-21.348-20.865-45.053-24.906-63.746-75.175-47.346-127.32 7.9708-25.341 8.0389-29.58 0.817-50.852-19.849-58.463 16.131-136.65 77.483-168.37 7.9996-4.1368 16.202-11.603 18.226-16.592 5.7636-14.201 17.853-73.672 17.853-87.824 0-38.509 63.32-123.73 106-142.66 26.589-11.796 61.021-29.124 88.158-44.366 25.159-14.131 92.208-26.12 145.23-25.968 60.473 0.1727 140.64 21.29 181.38 47.78 36.04 23.432 86.072 70.65 97.151 91.688 10.056 19.094 21.527 61.541 21.607 79.949 0.0354 7.6776 2.1786 13.959 4.7679 13.959 6.1027 0 25.749-24.962 25.749-32.716 0-3.2813 7.3782-13.512 16.396-22.736 15.951-16.315 117.54-141.89 131.17-168.59 35.932-70.432 150.86-186.65 227.29-229.83 31.368-17.724 70.042-28.222 102.38-6.0438 41.584 28.515 31.539 81.385 29.475 124.79-2.5197 52.98-13.286 104.05-35.558 152.37-23.004 49.912-62.18 118.21-72.911 127.12-4.0613 3.3706-7.3843 9.862-7.3843 14.425 0 12.454-28.631 28.177-48.914 67.431-19 36.772-56.013 127.15-60.427 147.56-5.1666 23.884-37.751 119.7-37.818 132.01-0.0636 11.594-48.34 133.34-61.918 156.15-5.8169 9.7715-15.047 25.638-20.511 35.26-17.015 29.959-93.501 117.02-102.81 117.02-9.2673 0-22.914 17.201-18.856 23.767 1.9608 3.1726 13.263 9.6486 25.115 14.391 39.704 15.887 105.76 99.2 136.81 172.55 16.671 39.383 20.902 45.307 36.821 51.558 37.369 14.674 77.082 34.518 82.751 41.348 15.647 18.854 57.191 20.294 119.93 31.572 26.378 4.7417 33.216 4.5603 36.724-0.9739 2.3707-3.7404 4.2952-27.359 4.2766-52.486-0.0355-46.047-12.048-88.832-24.943-88.832-9.1475 0-5.8331-12.993 6.0969-23.902 29.932-27.368 38.113-28.807 176.26-30.998 71.118-1.1279 134.22-3.9194 140.23-6.2034 7.1702-2.7262 12.077-10.309 14.284-22.073 2.2522-12.006 9.5815-23.107 22.207-33.636 16.495-13.756 21.472-15.336 39.906-12.669 19.163 2.7726 22.029 1.6885 31.795-12.027 15.499-21.766 33.965-23.982 75.028-9.002 74.226 27.078 91.952 38.536 121.27 78.386 10.767 14.636 54.49 11.077 69.64 11.698 49.561 2.0321 99.707 1.7212 149.26-0.2686 64.076-2.5729 128.22-2.5532 192.33-2.166 32.083 0.1937 64.169 0.649 96.253 0.6345 18.956-0.0085 52.87-4.2024 65.008 15.438 9.3792 15.176-7.1741 16.286-276.25 18.531-149.21 1.2448-281.57 3.7417-294.14 5.5491-42.781 6.1544-124.2 47.75-138.35 33.598-3.1973-3.1975-16.848-5.8136-30.334-5.8136-27.981 0-27.345-3.2169-56.83-36.799l-33.03 3.0844c-47.129 4.401-308.97 5.5923-321.4 10.786-11.634 4.8597-11.212 16.672 1.6663 46.62 8.8914 20.677 10.266 32.51 8.7438 75.294-1.6572 46.589-3.3944 54.03-21.135 90.528-23.241 47.813-63.8 88.916-131.06 132.82-47.677 31.12-91.603 84.51-113.66 138.14-14.375 34.958-14.771 42.109-4.2894 77.406 11.659 39.26 43.261 71.44 73.394 74.736 30.165 3.2998 50.096-5.0056 57.204-23.837 12.714-33.684 31.477-6.2681 16.696 32.435-9.4792 24.821-16.948 25.9-59.774 46.294 4.3298 1344.5-9.0977 1267.3 55.761 1497.5 35.193 124.86 66.962 160.77 66.962 175.07 0 5.3857 30.271 60.415 67.045 121.88 83.012 138.75 246.57 311.61 364.87 385.63 15.111 9.4546 42.391 26.905 60.624 38.778 70.978 46.224 251.35 122.33 353.16 149.02 80.873 21.197 269.1 45.581 353.54 45.799 25.707 0.0669 27.894 3.1865 20.799 29.683-2.7817 10.39-5.312 11.453-20.481 8.6074-21.726-4.0757-87.761 11.391-91.625 21.46-1.5464 4.0298 0.3767 9.5542 4.2732 12.277 4.3594 3.0459 5.0378 5.8096 1.7632 7.1836-24.313 10.205-74.755 71.206-153.18 73.901-29.572 1.0166-39.781-0.9937-62.77-12.357-42.904-21.208-60.45-33.292-60.45-41.632 0-8.6099 17.93-10.562 22.916-2.4941 7.7334 12.513 70.292 35.414 96.74 35.414 28.555 0 82.088-19.204 101.5-36.41 16.029-14.21 32.703-46.665 27.937-54.376-3.9722-6.4272-76.717-18.005-152.64-24.295-18.147-1.5034-35.165-4.7778-37.817-7.2769-9.1509-8.6221-58.629 0.6675-58.629-11.556 0-10.14-38.906-13.875-65.08-27.415-16.196-8.3794-17.14-8.335-24.111 1.1328-10.82 14.694-9.2676 17.182 14.318 22.948 34.025 8.3188 47.522 15.421 68.588 15.421 24.034 0 10.069 7.98 45.742 12.824 36.543 4.9619 41.76 7.2905 41.76 18.639 0 9.3735-2.0002 10.088-19.035 6.7944-49.792-9.625-46.954-9.7769-46.954 2.5117 0 11.121-1.092 11.373-36.438 8.4097-49.748-4.1704-144.49-25.446-199.6-44.82-39.002-13.712-87.966-14.571-92.283-1.6187-2.3787 7.1362 167.77 46.938 221.33 51.775 26.756 2.416 43.536 6.2354 44.839 10.206 4.4038 13.421-105.22 3.4741-168.81-15.318-36.216-10.702-136.96-16.85-131.5-8.0259 3.4714 5.6172 8.6006 0.2373 59.772 16.941 21.285 6.9482 65.168 15.896 97.52 19.884 32.351 3.9883 60.19 8.6206 61.863 10.294 1.6736 1.6733 0.3452 5.7402-2.9519 9.0376-9.3521 9.3521-99.884-3.8628-168.27-24.562-32.006-9.6875-59.032-18.454-60.058-19.48-1.0264-1.0264-9.1042 1.1577-17.951 4.8545-8.8464 3.6963-22.366 5.5195-30.043 4.0522-18.986-3.6294-17.603 1.9536 2.5396 10.25 20.86 8.5923 112.43 31.46 157.11 39.238 18.708 3.2563 38.125 8.9458 43.147 12.644 38.14 28.083-112.08-0.8008-231.98-44.604-51.976-18.989-120.64-31.307-157.36-28.23l-22.842 1.9146 14.898 6.4209c21.522 9.2754 94.238 10.564 94.238 16.863 0 2.3784-5.7104 4.3237-12.69 4.3237-25.408 0-11.5 8.7622 43.335 27.303 61.269 20.716 120.53 33.61 154.46 33.61 12.023 0 24.306 3.0508 27.428 6.812 7.0474 8.4917 2.4312 13.493-12.456 13.493-29.544 0-37.896 19.861-13.528 32.173 42.144 21.294 81.501 29.448 131.76 27.296 73.103-3.1294 116.21-14.843 140.13-38.078 20.57-19.981 20.837-21.692 12.742-81.791-0.9021-6.6973 1.147-13.146 4.5532-14.332 9.8223-3.418 26.762 29.445 26.782 51.96 0.0203 19.111 1.3582 20.958 21.592 29.749 39.133 17.003 61.688 2.1938 123.15 10.817 22.932 3.2168 32.186 0.9736 93.908-22.765 90.841-34.937 109.93-50.868 122.11-50.868 5.0671 0 10.625-2.2842 12.35-5.0762 3.3989-5.4995 23.48-12.912-7.614 15.228-32.005 28.964-29.405 15.272-43.166 30.478-11.633 12.854-34.235 15.748-91.638 33.218-58.748 17.879-53.835 9.5918-75.855 20.33-14.308 6.9775-12.62 7.2744 27.919 4.9126 55.426-3.23 124.06-27.961 187.82-67.68 40.466-25.209 47.132-0.832 16.423 10.044-29.968 10.614-122.96 62.009-122.99 67.974-0.0254 4.7373-15.272 12.685-48.25 25.148-5.5837 2.1099-18.486 3.373-28.671 2.8066-17.865-0.9932-29.724 6.0757-20.135 12.002 5.1111 3.1587 99.179-14.615 120.74-22.814 8.999-3.4214 15.16-3.4331 18.558-0.0356 15.303 15.303-166.17 64.023-252.93 45.918-58.234-12.152-68.393-11.671-119.29 5.6465-45.858 15.604-51.891 16.402-123.01 16.29-52.696-0.0835-77.076-2.0156-82.528-6.5405-6.5068-5.3999-11.735-2.6826-32.86 17.077-36.738 34.364-26.64 16.98-45.402 33.253-6.1858 5.3647-27.665 14.859-47.731 21.1-42.217 13.128-65.69 11.762-198.99 13.665-73.857 40.256-93.842 53.522-191.91 53.141-99.094-0.3848-139.98-9.7334-189.28-43.285-22.621-15.393-26.414-16.419-42.598-11.525-9.7715 2.9551-28.897 12.036-42.501 20.18-24.251 14.518-26.036 14.789-91.37 13.886-79.538-1.0991-95.125-6.165-149.12-16.528-33.511-6.4312-74.148-26.72-87.49-43.682-20.805-26.45-35.175 1.9609-108.34 20.952-71.3 18.507-51.122 62.602-152.65 57.748-42.304-2.0225-48.028-1.104-73.648 11.819-47.868 24.145-131.76 31.261-164.16 13.924-22.508-12.046-44.314 15.419-141.8 26.97-93.15 11.036-139.5-10.704-199.57-47.896-28.118 13.472-60.115 28.015-101.52 53.4-75.191 46.097-192.3 81.493-267.28 117.21-37.267 17.75-40.996 18.487-91.37 18.049-48.263-0.4214-57.453-2.2075-113.43-22.059zm346.98-94.45c57.392-31.302 73.479-21.438 173.33-96.82 25.309-19.108 80.398-43.785 128.66-78.485 19.113-13.743 39.671-28.297 45.685-32.342 36.612-24.627 115-97.208 115-106.48 0-8.3765-12.53-6.4795-25.965 3.9307-62.999 48.814-129.8 85.596-217.69 119.87-126.53 49.339-103.42 60.664-215.35 76.235-86.697 12.062-120.84 10.433-173.52-8.2793-24.763-8.7974-52.544-20.219-61.735-25.381-24.928-14.001-11.731 1.0083-83.805-36.102-28.538-14.694-64.45-32.537-79.805-39.65-118.12-54.72-217.21-118.2-227.21-145.54-15.387-42.081-17.765-57.974-14.336-95.809 3.9369-43.446 7.1194-51.516 30.23-76.66 23.28-25.329 63.86-118.92 73.134-122.01 3.3786-1.126 8.5536 4.2935 11.5 12.043 4.4187 11.622 3.1171 19.082-7.4298 42.584-32.134 71.604-34.093 148.54-40.002 254.18l14.51 15.145c13.352 13.936 153.89 90.464 195.14 106.26 9.7715 3.7417 48.604 21.536 86.294 39.542 106.49 50.877 132.06 59.1 182.74 58.78 162.89-1.0298 196.63-42.469 319.95-87.79 117.28-43.102 200.79-117.45 228.63-123.94 11.932-2.7817 40.554-32.564 61.715-64.217 22.383-33.481 101.96-101.69 73.706-101.47-7.1693 0.0542-52.269 29.217-97.715 63.185-57.109 42.685-132.49 79.479-192.89 94.151-44.513 10.813-137.66 12.351-193.38 3.1929-27.652-4.5454-73.118-11.848-101.04-16.228-57.957-9.0928-210.04-46.635-219.49-54.18-11.245-8.9849-0.6069-15.28 20.91-12.374 47.099 6.3613 68.983 19.703 218.88 43.981 58.796 9.522 179.74 34.253 269.03 10.881 59.642-15.61 109.67-35.726 141.18-56.772 16.512-11.027 31.26-20.048 32.772-20.048 6.5899 0 110.32-86.265 155.35-86.303 16.002-0.0112 27.036-30.976 52.585-58.367 21.741-23.308 101.94-129.23 128.56-165.99 81.832-113.05 82.426-113.63 97.921-94.494 23.91 29.528-18.615 126.37-34.026 169.12-9.6184 26.68-15.418 35.937-23.275 37.155-16.951 2.6274-13.706-31.365 7.7485-81.169 20.333-47.201 33.429-90.046 29.478-96.44-12.42-20.097-36.386 57.543-64.396 92.604-28.477 35.646-89.894 131.07-89.894 139.67 0 11.527 9.5817 13.092 39.416 6.4399 112.68-25.124 219.44-98.988 283.33-196.03 69.996-106.32 167.35-263.16 182.31-291.83 11.024-21.123 25.944-26.802 20.001-7.614-5.1388 16.593-37.323 81.129-44.923 90.077-3.5674 4.2009-14.103 21.343-23.412 38.095-24.867 44.746-86.581 133.54-109.07 172.59-10.616 18.434-121.11 162.07-210.6 187.79-18.692 5.3716-103.72 32.079-116.75 36.668-21.01 7.4033 28.839 11.037 88.832 6.4756 154.1-11.718 141.67 7.7324 230.42-19.019 52.188-15.73 66.727-23.057 59.699-30.084-3.9222-3.9219-125.64 12.242-143.92 19.112-6.1406 2.3081-31.193 4.8672-55.672 5.688-39.023 1.3086-44.73 0.3975-46.314-7.3911-3.3712-16.58 31.726-1.3174 91.259-16.744 37.775-9.7886 87.454-17.619 132.78-20.929 33.422-2.4409 34.616-2.1348 31.384 8.0503-6.6337 20.9 18.505 11.99 54.797-19.423 19.047-16.486 41.89-32.704 50.761-36.038 44.879-16.866 88.357-37.457 98.058-46.44 11.445-10.597 12.875-15.104 36.784-115.94 13.531-57.067 18.408-79.345 28.332-129.44 21.52-108.63 20.07-465.71-2.6174-644.67-23.97-189.07-20.716-157.56-54.751-307.1-24.589-108.04-70.594-260.73-84.57-280.69-10.79-15.404-4.6072-51.029-14.795-75.257-4.9966-11.883-5.6436-19.827-2.1472-26.36 7.1851-13.425 1.2026-24.789-12.041-22.873-9.2468 1.3379-12.408 7.0112-17.872 32.082-8.772 40.248-17.635 67.688-48.285 149.49-39.057 104.23-45.869 116.87-76.038 141.01-34.306 27.451-105.98 63.025-133.16 66.088l-21.028 2.3701c-34.192 527.51-78.887 604.03-149.04 912.61-11.035 48.539-49.106 170.76-56.131 180.2-8.7397 11.747-53.763 164.97-68.996 164.97-10.326 0-14.011-12.441-7.3624-24.864 4.9448-9.2393 32.815-85.416 69.807-190.8 16.131-45.955 47.221-166.26 47.221-182.73 0-12.886-6.8973-17.068-12.69-7.6948-3.8845 6.2854-22.842 6.7507-22.842 0.5608 0-8.8516 30.521-154.3 23.352-218.09-4.155-36.965 7.7357-100.04 18.175-168.26 8.0848-52.834 6.4492-263.03-2.8833-370.56-8.2738-95.326-12.734-117.34-42.344-209-25.838-79.981-15.72-49.455-80.726-93.862-15.393-10.516-30.619-17.101-37.216-16.096-11.003 1.6758-10.944 2.0046 4.0529 22.644 33.748 46.445 50.575 90.388 71.657 187.13 17.362 79.673 18.115 87.112 9.131 90.246-12.292 4.2876-19.035-2.6348-19.035-19.541 0-28.675-16.836-34.85-40.222-151.88-3.6171-18.101-23.031-62.355-43.672-99.549-14.526-26.176-49.386-52.02-132.49-119.45-31.937-25.914-73.91-68.905-78.834-63.898-19.538 19.864-166.28 413.46-169.08 534.16-0.8975 38.681-6.3119 21.266-24.705 131.98-12.621 75.966-12.902 82.357-8.1616 185.28 15.911 345.45 65.694 372.84 65.694 419.13 0 12.375 9.4418 17.555 13.365 7.332 4.176-10.882-5.8446-84.552-13.434-233.57-11.341-222.67-35.46-304.85-5.1343-553.3 5.1443-42.143 14.04-86.442 19.701-98.107 3.7181-7.6619 14.43-6.1187 11.528 1.6611-5.7445 15.401-29.206 249.49-20.802 347.71 28.506 333.22 24.45 567.34 58.06 664.45 44.052 127.28 58.544 112.58 58.544 132.8 0 4.9961 6.6066 25.817 14.681 46.269 23.623 59.834 23.522 57.449 2.9489 69.588-26.764 15.791-35.711 13.852-49.972-10.829-11.972-20.721-16.743-35.159-28.098-85.025-17.619-77.378-27.908-115.91-34.261-128.31-12.684-24.751 5.275-22.944-3.6497-81.082-4.603-29.985-6.6163-34.264-16.12-34.264-14.24 0-29.043 16.791-29.687 33.675-0.4232 11.098-4.0478 14.513-20.817 19.619-28.652 8.7231-110.26 43.152-119.27 43.152-26.66 0-161.25 48.341-197.99 71.112-4.1879 2.5957-17.655 9.377-29.928 15.069-29.607 13.732-27.683 21.637-51.29 30.893-23.739 9.3071-98.402 51.388-158.98 100.19 46.04 43.16 128.45 107.55 148.35 121.99 31.543 22.888 137.08 73.143 186.3 88.719 22.031 6.9707 70.893 20.181 108.58 29.356 57.477 13.993 77.941 16.665 126.9 16.569 53.403-0.104 63.131-1.6904 114.21-18.623 75.459-25.013 74.021-35.401 162.44-81.736 93.382-48.938 109.69-74.044 121.65-74.044 3.0432 0 9.4448-4.5688 14.226-10.152 9.0483-10.568 24.02-13.805 24.02-5.1934 0 6.478-16.518 13.764-53.482 43.207-36.898 29.39-159.54 89.792-182.05 112.06-16.95 16.767-44.533 29.567-104.56 48.524-57.692 18.219-125.5 15.936-230.58-7.7637-146.16-32.965-256.36-83.299-353.17-161.31-78.801-63.502-128.51-114.9-124.23-128.45 9.5391-30.221 9.1741-33.06-4.2483-33.06-18.078 0-23.282 17.568-43.968 31.908-13.637 9.4536-48.38 11.81-53.439 3.6245-1.7254-2.792-9.6107-5.0762-17.523-5.0762-14.739 0-36.505 21.29-77.352 75.662-19.826 26.389-30.169 33.71-41.49 29.366-5.6843-2.1812-8.2797-9.2427-8.2264-22.382 0.1723-42.477 15.521-23.39 45.574-46.783 12.111-9.4268 12.22-9.9897 2.5381-13.031-33.272-10.454-50.32-28.698-83.231-24.284-24.864 3.335-28.448 8.6934-33.229 49.676-4.6609 39.958-16.879 96.694-25.982 120.66-8.0145 21.098-9.8322 59.542-2.8153 59.542 9.882 0 15.908-15.596 23.662-61.237 9.1989-54.148 29.433-125.11 39.66-139.1 7.4692-10.215 19.693-6.6006 15.411 4.5566-1.4642 3.8164-0.4923 8.2798 2.1598 9.9185 5.5139 3.4077-1.1705 42.594-11.356 66.574-3.5574 8.3755-9.2194 28.934-12.582 45.685-16.546 82.43-46.625 177.05-20.97 183.76 5.4913 1.436 11.28 6.6924 12.863 11.681 5.0578 15.936 85.164 87.936 127.04 114.18 57.298 35.914 135.96 56.232 155.09 69.341 39.443 27.023-61.399 5.6978-128.41-27.156-46.989-23.037-104.67-64.725-129.76-93.787-30.074-34.834-39.195-35.608-34.769-2.9517 6.0565 44.696 40.054 108.77 9.3913 89.432-11.459-7.2285-26.175-65.574-29.918-118.62-4.6911-66.478-10.624-38.666-16.552-75.139-3.3439-20.572-13.504-21.404-12.252-1.0029 2.5353 41.326 8.0823 87.045 13.242 109.14 8.1833 35.042 5.3732 62.3 13.012 93.908 3.0363 12.563 5.6198 35.689 5.7413 51.391 0.3864 49.919 32.33 92.424 89.068 118.52 163.21 75.055 85.642 32.226 234.99 81.799 105.84 35.131 80.925 17.092 105.1 27.48 5.5836 2.3999 26.142 4.4849 45.685 4.6343 29.648 0.228 42.678-2.7246 78.68-17.819-12.032 3.0076 121.31-43.911 156.62-63.172zm-367.6-308.71c-16.576-10.888-42.904-33.208-58.505-49.598-27.948-29.361-80.77-107.23-80.77-119.06 0-14.161-26.306-46.358-16.382-56.282 7.6182-7.6182 18.971 1.6631 31.705 25.918 14.864 28.312 43.097 54.404 69.582 64.303 60.684 22.682 63.851 48.402 86.88 17.254 14.205-19.212 23.825-19.285 33.667-0.252 10.837 20.955 9.7718 28.418-6.163 43.194-17.025 15.786-33.812 16.322-57.158 1.8252-30.828-19.143-83.385-44.027-87.551-41.452-10.162 6.2803 48.664 65.946 100.5 101.94 25.885 17.972 31.264 26.374 19.412 30.324-4.1138 1.3711-33.641-16.53-35.216-18.105zm790.67-220.01c-15.374-15.374-1.8571-40.502 25.452-47.317 7.5776-1.8911 15.241-8.0498 17.03-13.686 7.2096-22.715-54.772-188.63-72.257-274.28-2.3605-11.562-1.0887-13.959 7.406-13.959 14.532 0 47.592 41.47 74.67 93.666 12.55 24.192 31.19 54 41.422 66.242 18.545 22.186 60.488 48.212 77.696 48.212 11.049 0 22.558 12.8 18.057 20.082-4.7881 7.7476-17.186 6.541-47.81-4.6523-46.259-16.909-69.02-42.797-107.29-122.03-14.055-29.102-30.32-47.959-30.32-35.151 0 3.6855 13.594 46.795 30.21 95.799 39.008 115.05 40.564 124.87 23.955 151.18-13.511 21.403-36.167 41.981-46.22 41.981-3.253-1e-4 -8.6556-2.7413-12.006-6.0914zm159.22-207.21c-30.321-10.771-43.039-25.17-87.34-98.885-18.456-30.71-37.893-60.609-43.192-66.44-23.102-25.423-74.29-131.6-86.659-179.75-6.3899-24.875-76.211-298.78-58.817-317.26 7.2263-7.6768 19.323 11.79 19.323 31.095 0 21.502 12.025 69.16 23.114 123.73 24.587 120.98 53.734 219.63 114.21 312.18 87.763 134.31 93.72 184.41 163.44 176.53 20.709-2.3418 24.112-1.4585 24.112 6.2573 0 11.959-14.753 22.593-30.457 21.954-14.311-0.5835-37.222-9.9195-37.73-9.4117zm362.51-15.454c-11.47-42.599 15.296-157.71 1.0841-178-6.4421-9.1975-6.0709-11.075 3.5148-17.79 6.5896-4.6152 10.717-13.01 10.717-21.796 0-20.406 24.2-102.49 30.168-134.88 5.7831-31.384 17.03-44.861 22.644-76.142 8.0131-44.651 40.882-141.38 54.042-187.82 25.71-90.725 46.308-146.53 86.186-233.5 5.1206-11.168 10.652-26.586 12.292-34.264 4.9852-23.338 27.247-15.842 13.3 10.221-7.9514 14.858-64.189 174.28-73.84 209.32-4.998 18.147-16.813 57.615-26.255 87.706-23.991 76.455-44.327 172.33-54.963 206.71-33.54 108.42-55.052 309.7-51.562 313.19 1.4821 1.4814 11.327-4.4219 21.879-13.119 16.57-13.658 37.175-21.048 37.175-13.332 0 5.0945-39.025 49.45-53.954 81.207-13.321 28.336-25.187 29.17-32.428 2.2803l1e-4 0.0011zm-172.5-92.558c0-2.322 116.75-245.92 116.75-253.15 0-11.687 28.226-31.282 63.63-138.74 32.259-97.911 16.467-30.831 127.4-345.18 71.798-203.44 146.97-356.91 165.67-338.21 3.21 3.21 1.1718 10.245-5.8087 20.048-19.19 26.95-86.168 175.2-102.47 226.79-6.1731 19.543-12.862 37.817-14.865 40.609-10.135 14.129-176.12 508.67-213.11 553.3-11.963 14.434-45.884 95.906-77.737 157.36-27.993 54.006-37.049 78.68-49.853 78.68-1.5038-1e-4 -9.6218-0.2293-9.6218-1.5132zm136.35-475.2c-42.181-34.195 36.311-220.32 51.16-346.29 6.9927-59.323 25.109-173.67 26.924-212.47 1.0511-22.478 3.1184-28.217 10.684-29.656 8.8608-1.6858 9.2312 2.1091 6.6843 68.48-10.911 284.34-89.668 437.62-89.668 479.4 0 59.5 59.758-64.459 127.49-264.46 64.696-191.03 197.93-451.77 230.85-451.77 3.9277 0 7.1415 1.3611 7.1415 3.0249 0 1.6636-12.263 21.651-27.252 44.416-137.75 209.21-199.33 481.75-284.54 650.53-38.207 75.68-38.413 75.884-59.472 58.813l2e-4 7e-4zm-445.99 1258.3c0-1.9702-26.447-5.2109-58.771-7.2017-58.76-3.6182-105.34-13.53-111.66-23.76-1.8462-2.9873-0.0796-8.7085 3.9255-12.714 14.432-14.432 67.128 8.04 140.74-1.5127 72.29-9.3823 86.684-10.338 86.684-5.7554 0 10.856-66.772 22.112-123.1 20.752-37.728-0.9111-46.984 7.3706-12.69 11.356 39.615 4.604 143.02 1.2949 153.95-4.9272 8.6395-4.917 13.489-4.2178 26.772 3.8599 12.976 7.8916 25.59 9.8594 63.053 9.8369 58.902-0.0356 82.299-6.5054 104.76-28.97 15.706-15.706 19.004-17.048 28.036-11.407 43.671 27.273 232.59-12.126-17.293-25.874-191.36-10.53-246.63-29.791-297.1-39.841-49.229-9.8032-30.903-23.487-78.883-0.9888-58.017 27.205-123.89 78.993-120.78 94.951 2.3404 11.988 48.431 27.045 98.137 32.059 60.501 6.1035 73.06 6.0508 94.588-0.3989-0.254 0.5077 19.624-6.3756 19.624-9.4625zm1245-38.686c17.216-2.8452 18.211-3.8188 10.152-9.9351-11.623-8.8208-39.116-8.9937-46.339-0.2905-10.629 12.807 0.8836 16.06 36.187 10.226zm-102.84-9.4239c0 5.6396 5.9221 7.6143 22.842 7.6143 62.419 0-22.842-28.594-22.842-7.6143zm-23.326-1.7563c3.7504-6.0679-39.6-20.161-76.791-50.274-31.13-25.207-42.015-27.324-42.015-8.1738 0 14.365 5.1265 19.524 40.46 40.718 36.224 21.728 78.346 26.753 78.346 17.729zm-264.65-19.34c-8.3344-3.3721-29.456 2.0869-8.9799 2.3398 15.043 0.1861 8.9799-2.8476 8.9799-2.3398zm87.194-10.374c33.741-22.472 42.505-31.845 39.722-42.485-3.4589-13.227-9.6403-12.329-19.582 2.8447-11.884 18.138-74.253 42.403-70.228 48.916 5.3905 8.7222 29.872 4.1885 50.088-9.2759v6e-4zm424.84 3.9893c6.5911-5.3438 10.483-11.223 8.6482-13.065-4.2959-4.3135-34.735 11.314-34.735 17.834 0 12.114 26.087-2.5299 26.087-4.7696zm-81.924-2.4141c56.524-13.548 91.37-47.302 91.37-26.362 0 10.635 100.76 10.852 104.84 0.2251 1.7026-4.4375 9.1169-7.1025 18.784-6.7529 18.97 0.686 106.19-22.032 132.19-34.431 18.149-8.6553 24.139-17.111 11.95-16.872-10.492 0.2065-65.925 19.801-77.533 27.407-7.0354 4.6099-34.666 8.355-78.963 10.703-58.744 3.1128-76.037 2.1001-125.41-7.3452-31.496-6.0259-63.471-13.616-71.056-16.868-19.719-8.4531-41.71-24.057-41.71-29.595 0-5.9019 21.646-6.2446 28.172-0.4458 9.464 8.4092 61.244 25.483 95.813 31.595 42.513 7.5156 167.55 3.2896 178.79-6.0435 9.043-7.5049 0.9724-14.095-18.514-15.119-17.965-0.9434-1.4192-1.7974 18.147-11.948 32.297-16.755-82.819 7.6938-142.25-49.062-21.134-20.183-11.953-24.356 19.076-8.6714 38.341 19.38 57.254 24.509 90.38 24.509 47.948 0 103.18-23.136 90.816-38.04-6.1216-7.376-1.5112-12.722 10.972-12.722 16.438 0 10.627-30.489-13.282-30.432-14.016 0.0356-48.716-11.556-124.62-41.621-104.31-41.316-87.794-39.135-159.9-39.396 17.795 13.92 21.805 19.839 54.568 19.966 41.86 0.1616 28.047 10.265 23.402 10.265-3.1819 0-8.5435 3.7715-11.914 8.3813-5.1802 7.084-8.7229 7.4766-22.891 2.5381-20.8-7.2515-112.72-7.9766-101.54-0.8018 4.1879 2.6875 24.746 10.889 45.685 18.225 63.348 22.195 65.99 23.41 65.99 30.349 0 3.6846-1.8579 7.8472-4.1284 9.2505-4.4182 2.7305-62.99-17.33-87.292-29.897-17.858-9.2349-37.27-9.728-50.78-1.291-8.0255 5.0117-12.141 5.0117-20.167 0-11.593-7.2402-48.871-8.498-53.017-1.7886-4.4044 7.1265 47.072 21.854 63.654 18.212 23.844-5.2373 13.186 9.4443 26.995 19.196 8.9772 6.3398 100.63 34.224 112.49 34.224 6.0508 0 13.845 3.4263 17.321 7.6143 18.068 21.77-82.64-0.8921-181.15-40.764-67.358-27.264-71.322-28.23-100.58-24.514-45.932 5.8335-130.07 1.5117-163.8 22.578-17.844 11.144-148.38-29.516-148.38-46.217 0-7.1694-18.103-6.1592-24.265 1.3545-10.48 12.779-54.288 115.66-131.38 175.8-12.109 9.4473-22.017 20.019-22.017 23.493 0 9.0308 56.594 29.135 71.499 25.399 6.7412-1.6895 22.252 0.457 34.469 4.7695 43.243 15.267 136.8 6.8042 195.65-17.696 33.832-14.084 38.428-17.701 45.751-36.003 4.4773-11.19 7.0682-22.082 5.7573-24.203-3.0543-4.9424-57.178-31.668-67.233-36.772-38.595 20.117-37.752 22.705-84.79 19.77-41.139-2.5664-74.204-13.636-74.204-24.843 0-5.6294 12.587-4.5254 55.333 4.8535 35.063 7.6929 76.22 0.1104 89.449-16.48l10.974-13.763 14.761 12.344c60.321 50.441 168.21 68.148 228.61 37.519 28.202-14.301 44.891-30.544 41.198-40.097-3.7017-9.5752-78.164-27.623-82.03-37.697-3.5944-9.3667 11.334-8.8701 35.75 1.1895 31.455 12.959 44.815 19.006 72.091 28.064 23.926 7.9453 28.316 16.212 9.9478 18.731-13.214 1.8125-53.428 41.553-42.048 41.553 3.9811 0 15.282-3.8359 25.113-8.5239 19.079-9.0981 29.817-5.8335 17.7 5.3818-4.0216 3.7227-29.012 15.354-55.535 25.848-46.74 18.493-49.621 18.983-93.672 15.936-48.148-3.3311-50.44-1.085-17.468 17.119 43.257 23.882 69.896 35.178 93.374 39.592 50.108 9.4225 143.66 3.1559 144.67-0.8827zm170.47-173.46c-19.314-3.8359-37.399-9.2573-40.189-12.047-8.625-8.625 10.463-12.15 33.602-6.2056 37.329 9.5894 64.545 9.02 64.545 19.013 0 8.6681-11.23 8.5206-57.959-0.7602zm21.734-42.896c-37.488-6.6157-65.297-18.508-65.297-27.924 0-19.433 29.018 5.5098 111.67 23.114 53.267 11.345 60.914 14.255 60.914 23.183 0 6.7275-15.678 10.006-21.242 4.4419-0.509 0-24.072-11.877-86.049-22.814zm-979 186.06c58.516-19.028 117.87-54.933 143.84-87.008 22.119-27.323 51.283-54.688 62.367-78.68 78.232-169.34 38.169-69.323 94.331-170.99 75.078-135.92 118.2-77.89 204.02-111.52 53.306-20.891 61.074-13.86 30.975 28.036-9.7715 13.601-17.766 26.885-17.766 29.519 0 7.7612-30.003 34.215-34.128 30.09-5.1627-5.1626 20.368-42.2 14.865-45.6-5.6235-3.4751-82.995 27.275-100.16 27.275-25.54 0-58.904 28.852-65.984 57.06l-3.3362 13.292c23.493-1.7769 72.538-6.9336 91.31-0.3896 24.947 8.6963 24.497-5.5552 70.796-19.426 11.474-3.4375 28.796-14.502 38.493-24.586 19.643-20.427 64.28-98.372 64.28-112.25 0-5.1035-6.4486-11.59-15.076-15.163-20.977-8.689-122.01-4.5415-154.97 6.3623-61.825 20.447-108.11 33.909-126.9 36.91-11.168 1.7832-27.157 6.2593-35.533 9.9473-73.616 32.413-68.863 21.101-144.82 81.94-33.384 26.74-41.87 38.809-76.236 108.43-20.363 41.252-80.282 123.14-112.17 153.29-50.476 47.73-121.43 83.822-187.44 62.952-36.682-11.597-164.54-48.515-171.03-67.993-8.4049-25.215 116.47 40.182 212 48.022 108.22 8.8809 194.16-122.75 244.24-218.28 38.481-73.398 41.884-77.905 80.393-106.49 15.226-11.304 25.182-21.386 22.124-22.405-9.9869-3.3291-45.002 17.135-110.28 22.154-32.834 2.5239-45.418 5.6157-51.869 12.745-10.601 11.714-39.94 13.197-35.566 1.7979 6.1915-16.135-141.26 1.0469-166.74-15.649-6.7446-4.4189-16.372-6.7061-21.395-5.0815-11.767 3.8057-33.813 41.838-26.774 46.188 7.1575 4.4233 156.64 1.0957 197.26 1.7329 12.244 0.1919 26.382-1.856 31.418-4.5508 16.119-8.627 15.811 3.9028-0.3798 15.432-8.4412 6.0103-14.044 13.038-12.45 15.616 1.5936 2.5786 18.752 4.688 38.13 4.688 37.305 0 44.417 5.7495 26.35 21.302-17.965 15.464-146.23 75.418-222.08 103.8-46.966 17.577-54.746 18.987-104.06 18.862-29.315-0.0737-61.761-1.7432-72.104-3.71-18.253-3.4712-20.188-2.2954-65.99 40.09-25.952 24.017-47.185 46.182-47.185 49.256 0 7.3726 37.309 16.739 68.528 26.794 33.364 10.746 96.604 16.859 104.06 22.849 23.322 18.737 177.6 13.544 203.04 20.58 36.472 10.085 155.06-7.2357 139.59-7.2357zm-78.68-17.166c-28.697-6.5005-10.376-21.619 26.199-21.619 47.031 0 138.47-40.937 118.72-53.147-2.9275-1.8096-5.3226-5.2764-5.3226-7.7056 0-6.2876 72.733-50.822 83.003-50.822 11.933 0 41.676-37.507 48.908-33.038 7.2881 4.5044-2.7257 21.654-22.022 37.714-30.979 25.784-72.386 66.99-107.35 89.098-42.909 27.131-112 46.342-142.13 39.518v6e-4zm-156.38-319.28c-11.235-11.235 26.935-18.075 26.935-4.3682 0 7.5977-20.397 10.905-26.935 4.3682zm749.39 295.62c2.7145-7.0737-9.9424-12.977-28.134-13.121-12.445-0.0986-5.7709 14.046 7.884 16.709 6.0458 1.1787 12.461 2.4546 14.256 2.835 1.7952 0.3798 4.4923-2.5103 5.9938-6.4229zm873.34-40.915c87.127-14.759 80.712-15.924 107.24-28.753 12.57-6.0776 15.228-10.431 15.228-24.935 0-15.298-1.6208-17.572-12.528-17.572-13.845 0-14.294 6.2935-23.724 39.907-10.458 0.6104-58.002 2.3276-64.888 7.832-5.5967 4.4731-166.1 22.888-195.81-2.0713-12.649-10.624-27.929-13.102-37.527-6.084-28.962 21.178 76.655 27.461 98.44 39.616 12.364 6.8984 35.547 5.2773 113.57-7.9395v-3e-4zm246.84 2.6553c0-6.5791-37.843-8.0815-66.578-15.73-24.237-6.4512-48.757-6.2061-52.919 0.5283-1.8403 2.9775-2.1985 6.561-0.7959 7.9639 9.0837 9.0835 120.29 15.775 120.29 7.2378zm-482.18-56.148c-8.2959 0-19.535 11.877-32.669 34.524-5.5425 9.5571 33.342-7.0635 41.344-17.671 1.0896 0 12.056-16.854-8.6746-16.854zm451.73 20.815c0-6.4321-36.868-7.3691-54.568-13.176-8.5293-2.7983-11.421-1.7637-11.421 4.0869 0 4.3086 3.9973 8.8784 8.8833 10.155 16.45 4.2993 57.106 3.54 57.106-1.0659zm-1825.1-74.297c58.437-22.153 155.36-71.819 158.49-81.218 0.9104-2.731-9.084-8.8271-22.21-13.547-22.658-8.1479-25.675-8.1011-59.656 0.9233-64.532 17.137-83.708 20.42-119.29 20.42-71.272 0-52.886-23.202-82.534 11.087-10.419 12.049-19.011 24.5-19.094 27.669-0.0832 3.1689-6.0018 9.5947-13.152 14.28-50.488 33.081 79.545 49.918 157.45 20.386zm577.68-14.793c-7.7041-1.875-22.524-8.981-32.934-15.79-31.312-20.484-60.812-13.958-12.491 7.0381 11.696 5.0825 26.976 11.774 33.956 14.872 15.537 6.894 32.064 7.9487 28.266 1.8042-0.5088 0-2.3243-4.4004-16.797-7.9234zm61.33-18.045c-39.774-18.964-51.699-27.843-45.593-33.949 1.5634-1.5635 24.507 6.6587 50.986 18.272 69.458 30.461 155.31 41.939 155.31 20.763 0-2.604-18.845-10.528-41.878-17.608-71.134-21.868-77.973-40.568-100.77-35.562-8.3977 1.8442-20.095-0.0977-29.319-4.8677-33.199-17.168-111.7-4.7827-116.29 18.348-2.8966 14.582 101.71 49.014 163.89 53.947 2.7917 0.2212-13.56-8.4829-36.338-19.343zm-830.15-3.7817c33.243-41.411 37.568-47.619 34.972-50.215-1.5576-1.5576-5.3726-1.2617-8.478 0.6572-8.1732 5.0513-45.79 53.435-45.79 58.896 0 8.582 8.0297 4.6958 19.297-9.3389zm-1142.9-23.302c-4.7608-40.198 9.8675-89.745 4.5826-103.52-2.8934-7.54-3.8415-7.5508-11.264-0.1279-5.1787 5.1787-9.9385 24.292-13.182 52.931-4.283 37.821-3.7972 47.858 3.1094 64.227 11.452 27.144 20.687 19.694 16.754-13.515h3e-4zm2269.9 13.898c-5.1946-5.1948-12.011-6.9063-18.854-4.7344-17.112 5.4312-12.41 12.87 8.1359 12.87 17.296 0 18.182-0.6718 10.718-8.1357zm-142.37-48.357c-32.53-16.323-49.859-19.46-39.669-7.1812 14.014 16.886-6.7106 23.486-30.192 9.6147-17.156-10.135-35.234-5.9399-25.411 5.896 3.4481 4.1548 10.178 7.5542 14.954 7.5542 11.266 0 2.0775 2.332 57.352 20.781 31.62 10.553 50.448 13.755 76.984 13.092 85.171-2.1289 4.3963-20.447-54.018-49.756zm202.84 13.15c-9.0415-1.9331-22.15-6.543-29.129-10.244-18.16-9.6289-91.414-30.682-110.64-38.263-16.768-6.6108-26.411-5.6699-26.411 2.5776 0 11.21 63.362 23.849 63.584 31.434 0.0731 2.4961 2.6268 8.8555 5.6753 14.132 4.6461 8.0415 9.7825 9.186 31.75 7.0752 18.116-1.7407 27.334-0.5288 29.857 3.9258 3.1393 5.5405 10.444 7.6963 39.184 11.562 10.056 1.3526 33.472-14.217-3.8654-22.2zm-915.88-27.656c2.2585-0.0356 2.5332-2.6133 0.6102-5.7251-5.9181-9.5752-31.116 3.8403-110.86-4.4409-44.488-4.6196-51.39-4.2466-59.644 3.2236-5.1342 4.6465-9.3348 12.663-9.3348 17.814 1e-4 26.82 164.02-10.621 179.23-10.871zm993.35 12.084c0-12.943-93.698-60.067-141.45-71.143-56.142-13.02-66.666-30.517-66.666-17.042 0 2.8516 6.2817 7.7437 13.959 10.871 25.455 10.37 53.152 24.553 70.164 24.553 8.3448 0 12.348 2.3247 10.93 6.3452-1.4481 4.1035-10.107 5.8149-24.513 4.8438-78.13-5.2666 137.58 58.57 137.58 41.572h-3e-4zm232.26-18.497c-2.6719-8.1055-35.059-8.4785-136.18-29.471-55.777-11.58-84.693-15.353-98.21-12.817-18.93 3.5513-19.046 3.7173-9.78 14.006 14.116 15.673 27.377 18.863 61.618 14.826 17.964-2.1182 34.798-1.6074 39.828 1.2075 27.152 15.195 142.72 27.66 142.72 12.248zm386.21-16.359c-35.509-18.902-54.212-13.746-89.706-28.85-33.819-14.392-38.465-10.127-73.216 4.4844 126.98 36.997 135.29 36.059 186.5 36.917-27.254-14.509-23.068-12.552-23.578-12.552zm-310.53-5.5561c12.691-33.073-114.6-13.328-189-45.438-49.084-21.182-92.606-27.589-115.76-17.04-22.196 10.113-9.9539 18.214 33.219 21.98 85.546 7.4618 260.79 68.525 271.54 40.498zm-572.62-52.776c-9.3862-0.2056-15.292 10.649-10.226 18.793 4.2338 6.8042 35.852 20.674 48.375 21.22 8.2709 0.3604 8.6215-0.7393 2.7012-8.4692 2.2488-1e-4 -27.641-31.254-40.85-31.544zm168.98 1.6328c-21.495-2.2466-31.201-1.5024-31.201 2.3931 0 8.4521 28.692 15.124 67.258 15.639 27.276 0.3643 34.264-1.0947 34.264-7.1563 2.5696-10.278-21.778-5.8023-70.321-10.876zm417.71 13.945c9.033-14.616-85.108-14.325-26.579-0.4634 23.369 5.5347 23.443 5.5361 26.579 0.4629v5e-4zm-66.46-10.977c-7.4065-7.4063-62.652-9.6133-62.652-15.646 0-2.4014 0.658-4.3662 1.4619-4.3662 0.8042 0 28.786 3.4082 62.183 7.5737 78.28 9.7637 93.715 9.7705 93.715 0.0405 0-4.188-1.7131-7.7603-3.8071-7.9395-221.9-18.947-216.08-17.126-226.23-5.8408-9.0979 10.116-8.8699 10.331 16.747 15.825 36.02 7.7246 49.486 4.606 63.542 10.646 10.355 4.4493 55.038 8.5226 55.038-0.2924zm269.61-25.208c-11.824-6.3281-13.939-5.8042-25.08 6.2104-6.6919 7.2173-10.78 14.509-9.0835 16.206 3.9807 3.981 28.676 3.9824 39.047 0.0024 0 1.2149 20.123-9.0346-4.8838-22.418zm-738.35 18.8c0-0.8931-6.8741-9.3232-15.276-18.734-11.499-12.879-16.717-15.669-21.105-11.281-15.523 15.523 40.889 39.032 36.38 30.015zm628.58-13.45c-27.592-0.1797-40.997 3.8823-36.55 11.077 6.1432 9.9399 90.055-10.728 36.55-11.077zm-832.96-13.328c-4.5942-4.5942-34.204 3.1133-34.204 8.9038 0 4.7261 44.19 1.082 34.204-8.9038zm312.24 9.5908c-15.242-2.9355-42.148 2.1997-11.421 2.1997 12.564 0 17.703-0.9897 11.421-2.1997zm95.511-1.6723c13.123-7.0229 12.46-15.05-1.2422-15.05-14.387 0-44.776 11.027-44.776 16.248 0 5.8789 34.472 4.9814 46.019-1.1987v5e-4zm72.83-23.171c-37.008 0-42.225 0.9961-34.563 6.5986 22.983 16.806 139.42-6.5986 34.563-6.5986zm274.82 3.4873c-2.9263-4.7349-18.186-7.6123-70.454-13.287-22.638-2.4575-28.924-4.8989-26.809-10.411 3.647-9.5039-26.317-9.6079-38.796-0.1343-16.72 12.692-8.8616 17.26 38.071 22.133 63.966 6.6411 101.44 7.291 97.988 1.6992zm-562.35-14.718c2.5861-7.7583-14.065-8.915-14.065 2.0088 0 8.9644 10.928 7.4033 14.065-2.0088zm208.18-8.5981c22.81-10.418 31.684-11.791 59.445-9.1987 20.271 1.8931 41.361 0.604 55.674-3.4038 56.53-15.827-3.2864-27.644-75.943-15.002-83.798 14.58-98.512 16.511-124.36 16.324-47.01-0.3403-86.294-10.491-86.294-2.2451 0 7.1533 30.139 15.573 69.797 19.499 17.449 1.7271 31.726 5.3862 31.726 8.1313 0 12.165 76.31-14.105 69.96-14.105zm182.83 6.6308c17.536-17.536-6.4414-26.706-28.829-11.025-9.2446 6.4751-10.313 9.2056-4.9365 12.612 16.778 10.632 36.259-1.5874 33.766-1.5874zm206.18-2.0659c13.157-5.0483 9.125-12.147-6.8994-12.147-31.033 0-21.131 22.903 6.8994 12.147zm-911.38-22.376c18.424-0.1055 48.897-11.32 61.328-22.57 21.167-19.155 7.7876-39.751-19.413-29.884-9.8795 3.584-13.024 7.9063-12.055 16.572 2.4041 21.505-13.371 0.2065-49.189 10.479-18.861 5.4092-47.295 29.478-43.012 36.409 3.3816 5.4712 2.0957 5.6265 27.439-3.3149-1e-4 0.5078 20.519-7.6075 34.902-7.6905zm334.81-5.6259c-9.0532-5.7388-24.541-5.6104-24.541 0.2036 0 6.3013 10.653 9.4517 22.003 6.5068 7.2448-1.8799 7.8082-3.3696 2.538-6.7104zm226.73-16.982c47.587-12.127 71.992-14.658 111.52-31.765 48.44-20.961 78.829-24.993 78.829-10.458 0 8.1436-32.695 41.951-27.974 49.589 4.8284 7.8125 18.415 6.2031 29.075-3.4443 8.52-7.7104 14.302-8.0063 55.313-2.8301 43.156 5.4473 60.336 4.5571 60.336-3.1274 0-4.1445-7.3037-5.6914-61.45-41.646-64.927-43.113-69.059-45.309-85.237-45.309-11.21 0-15.954-2.9229-18.538-11.421-4.072-13.39-26.872-33.868-37.82-33.968-4.1877-0.0405-13.266 4.2729-20.174 9.5815-11.972 9.1997-12.15 10.102-3.8071 19.322 11.976 13.232 11.225 14.979-7.7446 18.019-25.078 4.0186-72.218 19.925-122.24 29.008-19.07 3.4629-35.797 9.2241-37.17 12.803-3.5114 9.1504-52.252 13.196-102.08 8.4731-49.23-4.667-54.273 2.5859-8.5095 12.239 45.452 9.5869 66.515 8.3955 142.91-8.0811 146.12-31.515 161.7-60.188 174.74-47.151 7.6304 7.6304-2.1934 8.833-51.462 30.357-15.355 6.708-63.324 20.245-106.6 30.082-67.719 15.394-84.69 17.514-121.83 15.222-23.731-1.4648-50-4.8975-58.375-7.6274-21.731-7.0835-58.375-10.663-58.375-5.7021 0 14.942 186.51 40.807 276.65 17.836zm154.82-25.907c0-9.3691-1.0886-9.2432-30.861 3.564-20.197 8.6885-23.995 12.175-19.355 17.767 16.666 20.082 50.215-11.837 50.215-21.331zm-558.52-1.9717c9.1584-5.792 8.8916-6.0083-23.676-19.186-21.903-8.8623-27.324-9.5063-32.054-3.8071-6.119 7.373 4.019 15.114 30.2 23.058 17.474 5.3022 17.042 5.3032 25.53-0.0645l-1e-4 -5e-4zm-1089.4-83.954c7.4338 54.378 12.343 74.871 18.936 79.044 8.7939 5.5664 19.889 6.0806 19.889 0.9224 4.5109 0-47.845-145.96-38.824-79.966zm1137.7 68.527c-3.9395 0-20.956-7.0088-37.814-15.575-16.858-8.5669-35.772-14.763-42.03-13.769-8.7367 1.3877-2.5432 6.1826 26.675 20.652 35.712 17.685 70.562 25.245 63.469 13.768 0.599 0-4.0082-5.0762-10.3-5.0762zm35.681-9.5786 17.766 6.7222c20.793 7.8672 50.761 9.9033 50.761 3.4492 0-12.461-56.212-10.289-68.528-10.171zm167.47-6.455c4.4067-4.4067-10.236-8.8062-57.49-17.272-43.138-7.729-101.44-23.069-111.25-29.271-9.9493-6.2896-7.4268-18.641 3.8071-18.641 24.1 0 0.4048-25.253-32.622-7.46-16.673 8.979-16.861 8.9521-35.166-5.0093-11.095-8.4619-21.675-12.781-26.641-10.876-6.5706 2.521-7.0021 4.6499-2.1315 10.519 3.3585 4.0464 11.04 8.9165 17.069 10.823 16.279 5.145 43.958 27.562 43.958 35.602 0 24.572-55.458-32.244-72.766-25.602-30.01 11.516 32.576 50.789 81.303 32.263 11.152-4.2402 23.715-3.1558 57.437 4.9575 98.372 23.668 126.6 27.859 134.49 19.968l-3e-4 -5e-4zm86.01-11.451c48.689-11.359 119.61-20.366 119.61-38.621 0-6.7969-23.958-6.2915-28.214 0.5952-1.8879 3.0547-8.5637 4.5732-14.835 3.3745s-28.231 0.6792-48.8 4.1729c-77.444 13.155-181.69-13.918-175.96 3.2651 2.3041 6.9126 20.684 12.202 69.84 20.097 67.598 10.857 18.686 21.036 78.356 7.1162h-1e-4zm-164.65-33.232c0-4.7129-45.665-20.502-59.297-20.502-13.041 0-6.4309 8.8823 12.342 16.584 21.887 8.9795 46.954 11.071 46.954 3.9165v5e-4zm310.9-61.883c-3.5051-3.5049-9.9915-2.6719-20.168 2.5903-16.853 8.7153-74.691 24.455-90.226 24.554-5.5837 0.0356-53.553-1.188-106.6-2.7188-92.06-2.6572-98.755-3.5537-147.21-19.71-27.919-9.3091-63.561-25.426-79.205-35.815s-30.68-18.889-33.412-18.889c-2.7324 0-7.5773 8.5017-10.766 18.893-5.3612 17.468-4.7795 19.956 7.7122 32.995 7.4308 7.7559 17.652 14.102 22.713 14.102 11.306 0 11.409-2.0659 0.9009-18.104-40.784-62.244 110.32 90.596 376.32 43.568-4.7554 0 105.92-15.48 79.937-41.467zm-85.013 3.9541c40.923-7.4131 51.727-15.017 63.928-21.481-32.538-29.446-10.51-15.755-98.785 7.1809-27.403 7.1201-30.159 7.0625-34.516-0.7239-2.8925-5.1685-11.103-8.4614-21.097-8.4614-21.134 0-104.88-21.055-163.84-41.191-51.616-17.629-119.29-61.853-109.56-71.59 3.7535-3.7537 10.759-2.1643 23.443 5.3198 22.346 13.185 23.12 6.9458 2.1066-16.987-10.98-12.506-14.344-19.842-10.747-23.439s8.9969-1.3066 17.252 7.3169c25.521 26.66 95.772 51.675 95.772 34.103 0-6.6768-27.364-20.435-40.643-20.435-5.8798 0-16.843-6.5857-24.364-14.635-19.793-21.185-48.32-29.346-43.996-36.342 1.652-2.6729 20.572-4.905 42.044-4.9604 72.604-0.187 165.09-20.676 171.75-38.051 3.3427-8.7117-28.804-57.3-49.485-92.559-11.873-20.241-23.463-36.802-25.757-36.802s-4.1708-4.072-4.1708-9.0486c0-13.013-55.55-116.63-55.72-128.74-0.1674-11.932-29.151-72.056-35.32-102.2-8.3414-40.759-35.264-127.36-52.627-251.93-3.8864-27.881-6.0776-116.35-6.0776-245.36 0-199.17-0.1316-201.75-10.275-201.78-14.514-0.0303-87.749-42.735-109.23-63.694-9.8892-9.6501-21.882-17.545-26.65-17.545-10.663 0-10.687-1.0779 0.7119 31.535 11.266 32.234 21.06 69.404 26.466 100.44 5.8237 33.44 22.048 77.304 32.813 131.98 29.077 147.69 34.616 142.33 42.732 222.37 7.2445 71.426 13.09 53.588 17.129 112.66 9.9562 145.59 10.982 72.361 21.224 383.25 49.99 12.085 31.496 5.0139 90.796 52.328 26.577 21.205 33.649 29.224 26.916 30.521-9.3424 1.7991-58.552-28.613-77.478-47.883-15.396-15.675-35.458-27.898-39.369-23.986-1.871 1.8708-3.4764 35.572-3.5679 74.891-0.2462 105.94-7.1052 100.15-13.45 179.36-2.5271 31.55-1.7913 36.802 5.1572 36.802 4.4579 0 15.608 6.5471 24.779 14.549 21.627 18.871 72.941 37.858 113.12 56.061 48.339 21.9 84.985 31.437 164.97 42.934 44.729 6.4288 77.632-6.4501 73.603-3.7646zm-335.02-256.82c0-6.0815 7.9266-7.1755 43.167-5.9575 108.16 3.7383 112.35-34.565 126.7-17.27 7.8827 9.4978-3.4647 15.39-54.322 28.206-39.594 9.9778-64.853 11.427-97.778 5.6099 0.2539 0.5077-17.766-3.1656-17.766-10.588zm18.17-19.693c-9.5497-1.8228-18.306-6.1692-19.458-9.6592-1.5327-4.6406 6.777-6.345 30.935-6.345 48.778 0 82.718-13.693 87.806-8.6038 6.7073 6.7073-9.1063 17.487-29.945 20.412-11.835 1.6614-28.371 4.0308-36.747 5.2654-10.809 1.5935-32.93-0.3919-32.591-1.0693zm-23.246-77.586 17.583 2.9624c27.232 4.5884 57.336 38.354 34.148 38.301-7.6169-0.0112-43.241-33.598-51.73-41.264zm78.704-23.466c-14.614-13.891-46.979-31.702-57.605-31.702-3.9733 0-8.4191-4.5686-9.8793-10.152-3.5612-13.618 4.8547-12.947 34.355 2.7385 62.725 33.352-2.3322-23.783-21.824-34.228-17.085-9.1555-21.426-19.272-8.2701-19.272 33.766 0 103.81 71.788 103.81 106.4 0 11.751-3.3236 12.533-17.742 4.1753-0.3011-0.6024-9.2184-5.0069-22.843-17.956zm-46.978-134.04c-23.844-10.516-32.502-24.568-15.138-24.568 10.691 0 46.863 23.65 46.863 30.64 0 6.8539-4.2714 6.0363-31.726-6.0718zm89.531 504.27c1.4121-2.2847-5.7716-7.1697-15.964-10.855-34.519-12.482-110.27-49.96-128.08-63.365-16.46-12.391-18.164-12.714-24.112-4.5801-3.52 4.814-6.4 10.045-6.4 11.624 0 5.3668 161.4 88.456 174.56 67.176zm213.77-33.732c35.708-16.067 35.876-14.822-9.0159-66.576-22.814-26.302-43.183-47.821-45.263-47.821-5.7998 0-76.867 25.381-93.276 25.381-16.233 0-18.841 10.152-12.642 10.152 2.9565 0 5.3756 2.2493 5.3756 4.9983 0 3.0928-11.915 3.7529-31.255 1.7314-97.404-10.181 83.994 45.511 144.37 53.506 13.356 1.7688 23.635 5.5 22.842 8.2917-1.6877 5.9468-52.618 4.5325-67.43-1.8726-28.597-12.365-80.214-18.316-152.28-45.969-22.335-8.5693-48.604-17.088-58.375-18.93-16.728-3.1531-17.322-2.8096-10.152 5.8821 29.061 35.232 262.39 86.774 284.26 81.029 3.1866-0.838 22.335-9.8028 22.843-9.8028zm-105.07-48.548c-26.18-4.4136-34.519-8.1311-34.519-15.388 0-8.7007 49.708-5.2676 65.849 4.5479 24.932 15.162 14.899 18.634-31.33 10.84zm-2311.3-26.51c15.284-33.013 54.901-87.846 79.668-166.24 23.61-74.736 30.993-91.168 23.792-99.844-6.5233-7.8601-3.0936-53.728 8.2868-110.82 4.7936-24.046 7.6117-83.476 8.7181-183.84 1.6266-147.55 3.8573-165.77 19.138-156.33 10.984 6.7886-1.4199 272.14 9.4997 283.06 3.8461 3.8462 5.8315 30.483 5.8315 78.242 0 65.877 0.8678 72.874 9.6193 77.558 13.352 7.1458 16.549 1.5442 33.158-58.09 20.797-74.674 25.498-78.451 30.567-106.36 5.269-29.008 23.034-52.734 28.472-78.916 41.755-201.05 25.47-202.49 40.303-278.06 6.6089-33.671 14.713-241.9 18.168-258.74 2.771-13.512 15.31-15.256 18.24-2.5381 4.2095 18.274-6.197 233.89-13.291 275.38-15.257 89.233-3.9133 143.56-57.082 315.99-3.6404 11.806 9.5564 11.694 20.295-0.1726 17.839-19.712 102.05-223.73 110.45-267.59 31.716-165.57 25.256-175.54 38.52-524.95 4.7691-125.65-15.271-42.045-1.0847-150.22 11.196-85.376 5.5388-163.24 12.869-301.82 2.5796-48.768 3.7417-89.617 2.5827-90.777-4.0228-4.0227-53.524 50.005-90.9 50.005-41.242 0-10.585-91.37-25.424-91.37-9.4282 0-18.104 11.216-18.104 23.405 0 11.794-18.79 88.123-35.476 144.11-32.449 108.87-40.543 163.38-50.502 340.1-9.1774 162.84-13.981 196.63-18.534 351.01-1.8651 63.233-5.1511 117.82-7.3022 121.3-2.1511 3.4807-7.4788 4.9592-11.84 3.2859-6.6791-2.5632-7.5451-10.877-5.495-52.77 31.781-649.43 16.142-442.93-29.305-300.06-13.581 42.696-14.828 51.117-9.4815 64.026 4.177 10.084 6.4592 56.299 7.0977 143.73 1.5522 212.56-14.281 181.11-32.516 268.46-7.1222 34.118-12.834 45.685-22.56 45.685-21.35 0 11.845-27.088 33.684-213.2 6.7141-57.216-3.409-216.64-14.577-229.55-22.335-25.835 67.61-134.15 95.148-493.79 5.8975-77.02 8.0873-88.832 16.469-88.832 9.7163 0-4.8376 101.52 3.6035 101.52 5.2019 0 5.6731-1.4004 17.939-53.299 20.609-87.202 35.042-109.18 2.5557-81.848-16.455 13.846-31.12 19.119-47.454 17.062-20.304-2.5566-28.094 87.745-48.244 75.291-3.712-2.2942-3.2122-9.1868 1.6061-22.146 23.028-61.938 48.566-175.35 41.154-182.76-3.3743-3.3743-28.103 33.134-28.103 41.49 0 4.7119-3.5614 17.06-7.9138 27.44-13.101 31.242-27.516 194.05-46.153 201.2-11.72 4.4973-13.114-7.3745-4.9116-41.839 17.161-72.112 28.099-140.41 23.261-145.25-14.086-14.086-29.701 41.419-43.464 154.5-10.018 82.308-21.348 123.55-34.649 126.11-12.699 2.4458-7.0992-0.6365 2.6183-65.194 8.8667-58.906 7.992-32.075 17.404-88.832 10.964-66.113 23.205-80.247 13.635-89.818-9.7315-9.7314-16.748 1.5437-21.609 34.726-25.549 174.4-32.635 207.83-43.437 239.41-12.68 37.072-12.691 37.284-12.009 220.81 0.3755 101.04-1.8255 217.97-4.8905 259.84-17.57 240.05 6.6595 814.1-28.819 991.49-4.4568 22.283 10.409 22.013 20.774-0.3772l1e-3 -0.0012zm259.01-973.44c5.0063-29.632 43.132-133.79 43.132-147.86 0-21.615 3.9424 3.1572 17.199-75.403 40.935-242.57 11.166-467.7 31.242-475.4 4.3081-1.6533 9.4477-1.3948 11.421 0.5742 6.5258 6.5117 7.507 286.68 1.1652 332.7-34.926 253.4-38.441 209.51-78.217 343.36-8.28 27.863-14.522 40.416-20.702 41.633-7.7223 1.5208-8.389-0.9719-5.2419-19.599h7e-4zm85.738-732.99c-4.3347-11.296 1.2579-23.265 10.87-23.265 5.8079 0 7.6544 3.8523 6.5044 13.568-1.8395 15.539-12.788 21.649-17.375 9.6967zm1918.6 1679.6c43.278-10.854 84.499-27.768 84.434-34.645-0.0701-7.2791-36.376-45.136-44.315-53.744-21.17 10.255-55.074 28.678-90.51 32.576-73.82 8.1226-99.851 28.102-36.614 28.102 48.824 0 139.23-41.052 123.94-16.312-3.7035 5.9924-49.81 19.77-79.349 23.712-12.564 1.6765-26.269 5.3091-30.457 8.0723-6.5844 4.345-6.2815 6.0413 2.2391 12.542 22.006 16.79 69.386-1.5508 70.632-0.3049zm-1531.4-1.2119c3.5536-2.2603 5.5945-14.47 5.0296-30.094-0.768-21.255-3.7253-29.188-15.439-41.414-40.982-42.776-19.246-106.24-5.7648-226.56 5.792-51.696 33.011-229.44 33.066-285.15 0.0682-73.102 66.157-380.49 66.265-381.02 8.4499-40.943 79.894-254.2 130.1-356.2 34.431-69.943 35.498-76.126 15.33-88.848-13.077-8.249-18.324 0.7495-36.915 63.31-16.136 54.298-27.606 78.846-27.606 59.078 0-4.7461-1.9175-8.6294-4.2613-8.6294-8.6397 0-23.036 38.616-53.931 144.67-23.357 80.176-32.408 122.16-34.468 159.9-0.8938 16.366-3.4062 22.842-8.8615 22.842-6.1382 0-7.6033-7.8718-7.559-40.609 0.0905-69.27 56.513-243.61 83.604-307.1 30.505-71.495 20.064-64.137 57.969-142.16l-18.193-19.023c-26.961-28.191-41.741-62.17-52.467-62.17-9.6714 0-49.095 81.711-62.452 129.44-25.388 90.722-32.978 164.51-24.02 233.5 3.3433 25.748 1.8899 37.215-9.4009 74.175-8.5504 27.989-11.952 47.499-9.4542 54.227 5.0036 13.478-0.6138 147.19-7.7205 183.78-15.911 81.904-96.797 703.85-82.549 730.47 2.9365 5.4868 5.3391 18.54 5.3391 29.008 0 34.301 33.415 124.26 64.355 104.58h-7e-4zm62.8-24.091c8.3884-4.3376 14.976-11.871 14.976-17.126 0-13.381-46.993-59.305-65.99-90.829-14.406-23.906-22.156-24.867-24.352-3.0217-3.1039 30.88 49.638 65.777 49.706 98.841 0.0254 11.857 3.5512 19.882 8.7391 19.882 1.1415-1e-4 16.92-7.2325 16.92-7.7452zm20.052-85.086c0-0.8035-6.6088-20.79-14.686-44.416-44.74-130.86-29.096-261.66-45.782-251.35-6.6454 4.1069-15.364 75.133-16.857 137.33-1.4125 58.819 2.4008 73.741 28.538 111.67 20.163 29.263 48.788 56.699 48.788 46.762zm568.62-55.646c13.136-30.265 37.67-163.42 47.851-196.7 51.42-168.08 70.404-558.44 78.852-603.66 9.3975-50.301-20.203-48.71-20.203-63.94 0-9.802-34.444-37.975-46.426-37.975-9.2603 0-10.143 2.1194-7.2676 17.446 10.009 53.353 17.609 284.65 10.004 304.47-1.6946 4.4163-6.2629 8.0293-10.152 8.0293-11.16 0-2.5686-19.013-19.11-314.51-1.6284-29.089-12.56-43.251-36.184-46.877-11.648-1.7878-12.427 9.8228-2.9617 44.127 29.82 108.07 13.655 172.06 25.301 291.88 7.0969 73.015 5.937 47.726 0.6422 157.36-5.8065 120.24-14.091 109.08-20.118 246.19-6.5127 148.15-10.285 112.34-17.923 178.93-2.5277 22.039-1.6902 26.65 4.8413 26.65 4.3438-1e-4 10.128-5.1398 12.855-11.422zm-1252.5-134.4c-3.9837-10.382-13.731 0.8252-9.4096 12.088 2.8184 7.345 4.3139 7.7412 7.8186 2.0706 2.3835-3.8564 3.0995-10.228 1.591-14.158zm334.38-490.15c11.054-41.964 36.741-237.31 44.528-338.64 17.812-231.76 18.842-576.34 1.7793-595.19-5.9697-6.5964-8.7497-23.087-10.49-62.22-1.3025-29.285-4.3753-53.245-6.8285-53.245s-8.0089 4.1443-12.346 9.2095c-6.0112 7.0205-8.2369 24.215-9.364 72.335-13.32 568.74-30.897 353.78-12.7 466.77 8.3417 51.796-9.5504 122.37-12.685 284.17-3.3436 172.57-18.643 229.51-31.794 291.12-6.1172 28.662 25.66 17.708 49.9-74.308zm78.236-94.987c48.406-77.718 60.983-156.41 81.93-512.6 1.5568-26.475 5.7245-52.743 9.2615-58.376 3.8381-6.1116 7.7685-37.867 9.7485-78.767 4.2689-88.169 23.278-322.33 8.1976-322.33-8.7214 0-18.707 42.613-51.572 93.532l-24.329 37.695c7.5006 233.71 8.4395 249.05-1.0543 250.89-7.0924 1.3757-8.6338-10.468-12.21-93.827-2.2509-52.471-3.7423-104.54-3.3138-115.71 0.8669-22.597-6.1812-38.482-13.494-30.414-2.6998 2.9785-2.6533 52.364 0.1137 120.96 7.4023 183.49-9.1326 507.97-34.089 668.94-10.532 67.931-10.106 80.612 2.7078 80.612 14.606 1e-4 14.108-18.142 28.102-40.609zm-561.74-507.61c-16.291 0-7.4991 97.378-19.916 236.04-4.7185 52.693-4.3395 347.81 15.623 293.85 17.145-46.348 13.644-529.89 4.2922-529.89zm1580.2 347.65c15.77-88.908 20.165-105.09 39.257-144.6 21.738-44.982 61.074-110.28 69.873-115.98 7.4139-4.8074 13.09-35.391 27.164-53.283 14.226-18.085 50.46-89.052 50.53-98.968 0.134-18.825 20.572-90.198 33.248-116.11 9.3455-19.102 11.915-29.317 8.2861-32.946-2.8927-2.8928-26.569-6.4424-52.614-7.8884-35.904-1.9929-52.878-5.4773-70.197-14.409-12.564-6.4795-32.127-13.239-43.474-15.021-27.757-4.3601-63.305-28.857-107.02-49.957-14.371-6.9365-27.101-15.53-28.29-19.097-1.3323-3.9966-9.8372-6.179-22.164-5.6873-18.33 0.731-20.98-0.9006-31.693-19.516-25.229-43.836-100.43-44.073-113.85-65.573-6.2647-10.032-18.985-13.694-18.985-5.4663 0 2.4531-7.0265 7.3706-15.614 10.928-20.331 8.4214-54.64 37.188-78.189 65.558-17.947 21.621-18.29 22.736-8.1511 26.486 5.8212 2.1533 10.584 7.0842 10.584 10.958 0 9.6414-58.896 50.251-69.85 48.163-15.023-2.863-13.718-23.986 2.5649-41.503 8.1354-8.7524 23.096-28.743 33.246-44.423 21.347-32.979 61.736-74.589 78.786-81.168 6.4633-2.4941 21.882-4.5347 34.264-4.5347 24.116 0 25.385-1.7527 17.207-23.781-10.262-27.644-19.285-29.002-43.625-6.5659-21.966 20.247-40.581 25.871-45.261 13.674-3.9594-10.317 13.175-74.522 12.651-107.69-26.761 34.552-38.948 73.938-61.274 92.724-45.171 38.009-62.493 157.56-87.855 178.6-4.6408 3.8516-7.9074 14.595-7.9074 26.007 0 32.426-17.278 57.443-27.854 40.331-8.8035-14.244 60.885-211.14 90.775-256.48 9.2139-13.975 20.848-33.391 25.853-43.147 14.864-28.973 31.834-38.788 36.26-66.467 1.761-11.013 5.139-21.221 7.5065-22.685 8.556-5.2878 24.819 8.3613 24.819 20.83 0 26.661 20.124 7.8257 9.9546-29.005-9.1989-33.316-44.318-98.728-60.165-112.06-13.096-11.02-51.312-76.243-51.312-87.575 0-4.1354-41.83-94.142-55.898-120.28-19.051-35.393-59.539-143.63-62.571-167.27-2.2047-17.189-1.0611-25.26 4.1978-29.625 10.98-9.113 17.825-1.5614 17.825 19.666 0 18.35 21.46 90.07 29.295 97.905 2.0815 2.0814 6.5163 2.0961 9.8551 0.0305 4.6955-2.902 4.5352-16.94-0.7078-61.971-16.51-141.8-63.823-190.2-63.823-211.06 0-9.4807 12.612-8.9479 22.512 0.9509 21.564 21.564 60.29 137.96 64.889 195.04 0.7874 9.7715 3.7159 17.158 6.5078 16.415 3.2278-0.8595 4.5293-36.901 3.5743-98.984-1.5197-98.783-6.6544-132.96-23.616-157.17-4.3326-6.1854-7.8774-14.886-7.8774-19.335 0-4.9454-10.356-12.46-26.65-19.337-65.485-27.64-51.166-44.06-23.472-36.124 18.514 5.3097 84.692 38.949 99.466 50.56 16.069 12.629 101.5 50.624 133.52 73.884 34.302 24.92 113.78 42.884 189.74 42.884 65.698 0 85.338-5.8934 130.09-39.036 55.761-41.299 77.918-65.573 101.28-110.96 22.224-43.174 22.52-44.372 12.69-51.36-30.172-21.446-49.675-32.143-58.607-32.143-8.7274 0-9.9069 3.1969-9.1428 24.782 1.4536 41.069-27.458 80.76-80.487 110.5-30.898 17.328-32.581 17.662-78.68 15.628-68.567-3.0249-121.3-15.205-181.62-41.948-71.312-31.616-42.623-21.306-110.15-57.749-51.472-27.777-62.931-35.009-76.786-43.28-60.024 25.914-208.22 88.135-256.51 133.92-43.776 41.502-71.871 100.24-92.395 193.17-6.0081 27.206-6.2794 44.127-1.5457 96.446 5.9861 66.158 11.919 88.467 20.094 75.558 6.1537-9.7163 2.3233-59.786 10.598-121.94 5.1542-38.712 7.336-44.991 15.632-44.991 13.329 0 7.6934 5.7518 1.0952 109.14-12.533 196.38-16.46 36.172-14.64 634.51 65.781 148.7 166.12 297.3 190.06 319.8 8.9145 8.3757 21.942 24.196 28.95 35.156 21.337 33.37 148.5 165.12 169.91 176.05 16.926 8.6348 22.561 9.3 37.373 4.4116 15.206-5.0186 19.793-4.3035 35.78 5.5771 10.086 6.2334 28.436 20.073 40.778 30.755 65.09 56.335 142.66 68.406 198.35 96.696 9.5792 4.8665 13.164 3.874 23.386-6.4736 12.654-12.81 19.017-41.561 29.107-131.51 10.408-92.787 11.448-69.104 20.758-188.35 5.9504-76.215 5.748-81.052-5.3419-127.72-6.3396-26.68-17.142-59.059-24.006-71.952-13.826-25.971-12.33-36.502 3.9474-27.791 14.204 7.6016 32.558 49.976 42.692 98.562 19.998 95.877-11.4 222.71-15.291 299.68-5.009 99.066-41.71 173.75-20.391 221.03 11.724 25.999 23.864 24.728 28.785-3.0149l3e-4 6e-4zm-388.11-223.65c-7.6777-4.165-13.959-11.141-13.959-15.502 0-6.5686 4.2453-7.3447 24.753-4.5242 21.584 2.9688 28.894 1.3191 57.106-12.889 40.536-20.414 79.217-46.7 72.175-49.047-6.7958-2.2656-66.734 29.415-78.864 35.578-97.956-5.9675-96.959-3.6235-128.57-24.604-15.302-10.156-27.821-20.528-27.821-23.049 0-7.4304 27.569-5.2449 45.278 3.5896 21.66 10.806 64.979 22.149 84.869 22.224 9.4108 0.0356 36.006-10.473 64.96-25.666 82.085-43.076 67.888-12.653 98.567-49.923 22.803-27.702 61.548-94.82 74.272-128.66 6.354-16.9 11.896-24.112 18.528-24.112 16.566 0 10.866 19.728-24.801 85.839-30.358 56.27-40.34 69.62-87.563 117.11-44.676 44.93-60.821 57.486-99.791 77.609-50.3 25.973-57.952 27.523-79.142 16.028v-6e-4zm-135.79-159.71c-6.5905-4.4097-6.2894-6.1057 2.2393-12.612 5.4194-4.135 14.979-7.5178 21.243-7.5178 31.154 0 77.773-33.215 115.39-82.216 44.543-58.017 59.092-78.506 59.118-83.255 0.0151-2.5188 5.554-11.432 12.311-19.808 10.04-12.445 13.5-14.037 18.929-8.7112 5.4597 5.3569 4.0221 11.231-8.0752 32.995-70.932 127.61-182.86 206.75-221.16 181.12zm248.73-59.928c0-12.906 56.04-78.928 58.239-188.63 0.5316-26.523 1.351-51.79 1.8206-56.149 1.0071-9.3494 19.351-30.145 26.591-30.145 9.457 0 11.044 15.587 2.5432 24.98-16.756 18.515-0.9489 84.787-24.44 151.41-7.1366 20.241-10.934 36.802-8.4398 36.802 6.8225 0 34.775-39.778 48.154-68.528 19.474-41.847 14.904-91.37 27.102-91.37 13.006 0 7.2711 70.394-8.2401 101.15-34.584 68.578-99.925 124.74-111.22 124.74-6.6596 0-12.108-1.9192-12.108-4.2649zm378.35 317.72c3.6406-14.676-2.6152-18.716-11.792-7.6143-10.261 12.414-41.684 76.46-41.684 84.96 0 4.7542-4.5146 12.73-10.032 17.723-11.842 10.717-9.1036 17.875 6.8392 17.875 9.6537 0 14.69-7.7126 32.321-49.492-0.2539-0.5078 20.433-47.671 24.348-63.452zm108.96-138.66c0-4.675 6.1803-26.372 13.734-48.216 13.431-38.842 13.526-39.946 4.2893-50.153-10.046-11.101-20.621-13.478-25.419-5.7139-5.2236 8.4519-33.912 88.644-39.169 109.49-2.8167 11.168-8.231 27.157-12.032 35.533-9.5413 21.025-28.71 95.402-45.735 137.06-6.8464 16.751-12.442 32.17-12.434 34.264 0.0354 9.168 9.7825 2.3445 21.753-15.228 1.9288 3.8577 95.012-184.29 95.012-197.03zm-132.84 124.79c29.814-49.907 36.999-67.951 25.262-63.447-9.7881 3.7559-59.937 90.526-59.937 103.71 0 22.377 33.729-40.258 34.676-40.258zm373.35-63.931c-31.712-40.687-66.996-111.72-59.312-119.4 9.2821-9.282 15.682-1.4751 42.341 51.649 15.029 29.948 28.344 50.368 32.844 50.368 11.419 0 9.3082-11.935-10.17-57.495-18.368-42.964-37.881-123.62-38.02-157.15-0.0458-10.568-3.6313-24.635-7.9724-31.26-7.343-11.207-6.8583-14.71 6.9592-50.294 8.1686-21.037 22.032-47.314 30.807-58.394 16.651-21.024 31.04-50.703 31.04-64.025 0-12.877-14.46-8.7588-22.269 6.3418-10.858 20.997-53.002 58.309-81.28 71.96-20.995 10.136-61.105 17.316-112.84 20.2-13.53 0.7537-24.587 65.453-37.218 107.86-5.5266 18.555-5.3302 18.954 23.764 48.266 72.635 73.179 106.76 122.11 105.97 102.66-0.9712-24.106 14.549-12.648 32.5 23.993 21.058 42.984 40.989 72.789 48.705 72.837 3.0573 0.0205 9.6929 4.6033 14.746 10.187 9.2402 10.21 22.842 13.761 22.842 5.9634 0 0.5089 1.1831-2.6698-23.441-34.263zm43.662-94.795c-0.3182-43.744 5.568-271.99-1.4673-276.34-2.7052-1.6721-9.2515 2.4282-14.547 9.1113-29.162 36.803-34.432 71.582-24.536 161.9 6.6771 60.937 22.672 116.75 33.459 116.75 7.5993 0 7.0907-13.122 7.0907-11.421zm-2060.8-153.73c0-51.982-1.3177-63.273-7.3843-63.273-6.7783 0-12.775 20.042-12.149 40.609 1.0305 33.893-18.375 106.22 9.3061 91.41 9.4129-5.0379 10.228-10.514 10.228-68.746zm685.49 25.007c5.0749-13.348 41.552-186.58 51.189-243.1 2.8562-16.751 3.8641-49.873 2.2397-73.604-11.812-172.56 9.3667-304.51-2.5969-316.47-31.13-31.13 2.4087 230.17-28.603 230.17-8.719 0-8.8665-6.0107-1.4503-59.084 5.6586-40.495 2.8699-73.757-5.4284-64.746-27.983 30.388-8.7475 194.68-20.606 295.29-7.5476 64.033-14.046 197.61-18.461 225.75-2.6638 16.983-1.8174 19.035 7.8475 19.035 12.545 0 15.353-13.5 15.869-13.242zm-675.33-127.21c0-6.7793-1.2455-6.9629-8.1821-1.2063-9.2736 7.6963-17.131 25.538-13.765 31.254 8.9139 15.139 21.947-20.153 21.947-30.048zm40.387-65.081c6.4167-29.841 3.7798-42.315-7.046-33.331-8.3475 6.928-16.318 77.213-9.9152 87.434 5.5935 8.9294 7.7331-11.188 16.961-54.103zm1894.2 31.899c37.188-23.789 46.897-45.739 116.75-114.9-1.0292-75.923-2.0551-151.6-3.0839-227.48l-27.096-31.265c-25.468-29.386-56.21-88.564-56.523-108.8-0.1183-7.6653-5.4026-8.8832-38.542-8.8832-54.689 0-30.937-2.8621-84.72-15.747 10.676 182.94 17.144 162.26-3.4653 205.45-33.612 70.429-54.408 46.441-83.042 59.487-11.048 5.0339-11.923 7.8875-9.7228 31.726 1.3296 14.407 6.6234 34.548 11.764 44.758 21.255 42.216 26.859 75.38 48.391 131.18 11.543 29.914 14.949 34.045 36.473 44.242 32.333 15.318 57.807 12.64 92.818-9.7563l-1e-4 -3e-4zm-173.14-30.091c0-9.345-44.119-97.294-55.042-109.72-12.813-14.58-16.364-14.319-59.171 4.3506-19.927 8.6912-51.138 17.384-71.066 19.794-40.923 4.9478-52.91 11.232-65.99 16.453 20.178 8.6704 52.891 22.326 73.604 34.043 51.62 29.2 100.03 46.62 119.29 42.927 17.396-3.336 58.375 0.4904 58.375-7.8433zm-1701.5-99.619c1.1792-20.445-0.1524-26.602-5.7531-26.602-8.2828 0-13.377 15.008-13.478 39.712-0.0548 13.345 1.7867 16.517 8.8138 15.181 6.8657-1.3053 9.2318-7.731 10.418-28.291zm282.39-150.49c-2.2341-8.9016-0.5143-12.426 7.0271-14.398 14.638-3.8279 51.682-88.507 51.682-93.176 0-2.8693 7.1479-11.926 15.884-20.126 18.337-17.211 31.657-45.016 57.719-120.48 18.013-52.159 19.689-71.526 5.1468-59.457-3.6519 3.0308-18.344 25.79-32.649 50.577-48.471 83.986-84.772 105.02-124.01 143.68l28.101 11.486c-22.06 19.964-19.807 21.133-32.344 7.6768-8.9758-9.6345-10.019-14.09-5.8705-25.08 5.9278-15.705 3.6076-25.847-5.9139-25.847-7.8202 0-19.984 32.431-18.68 49.804 1.2384 16.495-12.844 41.566-23.347 41.566-8.7494 0-15.402 8.0005-32.521 39.11-5.4052 9.8225-6.9855 17.483-3.989 19.335 6.1772 3.8179 6.5484 26.27 0.4963 30.01-13.548 8.373-32.85 124.76-23.263 140.28 5.1693 8.3638 13.698-6.0247 74.917-75.454-6.6655 3.3327 69.338-68.73 61.615-99.5zm207.38 159.3c30.033-35.076 96.372-195.97 123.18-298.74 8.9278-34.231 14.78-176.24 7.4493-180.77-7.8184-4.8319-6.2249-20.804 2.8246-28.315 16.004-13.282 30.66-51.786 27.74-72.878-1.5157-10.949-5.4377-20.79-8.7156-21.868s-15.666 15.875-27.527 37.674c-41.115 75.558-59.254 51.014-70.071 103.09-27.755 133.62-39.665 201.18-36.11 204.86 5.5238 5.7089 14.472-11.502 20.04-38.543 28.692-139.35 40.416-192.86 42.773-195.21 5.7277-5.7275 19.491 3.7123 16.558 11.356-1.6365 4.2649-7.5556 34.512-13.154 67.216-16.329 95.399-47.278 208.39-62.514 228.24-2.679 3.4899-8.1991 6.3452-12.267 6.3452-5.6731 0-6.5862-3.8429-3.9199-16.497 4.83-22.922 12.559-21.327 12.559-38.832 0-16.761-9.1967-7.9072-19.076 18.365-35.036 93.172-37.864 104.75-37.215 152.36 0.3513 25.777 2.8246 52.617 5.4965 59.644 5.8717 15.443 19.932 16.545 31.954 2.5046zm-536.83-5.4661c7.9747-25.126-23.004-23.133-23.004-1.4839 0 15.641 18.14 16.812 23.004 1.4839zm389.48-25.422c67.956-71.414 120.51-189.73 120.51-208.34 0-8.2305 3.6187-21.962 8.0417-30.515 20.724-40.076 41.457-175.81 53.316-197.97 6.8923-12.878-1.8345-25.191-11.21-15.816-20.055 20.054-76.699 216.52-98.402 239.33-8.0424 8.4525-17.735 3.4452-17.735-9.1619 0-5.0773-3.0551-11.767-6.7888-14.865-5.1725-4.293-9.2711-2.9303-17.215 5.7236-13.58 14.792-39.414 66.713-46.749 93.952-8.8626 32.915-25.28 30.662-27.982 60.139-0.9936 10.836-4.2569 28.839-7.252 40.007-6.1261 22.843-7.4404 60.007-2.3035 65.144 15.782 15.782 53.771-27.117 53.771-27.625zm-209.44-107.09c0-10.605 47.689-103.6 56.912-110.99 10.951-8.7633 44.062-100.43 44.398-122.91 0.1162-7.7704 5.6264-24.902 12.244-38.071 11.013-21.914 49.401-124.05 71.558-169.5 3.891-7.9821 5.5845-22.745 4.1098-35.829-1.8589-16.494 0.9186-30.819 10.732-55.35 14.164-35.406 16.446-47.57 7.9348-42.31-2.9182 1.8037-20.621 4.7937-39.34 6.6448-32.41 3.2048-34.111 4.033-35.643 17.354-2.3484 20.416 12.849 24.653 25.606 7.14 9.9995-13.727 24.226-18.267 24.226-7.7303 0 3.1812-6.2816 16.352-13.959 29.269-21.791 36.661-30.064 60.783-44.889 64.504-20.575 5.1638-38.358 65.494-84.555 125.79-38.434 50.165-14.371 62.038 26.412 13.032 27.622-33.191 66.126-88.108 66.399-94.702 0.272-6.5858 18.748-26.928 24.457-26.928 18.422 0 0.5605 37.268-51.315 107.07-34.794 46.815-46.004 57.202-75.218 69.698-21.158 9.0497-24.156 12.584-33.645 39.682-52.035 148.58-75.027 263.61-95.116 292.29-7.8707 11.237-10.977 49.958-4.5253 56.41 5.8931 5.8933 9.2476 3.8877 30.422-18.19 3.246 0.5409 72.793-95.095 72.793-106.37zm1444 92.158c-1.6388-2.6519-10.783-4.8215-20.32-4.8215-16.851 0-17.247-0.4644-14.045-16.475 3.1595-15.798 2.9237-16.104-5.7434-7.4363-4.9711 4.9712-22.561 18.221-39.089 29.445-28.448 19.318-30.967 20.075-47.243 14.19-21.579-7.803-50.172-0.8113-52.815 12.915-1.7096 8.8774 1.145 9.22 48.188 5.7815 51.401-3.7571 140.29-18.676 131.07-33.599zm-1576.4-75.887c46.212-124.89 51.675-102.89 99.553-242.43 19.654-57.28 35.762-96.059 42.169-101.52 17.836-15.207 62.554-108.41 59.571-124.16-1.5122-7.9857-5e-3 -15.468 3.5732-17.766 22.468-14.42 37.032-88.648-29.31 35.37-12.009 22.449-23.66 30.093-30.067 19.726-8.3945-13.583 70.482-117.18 74.188-127.94 0.8396-2.4381 7.0103-5.2633 13.713-6.2777 9.0871-1.3756 14.532-7.8169 21.41-25.329 6.053-15.409 7.4171-24.601 3.9676-26.733-4.779-2.9536-31.679 24.333-49.96 50.678-15.793 22.759-32.429 19.258-21.585-4.5419 4.757-10.44 4.5036-12.828-1.361-12.828-16.62 0-11.135-11.429 21.293-44.367 32.571-33.084 68.632-87.612 57.939-87.612-12.009 0-64.748 79.58-78.705 56.999-4.4513-7.2024 105.48-110.33 63.016-87.607-5.4284 2.905-11.274 7.5541-12.99 10.331-3.9843 6.4467-22.826 6.6237-22.826 0.2142 0-2.6588 11.416-16.25 25.368-30.202 28.961-28.961 66.002-102.31 66.002-130.69 0-10.448-14.126-8.1733-17.621 2.837-4.3329 13.652-17.24 23.466-23.123 17.582-7.5706-7.5706 45.244-73.947 37.72-76.59-18.074-6.3497-18.51-10.522-3.4052-32.599 17.772-25.976 31.81-52.438 31.81-59.967 0-2.9304-3.4263-5.3281-7.6142-5.3281-11.848 0-8.9981-12.002 6.3451-26.719 14.483-13.892 17.882-19.878 49.687-87.494 28.143-59.831 51.168-82.334 45.041-44.019-3.8678 24.188 6.5255 36.405 30.969 36.405 22.042 0 26.02-6.8613 10.046-17.328-21.86-14.323-11.564-42.864 2.6279-25.763 7.6151 9.1754 32.986 7.5583 46.467 7.5583-10.126 16.384-33.224 50.111-13.103 57.832 19.03 7.3027 41.769 2.7372 60.498-12.147 10.539-8.3756 22.275-15.228 26.079-15.228 12.616 0 7.1668 14.596-10.802 28.933-12.143 9.689-16.826 16.946-14.885 23.062 4.1219 12.986-16.718 30.905-21.289 53.76-2.6583 13.291-1.0354 16.281 12.688 23.377 19.658 10.166 37.625 6.4341 62.48-12.977 23.682-18.495 28.278-18.388 25.492 0.5947-1.3415 9.1411 0.0254 15.228 3.4173 15.228 10.426 0 5.7853 23.486-7.0181 35.514-15.166 14.248-22.163 10.067-12.71-7.5955 7.0872-13.242 4.5974-21.207-4.8109-15.392-9.0341 5.5834-25.646 41.942-25.646 56.133 0 59.682 76.142 45.7 76.142-0.1315 0-12.507 11.538-32.995 18.581-32.995 17.985 0-5.6313 67.539-35.499 101.52-6.1345 6.9796-15.137 19.93-20.006 28.779-8.069 14.665-8.1424 16.799-0.83 24.112 12.61 12.61 44.521 10.216 62.209-4.6677 17.03-14.33 31.382-16.551 31.382-4.8574 0 12.417 65.487-48.442 75.434-48.442 8.2103 0 7.4227-3.0099-7.415-28.328-34.83-59.435-14.16-193.61-75.655-229.89-20.454-12.068-22.224-22.835-7.9339-48.276 32.661-58.149 10.562-166.48 30.23-205.12 11.415-22.429 34.116-111.14 41.193-160.96 14.445-101.72 30.47-159.46 9.8133-259.11-10.953-52.842-18.533-65.193-43.918-71.564-18.128-4.5498-52.045 11.73-59.02 9.436-8.714-2.8662-90.828 56.563-126.93 91.861-44.668 43.679-114.99 124.37-114.99 131.95 0 2.9734-4.2669 10.122-9.4821 15.886-55.98 61.868-84.316 201.5-99.239 212.78-10.967 8.2916-25.014 70.341-34.16 104.8-45 169.56-39.245 115.45-85.018 258.88-56.151 175.95-53.887 130.35-94.63 260.28-38.042 121.32-68.908 205.29-109.08 359-9.7573 37.337-26.468 77.424-24.376 93.385 2.1546 16.438-10.396 20.225-13.679 44.398-7.8902 58.112-8.539 70.337-3.7321 70.337 7.5547 0 15.291-23.113 21.239-63.451 7.892-53.523 25.698-82.962 27.25-119.79 0.9227-21.897 2.381-24.878 12.17-24.88 22.101-0.0037 21.288 7.5757-11.931 111.34-25.793 80.568-13.592 75.952-21.506 84.342-12.588 13.345-39.876 274.02-40.701 281.47-7.5042 67.823-7.182 77.225 2.5777 75.245 9.4398-1.9152 36.459-79.577 37.203-80.321zm71.413-334.99c34.987-27.71 49.805-93.421 62.994-88.36 26.046 9.9946-38.003 113.7-70.22 113.7-7.1671 0-13.031-2.0924-13.031-4.6497-0.7258 1e-4 2.9804-7.0103 20.258-20.694zm573.65-538.76c0-3.1515 7.6721-14.222 17.049-24.601 29.4-32.542 33.873-81.344 49.721-81.344 26.494 0-33.563 110.84-60.425 111.51-7.2501 0.1836-6.3452-7.5717-6.3452-5.5692zm-5.0761-123.71c3.1363-1.9384 7.8416-9.1504 10.456-16.027 7.1123-18.707 15.355-9.8619 9.127 9.7939-10.868 34.302-24.775 51.36-32.147 39.432-3.0654-0.7662 2.5903-27.035 12.564-33.199zm-63.339-73.604c3.6525 0 13.109-6.8528 21.014-15.228 12.939-13.709 27.096-20.086 27.096-12.205 0 4.3855-21.411 34.387-27.674 38.777-2.9263 2.0511-11.531 3.7643-19.121 3.807-10.198 0.0575-13.037-1.9097-10.878-7.5364-1e-4 0.5105 2.7979-7.6141 9.5626-7.6141zm-123.21-171.93c-21.565-20.014-22.064-41.834-1.5231-66.612 20.705-24.976 23.14-10.736 16.413-4.0088-9.5955 9.5954-7.4382 46.792 3.276 56.489 10.94 9.9006 41.26 10.972 65.226 2.3063 12.328-4.4577 18.365-4.5846 22.477-0.4725 10.262 10.262-19.329 23.929-55.975 25.854-31.256 1.6419-34.454 0.7729-49.894-13.556h-3e-4zm50.622-115.16c-21.07-14.758-9.4216-47.317 8.7518-25.419 3.3265 4.0084 12.743 8.7584 20.926 10.556 16.027 3.5201 19.907 14.673 6.8483 19.684-24.956 9.5764-36.526-7.2512-36.526-4.8207zm14.251-39.201c-18.323-9.2716-35.685-37.804-35.685-58.644 0-30.557 25.767-121.28 40.203-141.55 11.624-16.322 21.71-14.956 17.567 2.3786-1.8354 7.6776-5.4178 18.017-7.9615 22.977-7.1631 13.968-24.195 95.387-24.318 116.25-0.0905 15.358 3.1608 21.362 18.347 33.88 12.202 10.058 17.417 17.924 15.388 23.212-3.6813 9.5934-7.1197 9.8132-23.54 1.5044h2e-4zm880.52 1444.3c18.147-39.533 22.454-71.376 50.797-190.68 8.0776-34.001 10.406-84.936 3.512-76.832-2.2563 2.6522-12.82 25.38-23.476 50.507-25.245 59.529-33.758 61.49-64.943 109.38-16.968 26.058-47.542 57.006-75.34 76.258-17.736 12.284-8.7814 18.993 19.204 14.389 38.191-6.2827 70.651-5.3496 76.926 2.2107 8.5735 10.331 1.7415 13.485-29.368 13.562-33.916 0.0828-52.246 4.3594-49.825 11.624 2.3597 7.0793 37.133 17.566 60.451 18.231 17.936 0.5115 19.186-0.6057 32.062-28.656zm58.896 7.6142c18.765-10.578 20.63-10.781 25.251-2.749 6.5496 11.384 17.677 6.6838 24.398-10.306 11.21-28.334 13.455-84.996 10.194-257.25-2.6241-138.6-5.0607-182.69-11.081-200.51-10.718-31.723-17.429-91.977-26.585-116.75-9.6127-26.009-9.168-109.48-20.258-141.2-8.085-23.121-6.6005-31.388 5.6361-31.388 10.672 0 15.847 17.154 27.205 90.182 16.53 106.28 33.659 164.72 45.792 270.22 6.2943 54.728 4.9017 342.77-1.7241 356.6-6.1732 12.882 10.182 11.748 18.312-1.269 3.4871-5.5837 9.217-10.152 12.733-10.152 10.094 0 7.4453 14.308-3.759 20.304-5.5837 2.9885-10.152 9.0039-10.152 13.367 0 6.8528 2.0316 6.6477 14.909-1.5059 21.864-13.843 66.438-53.544 72.287-64.385 7.665-14.206 39.853-109.46 44.823-132.65 6.1201-28.552 15.557-63.76 31.263-129.55 25.255-105.79 32.026-39.173 37.616-168.79 2.8519-66.124 1.8236-85.535-7.059-133.24-5.7184-30.71-16.445-72.969-23.838-93.908-26.147-74.062-42.554-149.78-34.253-158.08 10.198-10.198 14.626-0.0514 26.898 61.642 13.564 68.184 17.232 77.721 25.379 65.985 3.1643-4.5586 4.6921-32.059 3.8071-68.528-1.397-57.565-0.9329-60.914 8.4451-60.914 14.688 0 16.699 15.598 13.91 107.88-3.5602 117.79 7.5215 134.45 47.232 206.84 1.3022-24.822 4.2346-52.654-4.2605-87.167-10.766-43.739-37.487-167.92-10.826-131.71 9.7699 13.272 15.798 61.071 22.488 77.29 7.423 17.995 16.189 123.54 14.5 174.58-1.5087 45.584-2.2213 48.312-13.017 49.845-17.548 2.4922-14.288 16.144 3.8562 16.144 10.54 0 26.673-8.4702 52.03-27.318 40.894-30.397 51.864-41.461 72.31-72.935 13.544-20.848 32.97-29.519 32.97-14.716 0 8.3447-43.995 66.732-64.126 85.104-17.96 16.391-68.407 50.096-75.399 50.376-13.11 0.5259-37.405 28.714-40.917 47.474-3.693 19.725-3.6735 19.755 10.689 16.15 36.783-9.2321 149.88-103.35 190.88-158.86 21.346-28.894 38.675-40.414 52.7-35.031 7.876 3.0223 7.8419 4.2594-0.4735 17.165-13.767 21.366-145.2 163.65-149.99 163.65-2.3281 0-11.736 6.4292-20.907 14.287-24.973 21.398-67.483 41.551-87.646 41.551-14.338 0-17.86 1.9567-17.86 9.9222 0 7.2726 4.6265 10.79 17.325 13.172 21.546 4.0419 33.065 0.6545 71.507-21.027 37.926-21.391 46.91-29.284 65.914-57.917 51.83-78.091 206.75-176.46 211.96-224.01 1.7357-15.864 7.5287-10.45-143.75-24.158l-30.033-25.095c-59.942-50.086-65.827-15.502-99.274-61.079-9.4905-12.932-17.312-26.26-17.381-29.617-0.1707-8.2788-37.645-79.217-58.724-111.16-23.757-36.005-35.805-46.362-70.843-60.901-71.624-29.72-88.832-32.444-88.832-14.06 0 10.736-20.599 43.746-25.94 52.86 34.671 44.077 7.2948 5.5027 49.08 215.51 9.5437 47.967 8.3831 81.213-2.8352 81.213-11.216 0-11.733-46.546-24.958-126.9-18.09-109.92-24.584-145.14-27.248-147.81-4.1262-4.1262-44.034 29.522-44.149 37.224-0.0508 3.3927 6.7612 13.973 15.137 23.513 22.649 25.796 19.269 59.151-5.9946 59.151-5.7239 0-10.182-5.1208-12.151-13.959-4.1732-18.726-16.502-45.808-22.556-49.55-2.6937-1.6648-14.126 4.3888-25.404 13.452-17.364 13.955-19.236 17.191-12.213 21.121 9.1143 5.1006 29.264 47.408 34.908 73.294 1.9712 9.0415 5.6926 17.742 8.2697 19.335 7.7416 4.7844 5.28 26.363-3.3866 29.689-12.227 4.6918-16.01 0.1173-21.649-26.174-4.8904-22.803-34.652-92.588-39.487-92.588-1.2439 0-10.917 4.4158-21.496 9.8126-29.216 14.905-14.832 12.516-39.692 139.93-5.575 28.574-6.9841 53.995-4.7549 85.776 2.0941 29.854 1.2766 47.446-2.4109 51.89-9.3098 11.218 8.4249 198.75 3.5332 203.64-1.4232 1.4235-5.8694 1.3287-9.8801-0.2103-11.523-4.4218-15.701-56.222-14.615-181.2 0.9589-110.33 3.8157-140.41 23.377-246.12 7.7837-42.065 5.8392-49.368-11.908-44.727-6.0012 1.5695-10.62 10.823-14.257 28.566-23.556 114.91-24.009 139.99-30.79 146.77-7.517 7.517-16.018-0.2253-16.018-14.588 0-17.147 14.348-95.333 22.702-123.71 3.6989-12.564 5.2435-24.34 3.4326-26.17-4.8309-4.8826-46.358-8.3101-150.06-32.757-12.81-3.0198-14.323-2.2672-11.295 5.6215 7.5031 19.553 13.199 78.977 13.295 138.7 0.0914 56.868-0.707 62.4-8.7827 60.858-7.7957-1.4891-9.3174-11.011-12.43-77.783-4.9615-106.43-7.2456-119.23-21.276-119.23-10.499 0-17.361 20.399-20.21 60.082-3.5567 49.542-9.6637 33.933-18.065 94.74-9.9043 71.686-15.582 51.858-15.582 111.37 0 32.564-1.7238 43.027-7.4515 45.224-4.0985 1.5726-8.5263 1.1207-9.8397-1.0045-4.7479-7.6821 1.2347-145.81 6.9521-160.52 4.8495-12.473 4.4951-16.077-2.0516-20.864-4.3525-3.1826-7.9136-12.187-7.9136-20.009 0-20.264 16.196-69.892 25.032-76.705 10.916-8.4163 11.903-69.587 17.964-84.136 2.7281-6.5487 0.3964-9.4777-9.5283-11.969-23.946-6.0103-28.392-0.472-28.392 35.373 0 46.161-21.868 130.69-30.72 218.77-12.434 123.72-36.108 69.748-12.974 133.33 70.762 194.5 48.184 110.59 97.692 206.77 45.621 88.624 56.341 64.204 45.533 109.48-3.6195 15.164-10.362 36.415-14.984 47.226-10.997 25.72-11.312 37.3-0.777 28.557 10.395-8.6274 34.682-3.0815 55.268 12.621 9.2087 7.0237 20.518 12.77 25.132 12.77 12.721 0 46.097-32.543 80.266-78.262 26.836-35.908 86.952-149.6 98.187-185.7 7.4712-24.002 22.858-27.27 22.858-55.552 0-19.292 11.53-41.209 18.181-34.558 4.6735 4.6736-6.218 138.09-16.058 196.71-26.2 156.07-49.414 165.37-29.498 161.68 15.663-2.9033 34.534-60.118 48.949-60.142 10.459-0.0151 10.746 6.798 2.0298 48.209-6.3866 30.343-6.4731 30.45-23.194 28.786-12.87-1.281-20.302 1.678-31.876 12.69-8.301 7.8984-17.261 18.358-19.911 23.244-7.0537 13.006 11.315 11.733 36.632-2.5381l6e-4 -4e-4zm283.78-113.76c6.441-6.1361 7.3519-25.402 5.9117-125.04-0.9365-64.784-2.6877-118.78-3.8917-119.99-6.1605-6.1901-13.701 12.602-17.494 43.598-19.7 160.98-59.659 174.34-27.673 174.34 14.506 0 15.169 2.6495 5.0762 20.304-3.9899 6.9796-7.3353 14.507-7.4343 16.727-0.2811 6.3065 37.001-1.8326 45.505-9.9346h-1e-4zm-1239.8-322.42c4.4658-5.2689 5.8727-12.767 3.6875-19.652-3.1586-9.9518-5.9433-10.802-26.259-8.0175-29.975 4.1084-32.572 6.1992-26.745 21.526 7.1581 18.827-17.908 121.19-43.097 176-11.901 25.895-11.96 50.57-0.1103 46.022 13.506-5.1828 67.112-185.9 92.524-215.88zm-531.76 173.07c0-12.371-11.862-10.622-14.331 2.1127-2.1532 11.1 14.331 12.31 14.331-2.1127zm427.66-143.58c28.846-42.774 36.808-68.961 23.472-77.203-3.7321-2.3065-4.8156-14.741-3.1227-35.832 1.4261-17.765 1.9469-32.3 1.1575-32.3-4.0544 0-40.054 25.226-56.253 25.319-17.206 0.099-37.148 30.65-50.128 76.798-17.373 61.762-61.688 172.21-44.99 188.91 29.688 29.688 100.67-102.4 129.86-145.69zm-82.487 2.1426c0-8.4657 46.165-98.738 52.666-102.98 8.9077-5.8186 18.42-4.5326 18.2 2.4603-0.3969 12.644-54.391 102.83-62.522 104.43-4.5896 0.9028-8.345-0.8561-8.345-3.9085zm350.71 17.549c-2.5024-46.52-4.4038-56.052-11.45-57.395-12.565-2.3954-15.675 14.664-9.1921 50.415 9.4597 52.166-5.7585 58.943 8.2955 72.997 8.2065 8.2068 8.8792 8.1636 12.02-0.77 3.5015-9.9579-0.1825-65.756 0.3266-65.247zm1238.1 40.556c0-9.6085-5.51-9.6578-18.065-0.1615-9.4379 7.1387-9.2649 7.4596 4.106 7.6143 9.0958 0.105 13.959-2.4914 13.959-7.4528zm-1342.1-113.02c10.21-6.8171 17.149-24.65 11.709-30.089-3.3795-3.3795 0.6153-9.4111 11.968-18.07 25.649-19.563 49.417-67.71 49.417-100.1 0-29.235-9.1295-33.361-16.383-7.4044-7.9033 28.281-26.743 60.564-36.388 62.352-7.1832 1.3315-8.807-0.3446-6.4034-6.6088 8.4123-21.922-21.255 17.406-54.144 71.776-2.1192 3.5033 2.2316 11.494 10.365 19.035 22.848 21.186 26.49 9.1126 29.859 9.1126zm-63.282-46.229c73.09-84.076 72.788-129.62 93.159-124.65 8.745 2.1317 11.907-2.4854 21.869-31.93 19.857-58.69 19.353-54.187 5.653-50.521-44.794 11.986-31.32-19.677-73.972 65.591-34.354 68.679-58.759 105.33-70.136 105.33-9.8814 0-4.5761-13.732 22.221-57.514 32.525-53.14 56.788-104.06 51.222-107.5-7.7273-4.7756-14.619 1.6061-22.75 21.065-4.0887 9.7858-16.657 28.27-27.93 41.077-29.44 33.445-51.427 79.439-54.595 114.2-3.0576 33.556 2.8854 44.507 24.154 44.507 17.672 1e-4 29.825-19.656 31.104-19.656zm-106.57-55.845c12.966-8.2229 43.897-39.784 70.891-72.335 69.841-84.22 64.405-75.204 51.599-85.574-6.0428-4.8932-15.908-18.337-21.921-29.875-9.9276-19.046-12.729-20.978-30.427-20.978-10.721 0-20.946-2.3527-22.723-5.2279-1.7771-2.8752-3.4173-18.294-3.6451-34.264-0.4468-31.336-12.361-51.878-30.09-51.878-9.9508 0-41.721 58.321-67.748 124.36-14.725 37.365-21.139 48.223-28.486 48.223-8.1715 0-4.6365-12.929 20.598-75.332 33.087-81.821 50.903-116.27 64.858-125.41 12.161-7.9679 31.915-42.256 31.915-55.395 0-27.807-48.619 15.131-78.266 69.121-33.634 61.252-74.67 196.84-63.606 210.18 8.4371 10.166 45.053 9.1553 61.509-1.6978 14.432-9.5178 45.557-43.761 64.49-70.949 16.839-24.181 32.229-25.398-0.2097 22.488-7.9054 11.67-14.374 24.451-14.374 28.401 0 3.9498-4.1798 10.964-9.2881 15.588-11.646 10.54-39.478 66.415-43.948 88.231-13.395 65.368 48.364 22.328 48.872 22.328zm-15.939-29.919c0-12.789 16.922-28.524 43.559-85.584 23.338-49.991 42.652-77.781 54.156-77.922 12.389-0.1511 11.074 11.735-3.1754 28.69-23.806 28.326-67.178 143.79-89.661 143.79-2.6831 0-4.8784-4.0382-4.8784-8.974h2e-4zm701.67-143.69c2.1823-9.5629 5.4169-45.965 7.1882-80.894 3.4202-67.444 1.9237-72.91-21.047-76.872-13.578-2.3424-8.0354-5.0687-4.3865 106.45 1.7156 52.439 4.0341 72.117 8.3277 70.686 5.1627-1.7208 10.554-20.006 9.9177-19.37zm-432.82-4.3629c7.4825-13.981 6.7572-15.562-7.1361-15.562-13.986 0-20.33 7.0813-16.137 18.01 4.0258 10.491 17.083 9.1184 23.273-2.4474zm-50.959-14.939c18.761-5.2428 18.113-14.236-1.4927-20.707-9.6928-3.199-20.37-9.1259-23.727-13.171-9.4294-11.362-24.423-8.7516-37.939 6.6047-13.736 15.607-15.711 24.551-6.2621 28.364 9.1196 3.6798 54.923 2.9598 69.42-1.0912h4e-4zm46.124-51.384c-18.124 0-35.596-9.8776-35.596-20.124 0-6.4246 14.521-10.508 17.903-5.0349 4.9618 8.0286 46.532 5.6831 55.338-3.1223 12.008-12.008 9.7845-16.605-9.8099-20.281-11.897-2.2318-23.497-0.6271-35.031 4.8461-35.31 16.756-63.933-3.9343-63.933 30.942 0 12.268 31.593 27.826 56.691 27.916 53.523 0.1876 42.955-15.143 14.438-15.143zm-105.39-30.743c-7.6777-2.811-18.684-10.837-24.458-17.836-12.171-14.753-27.573-12.231-27.573 4.5148 0 5.8782-6.2144 15.643-13.81 21.699-11.914 9.4994-12.874 12.14-6.9927 19.226 9.8037 11.813 49.58 10.748 70.295-1.8821 1e-4 -2.1007 33.386-14.428 2.5381-25.722zm637.7 5.3623c-8.9658 0-9.7211 1.2683-4.5009 7.5582 11.81 14.23 25.678-7.5582 4.5009-7.5582zm1397.3-78.559c-17.946-19.365-24.349-23.242-34.264-20.754-12.793 3.2108-17.175 18.095-5.3274 18.095 11.798 0 61.812 65.331 70.186 56.958 10.428-10.428-20.317-43.21-30.594-54.299zm-2010.9 28.098c0-29.083-5.6759-34.857-23.066-23.463-22.311 14.618-14.35 48.544 11.391 48.544 10.607 0 11.675-2.2937 11.675-25.081h3e-4zm2155.1 18.598c4.032-10.508-21.186-66.926-30.782-68.865-15.329-3.0977-18.108 6.3359-9.571 32.484 10.798 33.071 33.7 53.719 40.353 36.381zm-2087-1.6738c11.201-4.2983 10.026-11.671-3.922-24.597-6.5732-6.092-13.618-19.961-15.656-30.821-3.3857-18.047-2.3317-20.865 12.256-32.771 16.643-13.583 15.979-20.387-1.9928-20.43-5.8163-0.0151-17.428-5.5073-25.804-12.208-13.614-10.892-15.191-15.058-14.877-39.315 0.193-14.923 2.1728-32.272 4.3992-38.553 3.7395-10.552 2.578-11.421-15.252-11.421-19.584 0-42.797-15.329-42.797-28.26 0-11.487-15.046-12.119-25.344-1.0659-12.339 13.244-19.048 54.707 13.048 54.707 15.81 0 25.623 12.902 17.373 22.842-5.8188 7.0112-3.5381 9.8359 6.5725 8.1395 2.219-0.3721 7.6043 7.9231 11.968 18.434 8.4386 20.329 17.032 27.713 37.009 31.802 15.85 3.2437 15.821 11.471-0.0598 16.943-21.374 7.3651-39.632-3.8872-52.005-32.049-6.1044-13.895-12.631-25.318-14.503-25.384-8.5421-0.3005-9.4592 30.526-1.3821 46.464 14.584 28.779 22.342 34.634 45.882 34.634 21.354 0 32.62 6.3462 22.438 12.639-8.9926 5.5577-6.1481 42.118 3.7244 47.868 11.175 6.509 30.683 6.5227 38.925 2.4015zm2026.7-5.802c-23.562-73.283-34.586-97.715-44.092-97.715-22.978 0 15.294 66.588 25.054 92.639 5.7716 15.406 23.914 20.243 19.037 5.0762zm-2176.2-8.7818c17.417-9.0068 35.729-31.12 35.729-43.146 0-4.7744-3.9973-12.287-8.8832-16.694-7.7446-6.9863-10.146-7.0872-18.736-0.7869-5.4194 3.9747-14.089 7.2268-19.266 7.2268-13.246 0-34.332 22.617-34.332 36.825 1e-4 23.47 18.864 30.344 45.489 16.576zm229.49-5.9642c28.455-25.752-21.174-9.697-21.174 1.2834 0 15.013 21.174 0.5279 21.174-1.2834zm1806.8-19.868c-9.2368 5.7086-6.9011 24.182 2.8188 22.296 21.074-4.0869 5.4344-27.397-2.8188-22.296zm-1052.7-25.282c40.097-19.981 77.693-73.047 75.637-106.76-0.9352-15.335-24.695-40.986-46.343-50.031-38-15.877-34.096-10.906-30.431 45.369-35.108 0-40.382 1.6038-42.263-11.669-2.5935-18.292 31.776-71.527 28.412-72.475-0.7576-0.2137-20.473-1.149-43.813-2.0789-31.19-1.2426-52.564-5.5119-80.651-16.109-34.264-12.927-41.948-18.519-74.315-54.07-43.532-47.815-52.184-62.021-40.501-66.504 13.736-5.2706 74.368 73.16 83.818 73.16 2.4479 0 14.134 4.2701 25.969 9.4891 44.531 19.638 60.884 22.456 93.011 16.032 28.048-5.6088 32.613-8.675 69.19-46.481 32.347-33.433 43.712-49.925 65.319-94.783 40.695-84.487 23.392-82.108 39.924-142.52 4.0763-14.895 4.3981-23.902 0.9763-27.324-8.2966-8.2966-21.076-0.1487-19.717 12.57 0.9719 9.0902-1.2255 11.514-10.182 11.229-54.8-1.7396-55.873-1.9857-58.886-13.509-2.2716-8.6871-4.3579-9.9396-8.9337-5.3638-3.7228 3.7228-6.4884 28.434-7.3475 65.653-1.6118 69.827-3.6111 72.885-47.63 72.846-22.285-0.0203-31.419-2.6161-43.446-12.349-12.758-10.325-14.291-13.82-9.4497-21.548 7.0461-11.248 5.4354-9.9434 77.977-0.8799l0.0203-39.705c0.0267-56.887 14.98-121.54 15.12-147.39 0.0614-11.266 3.3529-18.066 10.631-21.961 11.023-5.8992 74.948-4.2874 94.087 2.3723 7.7992 2.7137 11.644 1.3251 14.108-5.0948 5.8894-15.348-77.628-85.676-94.39-117.64-10.849-20.686-24.804-21.326-33.563-1.5376-12.181 27.517-89.758 66.268-132.66 66.268-15.156 0-33.721 16.4-28.368 25.061 1.8341 2.9678 15.192 5.5202 29.685 5.672 37.049 0.3884 70.619 14.158 76.705 31.465 6.9432 19.743 0.5389 22.573-26.525 11.72-28.369-11.377-97.034-16.291-112.44-8.0479-37.463 20.049 45.817 11.323 75.672 8.8333l20.808 20.808c25.975 25.975 26.363 43.228 1.0265 45.672-12.588 1.2141-17.217 4.5217-19.597 14.004-3.7063 14.767-23.185 21.233-39.169 13.002-17.079-8.7946-58.954-42.236-65.446-40.073-5.8899 1.9633-28.858 68.54-29.142 84.474-0.1447 8.1145-12.129 23.786-36.492 47.718-31.398 30.842-35.494 36.888-30.457 44.955 7.1552 11.457 7.5059 26.046 0.7877 32.764-3.3259 3.3259-2.4952 17.011 2.4499 40.355 9.8644 46.567 9.5481 61.237-2.0471 94.939-15.25 44.323-41.331 80.303-77.79 107.31-10.872 8.0535-17.904 16.338-15.628 18.409 5.9654 5.4287 100.42 43.932 118.35 55.657 21.891 14.312 82.67 39.968 109.14 46.067 43.866 10.109 44.803 13.816 104.33 14.452 42.418 0.4532 51.75-1.1038 74.468-12.424l-1e-4 4e-4zm-87.94-67.084c-16.358-10.922-23.831-51.952-9.4628-51.952 6.8816 0 27.738 38.484 27.738 51.182 0 5.5563-10.448 5.9967-18.276 0.7704h1e-4zm3.3011-269.9c-10.123-12.782-20.781-20.557-29.571-21.574-15.739-1.8204-20.876-15.573-9.9131-26.536 11.308-11.308 93.51-1.798 102.68 2.1165 5.5837 2.3832 18.857 5.7692 29.497 7.5244 17.308 2.8555 19.179 4.6096 17.766 16.663-1.2958 11.06-5.0148 14.181-20.777 17.433-29.165 6.0174-33.12 24.356-57.473 24.356-22.961 1e-4 -29.866-19.984-32.21-19.984zm-989.47 295.98c41.664-36.776 45.097-45.384 30.561-76.624-20.553-44.169-7.4428-113.73 22.868-121.34 12.809-3.2148 29.207-24.934 24.534-32.494-5.1402-8.3174-35.85-5.5715-44.183 3.9504-30.11 34.407-67.382 116.51-82.515 181.76-18.684 80.565-5.5297 92.642 48.736 44.743zm93.41-2.6577c-23.474-27.899-8.4374-43.126-0.1311-29.687 5.0417 8.1576 11.892 5.901 18.271-6.0193 5.153-9.6285 4.0896-12.685-8.0426-23.121-8.8231-7.5892-18.907-11.455-27.333-10.478-11.666 1.3521-13.159 3.573-11.821 17.583 0.8424 8.8195-0.8706 17.52-3.8071 19.335-15.695 9.7 3.7098 44.448 27.656 49.524 29.493 6.2509 4.084-16.575 5.2075-17.137zm1261.3-98.21c16.752-3.6794 51.264-39.749 66.457-69.456 5.2573-10.28 11.933-20.158 14.834-21.951 6.9078-4.2693 40.555-71.174 40.555-80.641 0-13.64 15.509-27.869 39.594-104.6 50.203-159.94 65.633-204.67 83.08-240.85 21.269-44.097 23.363-53.568 11.843-53.568-8.807 0-9.687-9.1152-2.6637-27.588 6.2762-16.508 13.345-16.642 17.438-0.3305 1.7518 6.9797 5.1547 12.69 7.562 12.69 5.1743 0 27.751-29.14 32.446-41.878 1.8008-4.8858 5.4263-8.8832 8.0568-8.8832 2.6306 0 9.8196-10.405 15.976-23.122 10.82-22.35 10.88-23.351 1.821-29.975-8.9526-6.5463-8.9825-7.67-0.6702-25.101 10.179-21.346 19.018-23.756 19.018-5.1856 0 9.3998 2.3394 12.602 8.3428 11.421 8.6411-1.6999 47.494-89.335 47.494-107.13 0-5.1675 2.0515-13.243 4.559-17.945 5.7826-10.844 10.652-119.11 11.945-142.57l-15.476-15.476c-17.299-17.299-42.532-20.834-56.766-7.9517-4.5728 4.1382-17.703 12.704-29.179 19.035-49.726 27.435-175.54 152.27-196.98 195.46-19.492 39.254-18.48 21.989-39.104 57.166-25.684 43.809-102.93 119.36-111.76 144.19-5.5677 15.662-59.62 52.474-59.62 61.074 0 3.1782 15.609 29.677 34.686 58.886 47.401 72.574 46.531 70.444 46.531 113.97 0 32.783-2.3246 43.375-15.228 69.382-10.42 21.002-15.228 38.242-15.228 54.599 0 41.732-28.593 83.108-65.106 94.216-6.494 1.9755-24.768 17.158-40.609 33.74-24.113 25.24-34.547 32.073-64.098 41.973-19.413 6.504-35.983 13.885-36.822 16.403-2.0035 6.0107 43.699 25.569 79.733 45.003 46.317 24.98 89.171 42.584 101.37 41.64 22.01-1.7037 29.928-40.931 55.974-46.651zm-7.5953-91.374c31.26 0 36.774 3.6111 28.059-38.965-8.3884-40.976-8.3739-41.736 0.8356-43.643 13.341-2.7634 25.508 26.376 26.275 62.93 0.6074 28.917-0.7452 33.323-14.915 48.582-8.5707 9.2294-19.474 23.062-24.229 30.74-23.551 38.026-17.948-12.201-16.026-59.644zm61.41-85.487c-6.75-22.429-6.6124-23.649 2.6637-23.649 5.7626 0 11.764 5.2139 14.606 12.69 2.6536 6.9797 7.1656 12.69 10.027 12.69 9.126 0 5.5861-31.175-5.5941-49.265-11.41-18.462-7.5259-31.098 7.7562-25.234 22.771 8.738 29.99 88.9 7.4756 83.013-5.2316-1.3681-9.8356 0.1539-10.231 3.3824-3.6848 30.08-1.1487 43.941-11.972 43.941-11.909 0-2.9177-18.315-14.732-57.569zm57.423-70.603c-11.307-21.928-29.869-31.35-21.308-39.911 9.3323-9.3323 27.375 0.6123 35.233 19.42 11.464 27.438-0.9349 45.685-13.925 20.492h1e-4zm15.957-59.11c-12.996-25.475-13.066-30.991-0.3899-30.991 12.508 0 26.835 21.014 24.62 36.111-4.604 31.378-25.4-5.1197-24.23-5.1197zm20.39-66.977c-12.783-24.525-12.766-23.154-0.3198-26.408 18.637-4.8737 35.911 36.948 18.086 43.788-4.7598 1.8265-10.872-4.153-17.766-17.38h-1e-4zm23.506-63.669c-5.4922-5.4921-4.2087-31.324 1.7389-35 8.8179-5.4497 20.695 8.5654 19.07 22.502-1.4718 12.619-13.477 19.829-20.809 12.498zm37.05-87.316c0-13.295 4.959-16.494 16.224-10.466 7.8228 4.1867 8.5907 6.7238 3.7871 12.512-8.4752 10.212-20.011 9.0326-20.011-2.046zm-1475.6 497.59c10.287-32.952 7.7177-46.666-8.7419-46.666-21.928 0-36.936 53.126-20.224 71.593 12.072 13.339 18.839 7.5151 28.966-24.926zm55.174-59.357c7.4001-16.327 7.3831-17.771-0.2116-17.822-4.5454-0.0305-16.83-1.4717-27.3-3.2023-17.395-2.8752-19.035-2.1394-19.035 8.5394 0 15.113 13.835 30.252 27.648 30.252 7.4776 0 13.347-5.5178 18.899-17.766v1e-4zm557.96-32.86-17.314 8.5072c11.221 2.8162 27.797 4.9244 26.721 15.64-2.0804 20.721 5.9679 22.581 14.708 3.3987 2.3657 0 19.325-48.889-24.114-27.546zm-71.518 7.5488c0 16.672 12.268 27.852 30.409 27.712l17.814-0.1376c-21.285-19.79-48.223-48.081-48.223-27.575zm471.06 16.682c-4.7375 4.7377-3.384 6.0913 6.0914 6.0913s10.829-1.3536 6.0914-6.0913c-1.1688 0-4.3207-7.8621-12.183 0zm65.59-7.6969c1.5414-4.0169-1.0188-11.124-5.6892-15.793-7.4607-7.4587-9.0765-7.5649-13.307-0.8754-2.6482 4.1878-4.8499 12.54-4.8926 18.56-0.0609 8.6088 2.1818 10.355 10.504 8.1788 8.3118-2.1735 13.384-8.7691 13.384-10.071zm-1148.5-31.645c9.8734-19.093 9.7442-20.557-1.8156-20.557-8.8215 0-15.569 12.503-15.751 29.188-0.1249 11.453 9.6692 6.6412 17.567-8.6311h-3e-4zm1179.3 8.8849c6.4622-6.4621 7.9114-29.754 2.9923-48.093-2.8423-10.597-3.5474-10.37-17.658 5.7012-13.221 15.057-14.141 18.334-9.1639 32.611 5.8229 16.704 13.681 19.929 23.829 9.7809zm-486.29-40.38c0-30.922-0.1046-31.149-10.152-22.056-15.946 14.431-11.504 53.299 6.0914 53.299 2.2334 0 4.0608-14.06 4.0608-31.243zm-65.923-7.3101c6.6157-65.687 86.697-100.19 71.524-115.15-14.399-14.2-18.701 36.362-73.006 52.396-25.838 7.629-28.424 11.824-15.854 25.714 9.5064 10.504 5.5678 19.755-8.411 19.755-11.609 0-13.127 7.8095-2.3241 11.955 10.864 4.1689 3.7942 18.014-11.109 21.755-18.021 4.5229-4.1277 12.472 18.809 10.762 17.418-1.299 17.817-1.8314 20.371-27.188zm100.29 7.1451c-3.1374-9.4122-14.065-10.973-14.065-2.0092 0 10.952 16.636 9.722 14.065 2.0092zm539.23-51.207c0-22.473-14.25-53.668-32.7-71.586-9.9335-9.6467-18.061-19.879-18.061-22.739 0-10.825 9.2148-10.112 25.609 1.9838 20.15 14.866 25.152 15.574 25.152 3.5571 0-7.9249-37.408-36.991-57.56-44.724-8.089-3.104-13.33 11.582-13.437 37.651-0.0524 12.809 5.5183 23.497 22.773 43.694 40.641 47.571 22.276 64.006-8.6656 99.247 37.33 0 39.429 2.2656 48.696-17.264-0.5081 0 8.1923-16.541 8.1923-29.818zm-604.98 24.24c6.7949-14.913-1.241-17.463-9.05-2.8717-6.3688 11.9-6.6026 15.562-0.9935 15.562 2.3438 0 6.8633-5.7106 10.044-12.69zm546.15-17.262c5.9794-6.6072 6.9574-10.745 3.1024-13.127-6.8912-4.259-20.413 6.1958-20.413 15.783 0 9.7847 7.0276 8.7065 17.31-2.6557zm-517.68-18.379c12.775-9.6653 6.5618-18.491-8.5126-3.4161-12.474 12.474-6.5842 14.838 8.5126 3.4161zm-134.64-38.719c3.0651-8.7923 5.5728-17.858 5.5728-20.145 0-7.3393-14.138 0.9898-16.69 9.8325-5.0063 17.348-12.476 26.298-2.1158 26.298 5.7408-1e-4 13.233-13.387 13.233-15.986zm116.27-30.556c5.6271-7.8854 5.4174-9.295-1.3824-9.295-8.563 0-53.474 38.912-53.474 46.332 1e-4 17.992 45.433-23.831 54.856-37.036zm-3.2384-48.772c-13.579-4.5265-101.57 69.074-95.099 79.545 6.3797 10.323 105.44-76.098 95.099-79.545zm-89.688 43.421c6.489-4.8428-12.69-6.9729-12.69 4.5163 0 4.6531 1.7131 6.3929 3.8071 3.8661 2.0938-2.5268 6.0913-6.2988 8.8831-8.3824zm175.53-22.936c69.028-95.714 10.911-118.15 97.886-217.03 44.533-50.63 49.735-54.718 97.084-76.295 46.353-21.124 63.504-36.79 63.504-58.008 0-23.826 13.281-19.52 17.3 5.6095 3.0289 18.942 1.8138 22.589-12.042 36.135-16.629 16.258-19.402 24.014-8.5831 24.014 9.0212 0 19.047-12.612 32.725-41.165 15.91-33.212 14.74-48.207-4.6825-60.018-16.436-9.995-32.179-8.7999-27.987 2.1245 1.3147 3.4262-7.7307 15.754-20.101 27.395-19.117 17.99-24.023 20.346-32.698 15.703-10.92-5.844-9.0061-13.259 6.2649-24.276 11.912-8.5943 11.745-16.21-0.3558-16.21-13.624 0-28.767 31.48-55.465 45.392-30.97 16.138-69.612 46.046-87.098 45.787-12.364-0.1833-12.077-0.8639 7.443-17.612 11.168-9.5819 31.726-23.516 45.685-30.964 25.977-13.86 58.375-41.078 58.375-49.041 0-2.4451-12.563-2.8759-27.919-0.9574-37.315 4.6622-37.008-4.9078 0.5077-15.814 20.674-6.0101 29.949-6.7409 34.01-2.6798 6.9767 6.9768 52.603 7.3842 56.852 0.5077 5.9523-9.6311 31.078-5.0313 54.844 10.04 32.892 20.859 13.43 13.482 43.462 45.688 10.794 11.576 26.213 33.684 34.264 49.13 15.516 29.768 54.677 70.25 62.988 65.113 8.672-5.3599 10.628-61.045-33.297-104.15-24.045-23.598-27.368-30.284-15.053-30.284 14.621 0 7.4617-13.753-11.421-21.939-82.491-35.762-91.251-37.752-174.7-39.677-43.738-1.0094-81.424 0.0648-83.748 2.3869s-0.1583 7.1958 4.8119 10.83c8.4117 6.1508 8.1755 6.8245-3.4117 9.7327-6.8469 1.7185-16.074 1.7333-20.506 0.033-10.827-4.1547-31.161 9.823-39.45 27.118-8.1238 16.95-16.167 16.504-18.357-1.0172-2.0264-16.209-8.3029-16.174-29.725 0.165-24.032 18.33-57.54 28.688-68.52 41.371-9.3334 10.781-39.742 93.984-39.742 108.74 0 18.17 10.745 7.4933 24.602-24.446 19.284-44.448 61.576-87.767 85.804-87.886 12.978-0.064 5.7234 15.465-12.69 27.165-10.47 6.6526-23.288 16.852-28.487 22.665-25.165 28.141-52.546 109.91-46.312 138.29 5.2046 23.697-17.841 67.364-17.841 82.927 0 3.8961-7.8404 18.735-17.423 32.974-24.082 35.785-10.764 33.223 24.328-4.6792 28.304-30.572 43.895-64.716 43.83-95.985-0.0776-37.042 53.527-131.62 66.976-118.17 11.818 11.818-28.373 28.987-49.509 131.31-12.469 60.368-26.176 57.01-18.566 70.609 4.2641 7.6194 5.6284 7.2657 13.095-3.3947 4.5844-6.5451 8.3353-18.276 8.3353-26.068 0-18.648 3.9127-21.89 33.164-81.667 29.139-59.548 46.477-82.419 83.235-109.8 39.324-29.291 58.261-26.798 24.464 3.2208-108.19 96.092-111.11 199.59-144.23 279.38-8.4064 20.248-8.4083 21.736-0.0255 21.736 5.6031 2e-4 24.919-24.068 24.109-24.068zm535.92-48.408c-10.055-24.064-38.403-39.169-53.191-53.157-13.215-12.501-21.211-7.3635-21.211 13.629 0 31.728 7.853 45.929 30.269 54.734 23.643 9.2871 34.583 29.287 48.411 49.657 1.0619-16.432 4.3547-44.201-4.278-64.862h-1e-4zm-688.61 26.792c4.9943-9.3318 3.8604-10.152-14.035-10.152-18.215 0-31.65 6.8955-31.65 16.244 0 2.2335 9.0567 4.0609 20.126 4.0609 14.931 0 21.528-2.6207 25.559-10.152zm-43.149-35.527c1.7731-5.5867 4.7832-10.162 6.6889-10.167 6.7891-0.0203 64.318-54.803 61.076-58.164-6.5284-6.7675-54.525 22.8-72.378 44.588-20.38 24.871-25.405 48.24-8.4194 39.149 5.3946-2.8871 11.259-9.8203 13.032-15.407l3e-4 1e-4zm65.661 0.6631c12.795-2.7538 15.827-6.7899 21.476-28.587 9.3672-36.144 9.1288-36.369-15.501-14.606-12.251 10.825-28.288 23.822-35.637 28.881-22.688 15.618-8.4109 22.507 29.662 14.312h-2e-4zm515.56-61.582c5.7781-3.7339 3.6356-4.9394-8.8832-4.9984-31.158-0.1394-12.471 18.798 8.8832 4.9984zm49.798-13.76c-1.4608-17.465-3.0533-19.154-21.88-23.195-33.114-7.108-78.68 2.2991-78.68 16.244 0 1.8843 14.441 2.5066 32.091 1.3826 28.785-1.8328 33.622-0.6974 46.954 11.02 19.986 17.566 23.368 16.709 21.515-5.4518l-1e-4 2e-4zm74.428 13.983c3.7277-6.0313-20.115-22.237-28.57-19.418-4.1212 1.3737-2.4789 5.7751 4.9135 13.168 12.027 12.028 18.955 13.858 23.656 6.2509zm-360-15.885c-1.5781 2.5534 2e-4 5.608 3.5074 6.788 9.4274 3.1718 24.462-1.7325 21.248-6.9315 1e-4 -4.0329-20.131-7.3408-24.756 0.1435zm321.27-117.81c-5.7402-10.726-5.9623-10.747-9.7955-0.9353-4.9318 12.623-5.7531 45.3-1.2517 49.802 19.394 19.394 20.751-30.734 11.047-48.867zm1177.6 4094.5c-9.8281-2.5991-26.825-26.4-22.174-31.051 7.8633-7.8623 65.782 38.158 113.05-9.1143 6.519-6.519 21.675-4.7192 21.675 2.5742 0 1.9707-6.772 10.071-15.049 18-18.525 17.748-67.367 27.562-97.506 19.591v-4e-4zm564.33-88.432c0-9.9658 17.245-35.047 24.096-35.047 10.94 0 13.138 14.414 4.2634 27.958-8.2681 12.618-28.36 17.641-28.36 7.0889v5e-4zm-3284.2-368.65c0-7.0654 168.36-36.98 227.84-55.113 8.635-2.6326 11.494-1.8701 9.9834 2.6628-3.1803 9.5413-100.49 40.856-127.1 40.901-9.2469 0.0151-24.807 2.103-34.579 4.6392-28.356 7.3594-76.142 11.696-76.142 6.9097l-3e-4 5e-4zm-10.152-41.417c0-6.0376 51.59-15.182 105.68-34.587 41.85-15.015 36.885-14.382 31.262-36.787 58.889 5.1294 116.33 11.173 179.73 2.3069 24.194-3.3833 29.436-2.8706 27.58 2.697-4.1872 12.562-77.996 25.61-125.98 22.271-41.862-2.9128-44.285-2.4602-81.364 15.194-50.846 24.21-136.91 42.38-136.91 28.906l-2e-4 3e-4zm-44.424-62.8c3.1781-9.5718 44.145-4.8396 136.13-34.182l63.783-20.347c67.652 4.5159 186.35 15.027 283.25-13.082 65.396-18.97 91.751 2.4299-42.799 28.239-43.955 8.4316-149.47 12.045-161.64 5.5356-6.2308-3.3345-26.747-6.2078-45.592-6.385-26.751-0.252-42.601 3.0161-72.29 14.904-50.672 20.29-160.84 44.062-160.84 25.317zm44.424-74.53c0-13.414 77.227-13.455 101.52-30.348 14.946-10.391 61.946-10.126 74.656 0.4221 6.0558 5.0259 33.321 6.502 112.61 6.0967 98.972-0.5059 106.53-1.2375 140.15-13.555 23.105-8.4663 37.293-11.293 40.566-8.082 6.3219 6.2021-1.3666 11.308-37.847 25.132-41.712 15.807-118.01 19.572-223.53 11.032-85.944-6.9558-90.243-6.8447-132.22 3.4236-46.26 11.315-75.897 13.61-75.897 5.8791zm221.88-63.657c-1.8175-8.3955 171.99-1.1135 208.83-12.027 22.968-6.804 32.098-4.729 22.3 5.0681-18.329 18.329-226.56 28.082-231.13 6.9592zm-206.65-17.707c0-12.995 94.283-18.916 161.09-43.136l36.725-13.314c30.132 22.277 20.978 22.542 110.53 22.921 121.62 0.5146 135.49-11.376 132.1-1.1904-3.2903 9.8706-34.758 15.046-107.79 17.728-74.059 2.72-75.384-0.1519-147.51-19.535l-27.85 11.007c-28.686 11.337-118.56 30.4-143.32 30.4-12.621-1e-4 -14.682-4.8807-13.969-4.8807zm276.21-63.62c-71.621-12.728-34.435-22.681-109.11-9.6116-38.403 6.7214-52 7.4333-56.475 2.9578-8.9253-8.9253-4.1429-10.881 44.772-18.305 71.598-10.867 96.778-28.368 114.72-28.368 15.768 0 9.8322 8.2942-12.514 17.488l-21.574 8.876c23.238 10.04 24.271 14.455 112.05 15.641 43.066 0.582 78.302 2.7468 78.302 4.8105 0 10.57-102.37 15.008-150.18 6.5105v7e-4zm67.086-28.514c-12.203-7.3206-2.473-14.505 19.644-14.505 15.152 0 32.331 7.3032 27.772 11.806-6.0251 5.9504-38.879 7.8203-47.416 2.699h-3e-4zm-262.08-46.699c0-5.7585 7.7499-8.761 29.188-11.308 44.773-5.3201 129.55-34.426 159.65-54.808 13.742-9.3069 37.746-7.6316 31.664 2.21-5.5864 9.0391-85.632 46.437-118.89 55.546-18.195 4.9834-48.5 10.668-67.346 12.631-29.053 3.0265-34.264 2.3768-34.264-4.2711zm15.228-68.909c0-6.4526 44.93-9.4727 126.67-36.902 58.831-19.743 76.38-23.189 76.38-14.998 0 5.3843-91.878 39.767-131.76 49.309-32.44 7.7607-71.282 9.1726-71.282 2.5911h-4e-4zm71.066-61.648c0-6.7568 4.6639-6.0073 55.837-24.409 53.623-19.283 56.608-19.926 59.254-12.77 2.8636 7.7444-56.859 26.885-83.604 37.7-15.473 6.2566-31.487 5.9919-31.487-0.5205h-4e-4zm159.9-98.2c-13.346-6.155-14.075-7.5005-5.9005-10.883 10.198-4.2197 108.89-0.1204 113.73 4.7239 7.1222 7.1221-7.4701 10.694-48.605 11.896-50.08 1.464-57.833-5.737-59.228-5.737zm30.434-43.808c-8.6474-13.993 43.624-11.542 47.008-1.2332 2.5718 7.8346-42.203 9.0091-47.008 1.2332z"/> </g> </svg>